<svg width="25" height="25" viewBox="0 0 25 25" fill="none" xmlns="http://www.w3.org/2000/svg">
<path d="M1.89508e-08 1.83356C1.89509e-08 2.33031 0.19702 2.80671 0.547718 3.15796C0.898416 3.50921 1.37407 3.70655 1.87003 3.70655H14.1114C14.4825 3.70114 14.8468 3.80725 15.1571 4.01121C15.4674 4.21517 15.7096 4.50761 15.8523 4.85077C15.9951 5.19393 16.0319 5.57207 15.958 5.93638C15.8841 6.30069 15.7028 6.63445 15.4377 6.89458L0.557027 21.7987C0.380631 21.9718 0.240505 22.1786 0.144857 22.4067C0.0492095 22.6348 -3.52683e-05 22.8796 1.89508e-08 23.127C1.89509e-08 23.6238 0.19702 24.1002 0.547718 24.4514C0.898416 24.8027 1.37407 25 1.87003 25C2.11703 25 2.36155 24.9507 2.58928 24.8549C2.81701 24.7591 3.02339 24.6188 3.19629 24.4421L18.0769 9.53801C18.3391 9.27901 18.6719 9.10334 19.0335 9.03302C19.395 8.96271 19.7692 9.00089 20.1092 9.14276C20.4491 9.28463 20.7397 9.52386 20.9444 9.83049C21.1491 10.1371 21.2589 10.4975 21.2599 10.8664V23.127C21.2599 23.6238 21.457 24.1002 21.8077 24.4514C22.1584 24.8027 22.634 25 23.13 25C23.6259 25 24.1016 24.8027 24.4523 24.4514C24.803 24.1002 25 23.6238 25 23.127V1.87341C25 1.37667 24.803 0.900265 24.4523 0.549014C24.1016 0.197763 23.6259 0.000432878 23.13 0.000432878H1.90982C1.66423 -0.00485638 1.42 0.0383707 1.1911 0.127641C0.96219 0.216912 0.75308 0.350487 0.575726 0.520719C0.398372 0.690951 0.256251 0.894507 0.157465 1.11977C0.0586793 1.34503 0.00516977 1.58759 1.89508e-08 1.83356Z" fill="#CB94D3"/>
</svg>
