<svg width="40" height="41" viewBox="0 0 40 41" fill="none" xmlns="http://www.w3.org/2000/svg">
<path d="M4.75329 14.4531C4.83052 13.4908 5.26737 12.5929 5.97685 11.9382C6.68633 11.2835 7.61638 10.9201 8.58177 10.9203H31.7331C32.6985 10.9201 33.6286 11.2835 34.338 11.9382C35.0475 12.5929 35.4844 13.4908 35.5616 14.4531L37.1034 33.6531C37.1458 34.1815 37.0783 34.7129 36.9053 35.2139C36.7322 35.7149 36.4573 36.1747 36.0979 36.5643C35.7384 36.9539 35.3022 37.2648 34.8167 37.4775C34.3312 37.6902 33.8069 37.8001 33.2768 37.8003H7.03809C6.50802 37.8001 5.98372 37.6902 5.49821 37.4775C5.01269 37.2648 4.57648 36.9539 4.21702 36.5643C3.85757 36.1747 3.58266 35.7149 3.40962 35.2139C3.23657 34.7129 3.16912 34.1815 3.21153 33.6531L4.75329 14.4531V14.4531Z" stroke="#424242" stroke-width="1.92" stroke-linecap="round" stroke-linejoin="round"/>
<path d="M27.8366 17V8.68C27.8366 6.64314 27.0274 4.6897 25.5871 3.24942C24.1469 1.80914 22.1934 1 20.1566 1C18.1197 1 16.1663 1.80914 14.726 3.24942C13.2857 4.6897 12.4766 6.64314 12.4766 8.68V17" stroke="#424242" stroke-width="1.92" stroke-linecap="round" stroke-linejoin="round"/>
</svg>
