<svg width="50" height="50" viewBox="0 0 50 50" fill="none" xmlns="http://www.w3.org/2000/svg">
<rect width="50" height="50" rx="7" fill="white"/>
<path d="M40.9823 14.8857H9.01813C7.25944 14.8857 5.83374 16.3114 5.83374 18.0701V31.87C5.83374 33.6287 7.25944 35.0544 9.01813 35.0544H40.9823C42.741 35.0544 44.1667 33.6287 44.1667 31.87V18.0701C44.1667 16.3114 42.741 14.8857 40.9823 14.8857Z" fill="url(#paint0_linear_1462_18698)"/>
<path d="M24.2175 17.9023H21.6182V32.4651H24.2175V17.9023Z" fill="white"/>
<path d="M29.0405 22.8188H26.4412V32.4647H29.0405V22.8188Z" fill="white"/>
<path d="M40.6906 32.4651L36.7846 27.3603L40.3774 22.8192H37.3082L33.8633 27.225V17.9023H31.2639V32.4651H33.8633V27.5131L37.3082 32.4651H40.6906Z" fill="white"/>
<path d="M14.995 22.7102C14.1805 22.7088 13.3784 22.9103 12.6612 23.2965V17.9023H10.0618V27.6422C10.0616 28.6179 10.3507 29.5718 10.8926 30.3832C11.4345 31.1947 12.2049 31.8271 13.1063 32.2007C14.0077 32.5743 14.9996 32.6722 15.9566 32.482C16.9137 32.2917 17.7928 31.822 18.4828 31.1321C19.1729 30.4423 19.6428 29.5633 19.8333 28.6063C20.0237 27.6493 19.9261 26.6574 19.5528 25.7559C19.1794 24.8544 18.5471 24.0838 17.7359 23.5417C16.9246 22.9996 15.9707 22.7102 14.995 22.7102ZM14.995 29.976C14.5334 29.9762 14.082 29.8395 13.6981 29.5833C13.3141 29.327 13.0148 28.9626 12.838 28.5361C12.6611 28.1097 12.6147 27.6404 12.7046 27.1876C12.7945 26.7348 13.0167 26.3189 13.3431 25.9924C13.6694 25.6658 14.0852 25.4435 14.538 25.3533C14.9907 25.2631 15.46 25.3093 15.8866 25.4859C16.3131 25.6625 16.6776 25.9616 16.9341 26.3454C17.1906 26.7293 17.3275 27.1805 17.3275 27.6422C17.3275 28.2609 17.0818 28.8543 16.6444 29.292C16.207 29.7296 15.6137 29.9756 14.995 29.976Z" fill="white"/>
<path d="M17.5317 21.8167C18.8116 21.8167 19.8492 20.7791 19.8492 19.4992C19.8492 18.2192 18.8116 17.1816 17.5317 17.1816C16.2518 17.1816 15.2142 18.2192 15.2142 19.4992C15.2142 20.7791 16.2518 21.8167 17.5317 21.8167Z" fill="url(#paint1_radial_1462_18698)"/>
<defs>
<linearGradient id="paint0_linear_1462_18698" x1="25.0002" y1="35.0544" x2="25.0002" y2="14.8857" gradientUnits="userSpaceOnUse">
<stop stop-color="#262626"/>
<stop offset="1"/>
</linearGradient>
<radialGradient id="paint1_radial_1462_18698" cx="0" cy="0" r="1" gradientUnits="userSpaceOnUse" gradientTransform="translate(15.6464 17.0564) scale(7.59769)">
<stop stop-color="#FF0000"/>
<stop offset="0.49" stop-color="#E83E49"/>
<stop offset="1" stop-color="#FF00FF"/>
</radialGradient>
</defs>
</svg>
