<svg width="30" height="30" viewBox="0 0 30 30" fill="none" xmlns="http://www.w3.org/2000/svg">
<path d="M15 0C6.71589 0 0 6.71605 0 15C0 23.284 6.71605 30 15 30C23.284 30 30 23.284 30 15C30 6.71605 23.284 0 15 0ZM22.4757 9.56816C19.6372 13.6384 16.7962 17.7071 13.954 21.7747C13.7508 22.065 13.513 22.2109 13.2752 22.2109C13.0571 22.2109 12.8393 22.0883 12.6498 21.8427C11.1009 19.8379 9.55111 17.8334 8.00841 15.8237C7.7697 15.5128 7.56143 15.1774 7.35018 14.8462C7.17264 14.5678 7.21202 14.296 7.42 14.0462C7.494 13.9573 7.56889 13.8687 7.65005 13.7866C7.94127 13.4915 8.1758 13.3405 8.42912 13.3405C8.63112 13.3405 8.84476 13.4369 9.10913 13.6327C10.2794 14.5009 11.4213 15.4077 12.5749 16.299C12.7837 16.4601 12.9914 16.6227 13.2209 16.8015C13.6807 16.2718 14.1205 15.7676 14.5576 15.2615C16.5168 12.9932 18.4754 10.7246 20.4334 8.45534C20.821 8.00627 21.0779 7.78845 21.3635 7.78845C21.6159 7.78845 21.8904 7.95883 22.2969 8.28974C22.8647 8.75283 22.9 8.95949 22.4757 9.56816Z" fill="#CB94D3"/>
<path d="M22.4757 9.56816C19.6372 13.6384 16.7962 17.7071 13.954 21.7747C13.7508 22.065 13.513 22.2109 13.2752 22.2109C13.0571 22.2109 12.8393 22.0883 12.6498 21.8427C11.1009 19.8379 9.55111 17.8334 8.00841 15.8237C7.7697 15.5128 7.56143 15.1774 7.35018 14.8462C7.17264 14.5678 7.21202 14.296 7.42 14.0462C7.494 13.9573 7.56889 13.8687 7.65005 13.7866C7.94127 13.4915 8.1758 13.3405 8.42912 13.3405C8.63112 13.3405 8.84476 13.4369 9.10913 13.6327C10.2794 14.5009 11.4213 15.4077 12.5749 16.299C12.7837 16.4601 12.9914 16.6227 13.2209 16.8015C13.6807 16.2718 14.1205 15.7676 14.5576 15.2615C16.5168 12.9932 18.4754 10.7246 20.4334 8.45534C20.821 8.00627 21.0779 7.78845 21.3635 7.78845C21.6159 7.78845 21.8904 7.95883 22.2969 8.28974C22.8647 8.75283 22.9 8.95949 22.4757 9.56816Z" fill="white"/>
</svg>
