<svg width="100" height="100" viewBox="0 0 100 100" fill="none" xmlns="http://www.w3.org/2000/svg">
<path d="M45.9506 3.70361C48.2431 1.60689 51.7569 1.60689 54.0494 3.70361L63.4136 12.2682C64.4516 13.2176 65.7903 13.7721 67.1956 13.8347L79.8731 14.4002C82.9768 14.5386 85.4614 17.0232 85.5998 20.1269L86.1653 32.8044C86.2279 34.2097 86.7824 35.5484 87.7318 36.5864L96.2964 45.9506C98.3931 48.2431 98.3931 51.7569 96.2964 54.0494L87.7318 63.4136C86.7824 64.4516 86.2279 65.7903 86.1653 67.1956L85.5998 79.8731C85.4614 82.9768 82.9768 85.4614 79.8731 85.5998L67.1956 86.1653C65.7903 86.2279 64.4516 86.7824 63.4136 87.7318L54.0494 96.2964C51.7569 98.3931 48.2431 98.3931 45.9506 96.2964L36.5864 87.7318C35.5484 86.7824 34.2097 86.2279 32.8044 86.1653L20.1269 85.5998C17.0232 85.4614 14.5386 82.9768 14.4002 79.8731L13.8347 67.1956C13.7721 65.7903 13.2176 64.4516 12.2682 63.4136L3.70361 54.0494C1.60689 51.7569 1.60689 48.2431 3.70361 45.9506L12.2682 36.5864C13.2176 35.5484 13.7721 34.2097 13.8347 32.8044L14.4002 20.1269C14.5386 17.0232 17.0232 14.5386 20.1269 14.4002L32.8044 13.8347C34.2097 13.7721 35.5484 13.2176 36.5864 12.2682L45.9506 3.70361Z" fill="#CB94D3"/>
<path d="M50 14C30.1181 14 14 30.1185 14 50C14 69.8815 30.1185 86 50 86C69.8815 86 86 69.8815 86 50C86 30.1185 69.8815 14 50 14ZM67.9417 36.9636C61.1293 46.7322 54.3109 56.4971 47.4897 66.2593C47.002 66.9561 46.4313 67.3063 45.8605 67.3063C45.337 67.3063 44.8143 67.0119 44.3595 66.4226C40.6422 61.611 36.9227 56.8001 33.2202 51.9769C32.6473 51.2307 32.1474 50.4258 31.6404 49.6309C31.2143 48.9627 31.3089 48.3104 31.808 47.7109C31.9856 47.4975 32.1653 47.2848 32.3601 47.0879C33.0591 46.3796 33.6219 46.0173 34.2299 46.0173C34.7147 46.0173 35.2274 46.2486 35.8619 46.7184C38.6705 48.8022 41.4112 50.9785 44.1797 53.1176C44.6809 53.5043 45.1794 53.8946 45.7301 54.3235C46.8336 53.0524 47.8891 51.8422 48.9383 50.6277C53.6403 45.1838 58.341 39.7389 63.0402 34.2928C63.9704 33.2151 64.587 32.6923 65.2724 32.6923C65.8782 32.6923 66.5371 33.1012 67.5125 33.8954C68.8752 35.0068 68.96 35.5028 67.9417 36.9636Z" fill="#CB94D3"/>
<path d="M67.9417 36.9636C61.1293 46.7322 54.3109 56.4971 47.4897 66.2593C47.002 66.9561 46.4313 67.3063 45.8605 67.3063C45.337 67.3063 44.8143 67.0119 44.3595 66.4226C40.6422 61.611 36.9227 56.8001 33.2202 51.9769C32.6473 51.2307 32.1474 50.4258 31.6404 49.6309C31.2143 48.9627 31.3089 48.3104 31.808 47.7109C31.9856 47.4975 32.1653 47.2848 32.3601 47.0879C33.0591 46.3796 33.6219 46.0173 34.2299 46.0173C34.7147 46.0173 35.2274 46.2486 35.8619 46.7184C38.6705 48.8022 41.4112 50.9785 44.1797 53.1176C44.6809 53.5043 45.1794 53.8946 45.7301 54.3235C46.8336 53.0524 47.8891 51.8422 48.9383 50.6277C53.6403 45.1838 58.341 39.7389 63.0402 34.2928C63.9704 33.2151 64.587 32.6923 65.2724 32.6923C65.8782 32.6923 66.5371 33.1012 67.5125 33.8954C68.8752 35.0068 68.96 35.5028 67.9417 36.9636Z" fill="white"/>
</svg>
