<svg width="11" height="11" viewBox="0 0 11 11" fill="none" xmlns="http://www.w3.org/2000/svg">
<path fill-rule="evenodd" clip-rule="evenodd" d="M10.3269 10.3384C10.0702 10.5952 9.65384 10.5953 9.397 10.3385C9.39693 10.3385 9.39687 10.3384 9.39681 10.3384L5.25664 6.19818L1.12027 10.3348C0.862064 10.5903 0.44564 10.588 0.190165 10.3298C-0.0633946 10.0735 -0.0633874 9.66092 0.190181 9.40465L4.32667 5.26819L0.190936 1.13245C-0.0621634 0.871938 -0.0561532 0.455573 0.20436 0.202473C0.45954 -0.0454445 0.865608 -0.0454804 1.12083 0.202392L5.25673 4.3381L9.39609 0.198777C9.64952 -0.0614094 10.0659 -0.066882 10.3261 0.186554C10.5863 0.43999 10.5917 0.856362 10.3383 1.11655C10.3343 1.12071 10.3301 1.12482 10.326 1.12887L6.18686 5.26819L10.327 9.40836C10.5838 9.66512 10.5838 10.0814 10.3271 10.3382C10.327 10.3383 10.327 10.3383 10.3269 10.3384L10.3269 10.3384Z" fill="#8B8F92"/>
</svg>
