<svg width="15" height="15" viewBox="0 0 15 15" fill="none" xmlns="http://www.w3.org/2000/svg">
<path fill-rule="evenodd" clip-rule="evenodd" d="M14.7179 14.7255C14.352 15.0914 13.7586 15.0915 13.3926 14.7258C13.3925 14.7257 13.3924 14.7256 13.3923 14.7255L7.49174 8.82844L1.59661 14.7204C1.22861 15.0843 0.635125 15.0812 0.271023 14.7134C-0.0903499 14.3484 -0.0903396 13.7606 0.271046 13.3956L6.16636 7.5038L0.272122 1.61302C-0.0885952 1.24195 -0.0800294 0.648899 0.291254 0.288395C0.654935 -0.0647294 1.23366 -0.0647804 1.59741 0.28828L7.49189 6.17901L13.3913 0.283131C13.7525 -0.0874691 14.3459 -0.095264 14.7167 0.26572C15.0875 0.626703 15.0953 1.21977 14.7341 1.59037C14.7283 1.59629 14.7225 1.60214 14.7166 1.60791L8.8175 7.50379L14.7181 13.4009C15.084 13.7666 15.0841 14.3596 14.7181 14.7253C14.7181 14.7254 14.718 14.7255 14.7179 14.7255L14.7179 14.7255Z" fill="#CB94D3"/>
</svg>
