<svg width="10" height="10" viewBox="0 0 10 10" fill="none" xmlns="http://www.w3.org/2000/svg">
<path fill-rule="evenodd" clip-rule="evenodd" d="M8.85712 8.86581C8.66178 9.06123 8.34501 9.0613 8.14959 8.86596C8.14954 8.86591 8.1495 8.86586 8.14945 8.86581L4.99945 5.71581L1.85235 8.86309C1.65589 9.05746 1.33906 9.05578 1.14468 8.85932C0.951767 8.66434 0.951772 8.35039 1.1447 8.15541L4.2919 5.00824L1.14527 1.86161C0.952704 1.6634 0.957277 1.34662 1.15549 1.15405C1.34964 0.965424 1.65859 0.965397 1.85277 1.15399L4.99952 4.30059L8.1489 1.15124C8.34172 0.953277 8.65851 0.949114 8.85647 1.14194C9.05443 1.33476 9.0586 1.65155 8.86577 1.84951C8.86269 1.85268 8.85956 1.8558 8.8564 1.85889L5.7072 5.00824L8.8572 8.15824C9.05257 8.35358 9.05259 8.67033 8.85724 8.8657C8.8572 8.86573 8.85716 8.86577 8.85712 8.86581L8.85712 8.86581Z" fill="#8B8F92"/>
</svg>
