<svg width="50" height="50" viewBox="0 0 50 50" fill="none" xmlns="http://www.w3.org/2000/svg">
<rect width="50" height="50" rx="7" fill="white"/>
<path d="M10.4137 21.8379L8.97626 23.7913H16.8114C17.2082 23.7913 17.2027 23.9413 17.009 24.2041C16.8153 24.4668 16.4835 24.9335 16.2827 25.2034C16.1811 25.3407 15.9978 25.5907 16.6066 25.5907H19.8109L20.7634 24.3001C21.3524 23.5008 20.8142 21.8395 18.7092 21.8395L10.4137 21.8379Z" fill="#D60024"/>
<path d="M8.39447 28.2013L11.2821 24.2778H14.8659C15.2628 24.2778 15.2564 24.4279 15.0628 24.6906C14.8691 24.9533 14.5317 25.4145 14.3317 25.6852C14.2301 25.8225 14.046 26.0725 14.6548 26.0725H19.4554C19.0585 26.6194 17.7615 28.2013 15.4358 28.2013H8.39447Z" fill="#D60024"/>
<path d="M24.9321 26.0728L23.3661 28.2016H19.2386C19.2386 28.2016 20.8039 26.0728 20.8054 26.0728H24.9321Z" fill="#D60024"/>
<path d="M31.2607 25.5907H21.1571L23.9201 21.8379H28.0492L26.4657 23.9897H28.3088L29.8939 21.8379H34.0222L31.2607 25.5907Z" fill="#D60024"/>
<path d="M30.9059 26.0728L29.339 28.2016H25.2115C25.2115 28.2016 26.7768 26.0728 26.7784 26.0728H30.9059Z" fill="#D60024"/>
<path d="M2.50006 26.9126H8.58574L8.25315 27.365H2.50006V26.9126Z" fill="#D60024"/>
<path d="M2.50006 26.0728H9.20407L8.87069 26.5244H2.50006V26.0728Z" fill="#D60024"/>
<path d="M2.50006 27.752H7.96741L7.63721 28.2012H2.50006V27.752Z" fill="#D60024"/>
<path d="M47.5 27.365H41.4381L41.7707 26.9126H47.5V27.365Z" fill="#D60024"/>
<path d="M47.5 28.2012L40.8214 28.202L41.1523 27.752H47.5V28.2012Z" fill="#D60024"/>
<path d="M42.3876 26.0728H47.5001V26.5252H42.0558L42.3876 26.0728Z" fill="#D60024"/>
<path d="M39.742 21.8379L36.979 25.5907H32.6038C32.6038 25.5907 35.3669 21.8379 35.3684 21.8379H39.742Z" fill="#D60024"/>
<path d="M32.2492 26.0728C32.2492 26.0728 31.9475 26.4855 31.8007 26.6839C31.2824 27.3848 31.7412 28.2016 33.4334 28.2016H40.0652L41.6321 26.0728H32.2492Z" fill="#D60024"/>
</svg>
