<svg width="35" height="35" viewBox="0 0 35 35" fill="none" xmlns="http://www.w3.org/2000/svg">
<g clip-path="url(#clip0_2103_15976)">
<path d="M27.75 17.5C27.75 11.8625 23.1375 7.25 17.5 7.25C11.8625 7.25 7.25 11.8625 7.25 17.5C7.25 22.625 10.9656 26.8531 15.8344 27.6219V20.4469H13.2719V17.5H15.8344V15.1938C15.8344 12.6313 17.3719 11.2219 19.6781 11.2219C20.8313 11.2219 21.9844 11.4781 21.9844 11.4781V14.0406H20.7031C19.4219 14.0406 19.0375 14.8094 19.0375 15.5781V17.5H21.8563L21.3438 20.4469H18.9094V27.75C24.0344 26.9812 27.75 22.625 27.75 17.5Z" fill="white"/>
<path fill-rule="evenodd" clip-rule="evenodd" d="M-3 17.5C-3 6.17816 6.17816 -3 17.5 -3C28.8218 -3 38 6.17816 38 17.5C38 28.8218 28.8218 38 17.5 38C6.17816 38 -3 28.8218 -3 17.5ZM17.5 7.25C23.1375 7.25 27.75 11.8625 27.75 17.5C27.75 22.625 24.0344 26.9812 18.9094 27.75C17.0551 27.8991 16.0867 27.7267 15.8344 27.6219C10.9656 26.8531 7.25 22.625 7.25 17.5C7.25 11.8625 11.8625 7.25 17.5 7.25Z" fill="#424242"/>
<path d="M18.9094 27.75V20.4469H21.3438L21.8563 17.5H19.0375V15.5781C19.0375 14.8094 19.4219 14.0406 20.7031 14.0406H21.9844V11.4781C21.9844 11.4781 20.8313 11.2219 19.6781 11.2219C17.3719 11.2219 15.8344 12.6313 15.8344 15.1938V17.5H13.2719V20.4469H15.8344V27.6219C16.0867 27.7267 17.0551 27.8991 18.9094 27.75Z" fill="#424242"/>
</g>
<defs>
<clipPath id="clip0_2103_15976">
<rect width="35" height="35" rx="17.5" fill="white"/>
</clipPath>
</defs>
</svg>
