<svg width="25" height="25" viewBox="0 0 25 25" fill="none" xmlns="http://www.w3.org/2000/svg">
<path fill-rule="evenodd" clip-rule="evenodd" d="M10.2611 13.8903L12.6526 22.9769C12.8254 23.6342 13.4002 24.1067 14.0787 24.1482C14.757 24.1902 15.3861 23.7922 15.6381 23.1611L24.0384 2.15995C24.2726 1.57509 24.1356 0.906702 23.6898 0.461441C23.2445 0.0156311 22.5762 -0.121304 21.9913 0.112842L0.990127 8.51313C0.359048 8.76522 -0.0389599 9.3942 0.00302798 10.0726C0.0445155 10.751 0.517054 11.3258 1.17432 11.4986L10.2611 13.8903ZM23.0235 1.86999L14.6629 22.7712C14.5788 22.9819 14.3695 23.1147 14.143 23.1005C13.9173 23.0868 13.7257 22.9293 13.668 22.7099L11.2753 13.6184L23.0235 1.86999ZM22.2812 1.12762L10.5331 12.8757L1.44156 10.483C1.22217 10.4253 1.06466 10.2337 1.05094 10.008C1.0367 9.78154 1.1696 9.57216 1.3802 9.48813L22.2812 1.12762Z" fill="#CB94D3"/>
</svg>
