<svg width="23" height="23" viewBox="0 0 23 23" fill="none" xmlns="http://www.w3.org/2000/svg">
<path d="M22.9961 11.4979C22.9961 7.95419 21.4012 4.66227 18.6142 2.46555C16.5718 0.854405 14.1141 0 11.5102 0H11.4858C8.87775 0 6.42427 0.854405 4.3819 2.46555C1.59881 4.66254 0 7.95419 0 11.4979C0 14.8546 1.43219 17.9835 3.9506 20.1721H3.93436L4.37795 20.5303C4.44292 20.579 4.50817 20.6319 4.56922 20.6809C6.25368 21.9543 8.20255 22.7233 10.2816 22.9389C10.6804 22.9796 11.0873 23 11.4942 23C11.9011 23 12.308 22.9796 12.7068 22.9389C12.7964 22.9308 12.8858 22.9185 12.9754 22.9065C13.1137 22.8902 13.252 22.8698 13.3904 22.8454C13.48 22.8292 13.5693 22.8169 13.659 22.7967C15.4613 22.455 17.1458 21.6899 18.6147 20.5305L19.0583 20.1808H19.042C21.5605 17.9877 22.9926 14.859 22.9926 11.5025L22.9961 11.4979ZM22 11H17.2918C17.2551 8.28211 16.7507 5.89108 15.8554 3.87722C16.7017 3.67782 17.5357 3.41738 18.3537 3.10008C20.803 5.10188 21.9064 7.84659 22 11ZM17.6945 20.3959C17.6659 20.4163 17.6416 20.4325 17.613 20.4527C17.5805 20.4771 17.5439 20.4975 17.5114 20.5219C17.4828 20.5381 17.4584 20.5586 17.4299 20.5748C17.3932 20.5992 17.3607 20.6196 17.324 20.644C17.2955 20.6602 17.2711 20.6765 17.2425 20.6969C17.2059 20.7213 17.1692 20.7417 17.1367 20.7619C17.1123 20.7781 17.0838 20.7944 17.0594 20.8106C17.0227 20.835 16.9821 20.8554 16.9454 20.8798C16.9211 20.896 16.8967 20.9083 16.8721 20.9246C16.8315 20.949 16.7866 20.9733 16.746 20.998C16.7256 21.0103 16.7054 21.0223 16.685 21.0346C16.559 21.1038 16.4287 21.173 16.3025 21.234C16.282 21.2422 16.2618 21.2545 16.2414 21.2626C16.1966 21.283 16.1518 21.3074 16.1072 21.3276C16.0829 21.3399 16.0585 21.3519 16.0339 21.3643C15.9933 21.3847 15.9524 21.4009 15.9118 21.4211C15.8832 21.4334 15.8589 21.4455 15.8303 21.4578C15.7897 21.474 15.753 21.4903 15.7124 21.5065C15.6838 21.5188 15.6555 21.5309 15.627 21.5432C15.5903 21.5595 15.5497 21.5757 15.5091 21.5919C15.4805 21.6043 15.4522 21.6163 15.4237 21.6244C15.387 21.6407 15.3464 21.653 15.3058 21.6692C15.2772 21.6816 15.2489 21.6897 15.2203 21.7017C15.1797 21.718 15.1431 21.7303 15.1024 21.7423C15.0739 21.7505 15.0456 21.7628 15.017 21.7709C14.9764 21.7832 14.9355 21.7995 14.8949 21.8115C14.8664 21.8196 14.8381 21.8319 14.8095 21.8401C14.7689 21.8524 14.728 21.8644 14.6835 21.8807C14.6549 21.8888 14.6306 21.8969 14.602 21.905C14.5572 21.9174 14.5124 21.9294 14.4679 21.9457C14.4435 21.9538 14.4191 21.958 14.3945 21.9661C14.3416 21.9823 14.2847 21.9947 14.2318 22.0109C14.2155 22.0109 14.2032 22.019 14.187 22.0232C14.1178 22.0395 14.0444 22.0599 13.9755 22.0761C13.9593 22.0761 13.943 22.0843 13.9307 22.0885C13.8739 22.1008 13.8209 22.1128 13.7638 22.1251C14.4312 21.5718 15.0372 20.7744 15.5622 19.7489C16.2987 19.9158 17.0229 20.1273 17.7349 20.3877C17.7186 20.3958 17.7063 20.4082 17.6901 20.4202L17.6945 20.3959ZM9.06057 22.068C9.06057 22.068 9.03201 22.0599 9.01577 22.0599C8.9466 22.0437 8.87323 22.0274 8.80433 22.007C8.78808 22.007 8.77577 21.9989 8.75952 21.9947C8.70267 21.9784 8.64974 21.9661 8.59262 21.9499C8.56825 21.9418 8.54389 21.9376 8.51925 21.9294C8.47445 21.9171 8.42965 21.9051 8.3851 21.8888C8.35654 21.8807 8.33218 21.8726 8.30362 21.8645C8.26301 21.8521 8.2182 21.8401 8.17759 21.8238C8.14903 21.8157 8.12073 21.8034 8.09218 21.7953C8.05156 21.783 8.01069 21.7667 7.97008 21.7547C7.94152 21.7466 7.91322 21.7342 7.88467 21.7261C7.84405 21.7138 7.80737 21.6976 7.76676 21.6855C7.7382 21.6732 7.70991 21.6651 7.68135 21.653C7.64074 21.6368 7.60406 21.6245 7.56344 21.6082C7.53488 21.5959 7.50659 21.5878 7.47803 21.5757C7.43742 21.5595 7.40074 21.5432 7.36012 21.527C7.33157 21.5147 7.30327 21.5026 7.27864 21.4945C7.23803 21.4783 7.19716 21.462 7.16074 21.4416C7.13637 21.4293 7.10781 21.4172 7.08344 21.4049C7.04283 21.3845 7.00196 21.3682 6.96135 21.348C6.93698 21.3357 6.91261 21.3276 6.88798 21.3155C6.84318 21.2951 6.79444 21.2707 6.74964 21.2506C6.7292 21.2424 6.71296 21.2301 6.69278 21.222C6.56256 21.157 6.43653 21.0918 6.30631 21.0226C6.28587 21.0103 6.2657 21.0022 6.24946 20.9901C6.20465 20.9658 6.16404 20.9414 6.11924 20.9168C6.09487 20.9044 6.0705 20.8882 6.04587 20.8761C6.00526 20.8518 5.96858 20.8313 5.92796 20.807C5.9036 20.7907 5.87923 20.7745 5.85067 20.7622C5.81399 20.7378 5.77731 20.7174 5.74089 20.693C5.71652 20.6768 5.68796 20.6605 5.6636 20.6443C5.62692 20.6199 5.59443 20.5995 5.55775 20.5751C5.53338 20.5589 5.50482 20.5384 5.48046 20.5222C5.44797 20.4978 5.41129 20.4774 5.3788 20.453C5.35443 20.4368 5.32587 20.4163 5.30151 20.4001C5.28526 20.3878 5.27295 20.3796 5.2567 20.3676C5.96884 20.1071 6.69305 19.8957 7.42934 19.7288C7.95415 20.754 8.56439 21.5555 9.22776 22.105C9.17091 22.0927 9.11769 22.0804 9.06057 22.068ZM12 1C13.1311 1.15459 14.0323 1.78581 14.899 3.40923C13.89 3.6005 13.0376 3.70216 12 3.7226V1ZM11 1V3.7226C9.96241 3.70635 9.1093 3.59628 8.10028 3.40501C8.96703 1.78159 9.86891 1.15877 11 1ZM11 4.37344V11H6.3629C6.39958 8.31464 6.90815 5.96829 7.79925 4.01526C8.90599 4.23508 9.85684 4.35301 11 4.37344ZM11 12V18.6144C9.86079 18.6348 8.90599 18.7566 7.79925 18.9764C6.90815 17.0234 6.39959 14.6856 6.3629 12H11ZM11 22.0232C9.86891 21.8686 8.96703 21.206 8.10028 19.5867C9.1093 19.3955 9.96241 19.2938 11 19.2734V22.0232ZM12 22.0232V19.2734C13.0376 19.2896 13.89 19.3955 14.899 19.5868C14.0323 21.2102 13.1311 21.8686 12 22.0232ZM12 18.6144V12H16.6364C16.5997 14.6854 16.0911 17.0196 15.2 18.9726C14.0933 18.7528 13.1432 18.6348 12 18.6144ZM12 11V4.37344C13.1392 4.353 14.0936 4.2353 15.2003 4.01547C16.0914 5.9685 16.5997 8.31444 16.6364 11H12ZM17.735 2.62432C17.0229 2.88476 16.2987 3.0962 15.5624 3.2631C15.0376 2.23785 14.4273 1.44026 13.764 0.88689C15.188 1.18794 16.5267 1.77387 17.735 2.62432ZM7.4289 3.2631C6.69241 3.0962 5.9682 2.88476 5.26022 2.62432C6.46442 1.77407 7.80727 1.18796 9.23128 0.88693C8.56813 1.4403 7.95792 2.23763 7.43286 3.26314L7.4289 3.2631ZM4.86387 3.2631C5.68159 3.5804 6.29385 3.67394 7.14014 3.87333C6.24509 5.89136 5.73652 8.28224 5.69983 11H1C1.09354 7.84665 2.41066 5.26523 4.86387 3.2631ZM1 12H5.69983C5.73651 14.7179 6.24089 17.1006 7.13618 19.1185C6.28989 19.3179 5.55996 19.4316 4.74197 19.7489C2.29265 17.7471 1.09357 15.1534 1 12ZM18.1453 19.7489C17.3276 19.4316 16.6972 19.3181 15.8509 19.1187C16.7459 17.1007 17.2551 14.7178 17.2918 12H22C21.9065 15.1533 20.5985 17.747 18.1453 19.7489Z" fill="#424242"/>
</svg>
