<svg width="40" height="40" viewBox="0 0 40 40" fill="none" xmlns="http://www.w3.org/2000/svg">
<g clip-path="url(#clip0_1268_13166)">
<path d="M35.1097 20.7277C35.0887 26.0409 32.635 31.13 28.4572 34.3792C24.2164 37.6719 18.5582 38.7625 13.4175 37.2871C8.4466 35.8653 4.26923 32.1022 2.32295 27.2694C0.30301 22.2768 0.736437 16.4825 3.48632 11.8645C6.16207 7.37456 10.8577 4.253 16.019 3.64335C16.7066 3.55797 17.3938 3.5259 18.0813 3.5259C18.7582 3.5259 18.7582 2.45694 18.0813 2.45694C12.4653 2.47819 7.12469 5.14037 3.70823 9.6516C0.271185 14.1844 -0.860552 20.2458 0.683557 25.7304C2.18555 31.0753 6.13063 35.5123 11.2068 37.6399C16.4524 39.8316 22.5969 39.3506 27.4515 36.3678C32.1896 33.4598 35.3729 28.4352 36.0394 22.8766C36.1238 22.1604 36.1663 21.4441 36.1663 20.7278C36.1663 20.0436 35.1087 20.0436 35.1087 20.7278L35.1097 20.7277Z" fill="#424242"/>
<path d="M39.9114 27.9009C38.6211 25.3994 37.3415 22.8871 36.0512 20.3856C35.9136 20.1182 35.4695 20.0329 35.2684 20.2786C33.5126 22.4806 31.7679 24.6723 30.0121 26.8748C29.6101 27.3774 30.3186 28.0937 30.71 27.5802C32.4658 25.3781 34.2105 23.1865 35.9663 20.984C35.7019 20.952 35.4481 20.9199 35.1836 20.877C36.4739 23.3785 37.7535 25.8908 39.0438 28.3923C39.3507 28.9807 40.2075 28.4676 39.9113 27.9009L39.9114 27.9009Z" fill="#424242"/>
</g>
<defs>
<clipPath id="clip0_1268_13166">
<rect width="40" height="40" fill="white" transform="translate(40 39.9999) rotate(-180)"/>
</clipPath>
</defs>
</svg>
