<svg width="25" height="25" viewBox="0 0 25 25" fill="none" xmlns="http://www.w3.org/2000/svg">
<path d="M11.655 1.59617C12.2008 1.09695 13.0374 1.09695 13.5833 1.59617L15.8128 3.63535C16.06 3.8614 16.3787 3.99342 16.7133 4.00834L19.7318 4.14296C20.4707 4.17592 21.0623 4.76751 21.0953 5.50647L21.2299 8.52492C21.2448 8.85953 21.3768 9.17826 21.6029 9.42541L23.6421 11.655C24.1413 12.2008 24.1413 13.0374 23.6421 13.5833L21.6029 15.8128C21.3768 16.06 21.2448 16.3787 21.2299 16.7133L21.0953 19.7318C21.0623 20.4707 20.4707 21.0623 19.7318 21.0953L16.7133 21.2299C16.3787 21.2448 16.06 21.3768 15.8128 21.6029L13.5833 23.6421C13.0374 24.1413 12.2008 24.1413 11.655 23.6421L9.42541 21.6029C9.17826 21.3768 8.85953 21.2448 8.52492 21.2299L5.50647 21.0953C4.76751 21.0623 4.17592 20.4707 4.14296 19.7318L4.00834 16.7133C3.99342 16.3787 3.8614 16.06 3.63535 15.8128L1.59617 13.5833C1.09695 13.0374 1.09695 12.2008 1.59617 11.655L3.63535 9.42541C3.8614 9.17826 3.99342 8.85953 4.00834 8.52492L4.14296 5.50647C4.17592 4.76751 4.76751 4.17592 5.50647 4.14296L8.52492 4.00834C8.85953 3.99342 9.17826 3.8614 9.42541 3.63535L11.655 1.59617Z" fill="#8B8F92"/>
<path fill-rule="evenodd" clip-rule="evenodd" d="M16.8308 16.8353C16.6112 17.0548 16.2552 17.0549 16.0355 16.8355C16.0355 16.8354 16.0354 16.8354 16.0354 16.8353L12.495 13.2971L8.95797 16.8323C8.73717 17.0506 8.38107 17.0487 8.16261 16.828C7.94579 16.609 7.9458 16.2564 8.16263 16.0374L11.6998 12.5023L8.16327 8.96781C7.94684 8.74517 7.95198 8.38934 8.17475 8.17304C8.39296 7.96116 8.7402 7.96113 8.95845 8.17297L12.4951 11.7074L16.0348 8.16988C16.2515 7.94752 16.6075 7.94284 16.83 8.15943C17.0525 8.37602 17.0572 8.73186 16.8405 8.95422C16.837 8.95778 16.8335 8.96129 16.8299 8.96475L13.2905 12.5023L16.8308 16.0405C17.0504 16.26 17.0504 16.6157 16.8309 16.8352C16.8308 16.8352 16.8308 16.8353 16.8308 16.8353L16.8308 16.8353Z" fill="white"/>
</svg>
