<svg width="36" height="36" viewBox="0 0 36 36" fill="none" xmlns="http://www.w3.org/2000/svg">
<path d="M2.72892e-08 2.64033C2.72893e-08 3.35564 0.283708 4.04167 0.788713 4.54747C1.29372 5.05327 1.97866 5.33743 2.69285 5.33743H20.3204C20.8549 5.32964 21.3793 5.48244 21.8262 5.77614C22.2731 6.06984 22.6218 6.49096 22.8274 6.98511C23.0329 7.47926 23.0859 8.02378 22.9795 8.54839C22.8731 9.073 22.6121 9.5536 22.2302 9.9282L0.802118 31.3901C0.548108 31.6395 0.346327 31.9371 0.208595 32.2656C0.0708617 32.594 -5.07864e-05 32.9467 2.72892e-08 33.3029C2.72893e-08 34.0182 0.283708 34.7043 0.788713 35.2101C1.29372 35.7159 1.97866 36 2.69285 36C3.04853 36 3.40063 35.929 3.72856 35.7911C4.0565 35.6531 4.35368 35.4511 4.60266 35.1966L26.0307 13.7347C26.4084 13.3618 26.8876 13.1088 27.4082 13.0076C27.9288 12.9063 28.4676 12.9613 28.9572 13.1656C29.4467 13.3699 29.8651 13.7144 30.1599 14.1559C30.4547 14.5975 30.6128 15.1164 30.6143 15.6476V33.3029C30.6143 34.0182 30.898 34.7043 31.403 35.2101C31.908 35.7159 32.593 36 33.3072 36C34.0214 36 34.7063 35.7159 35.2113 35.2101C35.7163 34.7043 36 34.0182 36 33.3029V2.69772C36 1.9824 35.7163 1.29638 35.2113 0.790581C34.7063 0.284779 34.0214 0.000623345 33.3072 0.000623345H2.75014C2.39649 -0.00699319 2.0448 0.0552537 1.71518 0.183804C1.38555 0.312353 1.08443 0.504701 0.829045 0.749835C0.573655 0.99497 0.369001 1.28809 0.22675 1.61247C0.0844982 1.93685 0.00744447 2.28612 2.72892e-08 2.64033Z" fill="#CB94D3"/>
</svg>
