<svg width="25" height="25" viewBox="0 0 25 25" fill="none" xmlns="http://www.w3.org/2000/svg">
<path d="M12.5 24.9998C9.18479 24.9998 6.00544 23.6829 3.66112 21.3387C1.31691 18.9945 0 15.8149 0 12.4999C0 9.18487 1.31691 6.00539 3.66112 3.66109C6.00533 1.3169 9.18495 0 12.5 0C15.815 0 18.9946 1.3169 21.3389 3.66109C23.6831 6.00528 25 9.18487 25 12.4999C25 14.694 24.4224 16.8496 23.3254 18.7501C22.2283 20.6502 20.6501 22.2283 18.75 23.3255C16.8497 24.4224 14.6943 24.9998 12.5 24.9998ZM12.5 2.49966C9.84775 2.49966 7.30414 3.55331 5.42901 5.42875C3.55355 7.30397 2.49989 9.84756 2.49989 12.4997C2.49989 15.1518 3.55355 17.6955 5.42901 19.5706C7.30425 21.446 9.84785 22.4997 12.5 22.4997C15.1521 22.4997 17.6959 21.446 19.571 19.5706C21.4464 17.6954 22.5001 15.1518 22.5001 12.4997C22.5001 10.7443 22.038 9.01982 21.1602 7.49972C20.2825 5.97941 19.0202 4.71715 17.4999 3.83949C15.9798 2.96161 14.2553 2.49966 12.5 2.49966ZM13.7499 17.4997V12.4998C13.7499 12.0532 13.5118 11.6405 13.1251 11.4173C12.7384 11.194 12.2617 11.194 11.8749 11.4173C11.4882 11.6405 11.2501 12.0532 11.2501 12.4998V17.4997C11.2501 17.9463 11.4882 18.359 11.8749 18.5823C12.2616 18.8056 12.7383 18.8056 13.1251 18.5823C13.5118 18.359 13.7499 17.9463 13.7499 17.4997ZM12.5 6.24968C12.1685 6.24968 11.8504 6.38151 11.6161 6.61589C11.3817 6.85027 11.2501 7.16816 11.2501 7.49982C11.2501 7.8313 11.3817 8.14917 11.6161 8.38354C11.8504 8.61813 12.1685 8.74975 12.5 8.74975C12.8315 8.74975 13.1496 8.61813 13.3839 8.38354C13.6183 8.14917 13.7499 7.83127 13.7499 7.49982C13.7499 7.16814 13.6183 6.85027 13.3839 6.61589C13.1496 6.38151 12.8315 6.24968 12.5 6.24968Z" fill="#8B8F92"/>
</svg>
