<svg width="25" height="25" viewBox="0 0 25 25" fill="none" xmlns="http://www.w3.org/2000/svg">
<path d="M12.5 0C5.59687 0 0 5.59687 0 12.5C0 19.4031 5.59687 25 12.5 25C19.4031 25 25 19.4031 25 12.5C25 5.59687 19.4031 0 12.5 0ZM18.5058 9.14554L10.0469 17.6045C10.0366 17.6149 10.0232 17.6217 10.0087 17.624L10.0179 17.6332L6 19L7.36672 14.9819L7.37596 14.9911C7.37823 14.9766 7.38503 14.9634 7.3955 14.9531L15.8544 6.49415C15.8297 6.48596 15.8731 6.47584 15.8544 6.49415C16.0451 6.30702 16.2364 6.16398 16.5101 6.20784C16.668 6.23312 16.8137 6.30776 16.9267 6.42094L18.5058 8C18.619 8.113 18.6936 8.25879 18.7189 8.41661C18.7723 8.74997 18.6845 8.97358 18.5058 9.14554C18.4874 9.21447 18.5243 9.12775 18.5058 9.14554Z" fill="#CB94D3"/>
</svg>
