<svg width="40" height="40" viewBox="0 0 40 40" fill="none" xmlns="http://www.w3.org/2000/svg">
<g clip-path="url(#clip0_625_46206)">
<path d="M35.1095 20.7278C35.0884 26.041 32.6348 31.1301 28.457 34.3793C24.2162 37.672 18.558 38.7626 13.4172 37.2872C8.44636 35.8655 4.26899 32.1023 2.32271 27.2696C0.302766 22.277 0.736193 16.4826 3.48607 11.8646C6.16183 7.37468 10.8574 4.25313 16.0188 3.64348C16.7063 3.55809 17.3936 3.52602 18.0811 3.52602C18.758 3.52602 18.758 2.45706 18.0811 2.45706C12.4651 2.47832 7.12444 5.14049 3.70799 9.65173C0.270941 14.1845 -0.860796 20.2459 0.683313 25.7306C2.18531 31.0755 6.13038 35.5124 11.2065 37.6401C16.4522 39.8317 22.5966 39.3507 27.4512 36.3679C32.1893 33.4599 35.3726 28.4354 36.0391 22.8767C36.1236 22.1605 36.166 21.4442 36.166 20.7279C36.166 20.0437 35.1085 20.0437 35.1085 20.7279L35.1095 20.7278Z" fill="#424242"/>
<path d="M39.9114 27.901C38.6211 25.3995 37.3415 22.8872 36.0512 20.3857C35.9136 20.1184 35.4695 20.033 35.2684 20.2787C33.5126 22.4808 31.7679 24.6724 30.0121 26.8749C29.6101 27.3775 30.3186 28.0938 30.71 27.5803C32.4658 25.3783 34.2105 23.1866 35.9663 20.9841C35.7019 20.9521 35.4481 20.92 35.1836 20.8771C36.4739 23.3786 37.7535 25.8909 39.0438 28.3924C39.3507 28.9808 40.2075 28.4677 39.9113 27.901L39.9114 27.901Z" fill="#424242"/>
</g>
<defs>
<clipPath id="clip0_625_46206">
<rect width="40" height="40" fill="white" transform="translate(40 40) rotate(-180)"/>
</clipPath>
</defs>
</svg>
