<svg width="35" height="35" viewBox="0 0 35 35" fill="none" xmlns="http://www.w3.org/2000/svg">
<path d="M27.5875 26.0101H33.3122L24.86 34.4431L24.8597 28.7379C24.8624 28.0153 25.1504 27.3229 25.6616 26.8121C26.1725 26.3009 26.8649 26.0128 27.5875 26.0101L27.5875 26.0101ZM33.8498 4.62987V24.0891H27.5875C26.3548 24.0901 25.1733 24.5802 24.3016 25.4519C23.43 26.3235 22.9399 27.5053 22.9389 28.7377V35H6.62953C5.40183 34.9997 4.22463 34.5116 3.35634 33.6437C2.48839 32.7757 2.00034 31.5982 2 30.3705V4.62953C2.00033 3.40183 2.48842 2.22429 3.35634 1.35634C4.22463 0.488389 5.40183 0.00034303 6.62953 0H29.2197C30.4475 0.000334968 31.6246 0.488414 32.4929 1.35634C33.3609 2.22429 33.8489 3.40183 33.8493 4.62953L33.8498 4.62987ZM13.4687 15.7903C13.4734 15.0758 13.1916 14.3891 12.6861 13.8836C12.1806 13.3784 11.4939 13.0964 10.7794 13.1011H8.20532C7.6747 13.1011 7.24492 13.5312 7.24492 14.0615V20.9388C7.24492 21.1934 7.34609 21.4376 7.52631 21.6178C7.7062 21.798 7.95074 21.8992 8.20534 21.8992C8.73228 21.8908 9.15767 21.4657 9.16574 20.9388V18.4606H10.7793C11.4892 18.4606 12.1706 18.1799 12.6744 17.6797C13.1782 17.1796 13.4636 16.5006 13.4687 15.7904L13.4687 15.7903ZM21.0375 15.7712C21.0388 15.0627 20.7581 14.3827 20.2569 13.8816C19.7558 13.3804 19.0758 13.0997 18.3673 13.1011H15.7738C15.2435 13.1011 14.8134 13.5312 14.8134 14.0614V20.9388C14.8134 21.1934 14.9146 21.4376 15.0948 21.6178C15.275 21.798 15.5192 21.8992 15.7738 21.8992H18.3673C19.0758 21.9005 19.7558 21.6198 20.2569 21.1187C20.7581 20.6175 21.0388 19.9375 21.0375 19.229L21.0375 15.7712ZM28.6639 14.0614H28.6635C28.6635 13.8068 28.5624 13.5626 28.3825 13.3824C28.2023 13.2022 27.958 13.101 27.7031 13.101H23.3811C22.8505 13.101 22.4204 13.5311 22.4204 14.0614V20.9387C22.4204 21.469 22.8505 21.8991 23.3811 21.8991C23.9114 21.8991 24.3415 21.469 24.3415 20.9387V18.4605H26.5698C27.1001 18.4605 27.5302 18.0307 27.5302 17.5001C27.5302 16.9695 27.1001 16.5397 26.5698 16.5397H24.3415V15.0222H27.7031C28.2301 15.0138 28.6555 14.5887 28.6635 14.0615L28.6639 14.0614ZM10.78 15.0218L9.16606 15.0221V16.5396H10.7797C11.1967 16.5396 11.5378 16.2073 11.5481 15.7903C11.5538 15.5849 11.4748 15.3859 11.3294 15.2405C11.184 15.0951 10.9854 15.0161 10.7797 15.0221L10.78 15.0218ZM18.3678 15.0218H16.7351V19.978H18.3678H18.3675C18.7769 19.9679 19.1065 19.6383 19.1165 19.229V15.7712C19.1065 15.3619 18.7769 15.0322 18.3675 15.0222L18.3678 15.0218Z" fill="#CB94D3"/>
</svg>
