<svg width="105" height="105" viewBox="0 0 105 105" fill="none" xmlns="http://www.w3.org/2000/svg">
<path d="M94.7333 61.6538V17.4785C94.7333 15.4952 93.9456 13.5928 92.5431 12.1902C91.1406 10.7877 89.2381 10 87.2548 10H7.47854C5.49522 10 3.59278 10.7878 2.19024 12.1902C0.787747 13.5927 0 15.4953 0 17.4785V67.3387C0 69.322 0.78777 71.2245 2.19024 72.627C3.59274 74.0304 5.49526 74.8181 7.47854 74.8181H69.8037C69.7281 75.6476 69.7281 76.4815 69.8037 77.3109C69.8037 83.5452 73.1303 89.3065 78.5299 92.4237C83.9286 95.5417 90.5812 95.5417 95.9806 92.4237C101.38 89.3065 104.706 83.5452 104.706 77.3109C104.722 74.0199 103.789 70.7933 102.021 68.0169C100.252 65.2414 97.723 63.0329 94.7338 61.6548L94.7333 61.6538ZM7.47804 69.8304C6.10164 69.8304 4.98526 68.7148 4.98526 67.3376V29.9425H89.7475V59.8586C88.918 59.782 88.0842 59.782 87.2548 59.8586C83.9584 59.8516 80.7293 60.7872 77.9469 62.553C75.1646 64.3198 72.9447 66.8448 71.5484 69.8297L7.47804 69.8304ZM92.5386 79.1044C93.0212 79.5574 93.2942 80.1886 93.2942 80.8494C93.2942 81.5111 93.0211 82.1424 92.5386 82.5945C92.0865 83.0771 91.4552 83.3501 90.7935 83.3501C90.1327 83.3501 89.5006 83.077 89.0485 82.5945L87.2539 80.7999L85.4592 82.5945H85.4584C85.0062 83.0771 84.3749 83.3501 83.7133 83.3501C83.0525 83.3501 82.4212 83.077 81.9682 82.5945C81.4865 82.1424 81.2126 81.5111 81.2126 80.8494C81.2126 80.1886 81.4865 79.5574 81.9682 79.1044L83.7629 77.3097L81.9682 75.5151C81.0048 74.5508 81.0048 72.9883 81.9682 72.0249C82.9325 71.0606 84.4951 71.0606 85.4584 72.0249L87.2531 73.8195L89.0477 72.0249H89.0486C90.0128 71.0606 91.5754 71.0606 92.5388 72.0249C93.503 72.9883 93.503 74.5508 92.5388 75.5151L90.7441 77.3097L92.5386 79.1044ZM29.9151 52.3802C29.9151 53.041 29.6525 53.6757 29.1848 54.1427C28.7178 54.6105 28.0831 54.873 27.4223 54.873H12.4645C11.0872 54.873 9.97168 53.7575 9.97168 52.3802C9.97168 51.003 11.0872 49.8875 12.4645 49.8875H27.4223C28.0831 49.8875 28.7178 50.1501 29.1848 50.6178C29.6526 51.0848 29.9151 51.7195 29.9151 52.3803V52.3802Z" fill="#8B8F92"/>
</svg>
