<svg width="25" height="25" viewBox="0 0 25 25" fill="none" xmlns="http://www.w3.org/2000/svg">
<g clip-path="url(#clip0_1320_16854)">
<path d="M11.3508 19.5741C11.3508 18.6559 12.1019 17.9464 12.9785 17.9464C13.8551 17.9464 14.6062 18.6975 14.6062 19.5741C14.6062 20.4923 13.8551 21.2018 12.9785 21.2018C12.1019 21.2018 11.3508 20.4923 11.3508 19.5741ZM18.7798 21.2018C19.698 21.2018 20.4075 20.4507 20.4075 19.5741C20.4075 18.6559 19.6564 17.9464 18.7798 17.9464C17.9032 17.9464 17.1521 18.6559 17.1521 19.5741C17.1521 20.4923 17.8615 21.2018 18.7798 21.2018ZM18.7798 15.4841C19.698 15.4841 20.4075 14.733 20.4075 13.8564C20.4075 12.9382 19.6564 12.2287 18.7798 12.2287C17.9032 12.2284 17.1521 12.9382 17.1521 13.8564C17.1521 14.7327 17.8615 15.4841 18.7798 15.4841ZM12.9785 15.4841C13.8967 15.4841 14.6062 14.733 14.6062 13.8564C14.6062 12.9382 13.8551 12.2287 12.9785 12.2287C12.1019 12.2287 11.3508 12.9798 11.3508 13.8564C11.3508 14.7327 12.0603 15.4841 12.9785 15.4841ZM24.9567 7.84642V20.4089C25 25 24.9567 25 20.3656 25H5.59109C1 25 1 25 1 20.4089L1.00029 7.84642C1 3.25532 1.00029 3.25532 5.59138 3.25532H7.84497V1.00174C7.84497 0.45908 7.84497 -1.7051e-10 8.84671 1.70984e-10C9.84844 5.12478e-10 9.84844 0.459109 9.84844 1.00174V3.25532H16.1924V1.00174C16.1924 0.45908 16.1924 3.41515e-10 17.1941 1.70984e-10C18.1958 0 18.1958 0.459109 18.1958 1.00174V3.25532H20.4494C24.9567 3.25532 24.9567 3.25532 24.9567 7.84642ZM23.329 10.2252H2.628V20.4088C2.628 23.3722 3 23.3722 5.59139 23.3722H20.3659C23.329 23.3722 23.329 23.3722 23.3293 20.4088L23.329 10.2252ZM7.17721 15.4841C8.09539 15.4841 8.8049 14.733 8.8049 13.8564C8.8049 12.9382 8.05381 12.2287 7.17721 12.2287C6.3006 12.2287 5.54951 12.9798 5.54951 13.8564C5.54951 14.7327 6.25898 15.4841 7.17721 15.4841ZM7.17721 21.2018C8.09539 21.2018 8.8049 20.4507 8.8049 19.5741C8.8049 18.6559 8.05381 17.9464 7.17721 17.9464C6.3006 17.9464 5.54951 18.6975 5.54951 19.5741C5.54951 20.4923 6.25898 21.2018 7.17721 21.2018Z" fill="#CB94D3"/>
</g>
<defs>
<clipPath id="clip0_1320_16854">
<rect width="25" height="25" fill="white"/>
</clipPath>
</defs>
</svg>
