<svg width="24" height="22" viewBox="0 0 24 22" fill="none" xmlns="http://www.w3.org/2000/svg">
<path d="M7.32061 0.600002L7.32103 0.600001C8.23829 0.599344 9.14254 0.822635 9.95732 1.25141C10.7721 1.6802 11.4738 2.30206 12.0024 3.065C12.1144 3.22667 12.2986 3.32318 12.4952 3.3233C12.6919 3.32342 12.8762 3.22715 12.9884 3.06562C14.0265 1.57128 15.7384 0.600002 17.6706 0.600002C20.8249 0.600002 23.3956 3.19342 23.3956 6.40914C23.3956 9.40341 21.634 12.7012 19.297 15.4621C17.0384 18.1305 14.3576 20.1623 12.4956 20.863C10.6336 20.1623 7.95283 18.1305 5.6942 15.4621C3.35721 12.7012 1.59561 9.40341 1.59561 6.40914C1.59561 3.19342 4.1663 0.600002 7.32061 0.600002Z" stroke="#424242" stroke-width="1.2" stroke-linecap="round" stroke-linejoin="round"/>
</svg>
