<svg width="25" height="25" viewBox="0 0 25 25" fill="none" xmlns="http://www.w3.org/2000/svg">
<path d="M11.655 1.59617C12.2008 1.09695 13.0374 1.09695 13.5833 1.59617L15.8128 3.63535C16.06 3.8614 16.3787 3.99342 16.7133 4.00834L19.7318 4.14296C20.4707 4.17592 21.0623 4.76751 21.0953 5.50647L21.2299 8.52492C21.2448 8.85953 21.3768 9.17826 21.6029 9.42541L23.6421 11.655C24.1413 12.2008 24.1413 13.0374 23.6421 13.5833L21.6029 15.8128C21.3768 16.06 21.2448 16.3787 21.2299 16.7133L21.0953 19.7318C21.0623 20.4707 20.4707 21.0623 19.7318 21.0953L16.7133 21.2299C16.3787 21.2448 16.06 21.3768 15.8128 21.6029L13.5833 23.6421C13.0374 24.1413 12.2008 24.1413 11.655 23.6421L9.42541 21.6029C9.17826 21.3768 8.85953 21.2448 8.52492 21.2299L5.50647 21.0953C4.76751 21.0623 4.17592 20.4707 4.14296 19.7318L4.00834 16.7133C3.99342 16.3787 3.8614 16.06 3.63535 15.8128L1.59617 13.5833C1.09695 13.0374 1.09695 12.2008 1.59617 11.655L3.63535 9.42541C3.8614 9.17826 3.99342 8.85953 4.00834 8.52492L4.14296 5.50647C4.17592 4.76751 4.76751 4.17592 5.50647 4.14296L8.52492 4.00834C8.85953 3.99342 9.17826 3.8614 9.42541 3.63535L11.655 1.59617Z" fill="#CB94D3"/>
<path d="M12.6188 4.04761C7.88502 4.04761 4.04736 7.88535 4.04736 12.619C4.04736 17.3527 7.8851 21.1905 12.6188 21.1905C17.3525 21.1905 21.1902 17.3527 21.1902 12.619C21.1902 7.88535 17.3525 4.04761 12.6188 4.04761ZM16.8906 9.51513C15.2686 11.841 13.6452 14.166 12.0211 16.4903C11.905 16.6562 11.7691 16.7396 11.6332 16.7396C11.5086 16.7396 11.3841 16.6695 11.2758 16.5292C10.3907 15.3836 9.50514 14.2381 8.6236 13.0897C8.48719 12.9121 8.36818 12.7204 8.24746 12.5312C8.14601 12.3721 8.16852 12.2167 8.28736 12.074C8.32965 12.0232 8.37244 11.9726 8.41882 11.9257C8.58523 11.757 8.71925 11.6708 8.864 11.6708C8.97943 11.6708 9.10151 11.7258 9.25258 11.8377C9.92129 12.3339 10.5738 12.852 11.233 13.3613C11.3524 13.4534 11.471 13.5463 11.6021 13.6484C11.8649 13.3458 12.1162 13.0577 12.366 12.7685C13.4855 11.4723 14.6047 10.1759 15.7236 8.87923C15.9451 8.62262 16.0919 8.49815 16.2551 8.49815C16.3993 8.49815 16.5562 8.59551 16.7884 8.7846C17.1129 9.04922 17.1331 9.16731 16.8906 9.51513Z" fill="#CB94D3"/>
<path d="M16.8906 9.51513C15.2686 11.841 13.6452 14.166 12.0211 16.4903C11.905 16.6562 11.7691 16.7396 11.6332 16.7396C11.5086 16.7396 11.3841 16.6695 11.2758 16.5292C10.3907 15.3836 9.50514 14.2381 8.6236 13.0897C8.48719 12.9121 8.36818 12.7204 8.24746 12.5312C8.14601 12.3721 8.16852 12.2167 8.28736 12.074C8.32965 12.0232 8.37244 11.9726 8.41882 11.9257C8.58523 11.757 8.71925 11.6708 8.864 11.6708C8.97943 11.6708 9.10151 11.7258 9.25258 11.8377C9.92129 12.3339 10.5738 12.852 11.233 13.3613C11.3524 13.4534 11.471 13.5463 11.6021 13.6484C11.8649 13.3458 12.1162 13.0577 12.366 12.7685C13.4855 11.4723 14.6047 10.1759 15.7236 8.87923C15.9451 8.62262 16.0919 8.49815 16.2551 8.49815C16.3993 8.49815 16.5562 8.59551 16.7884 8.7846C17.1129 9.04922 17.1331 9.16731 16.8906 9.51513Z" fill="white"/>
</svg>
