<svg width="24" height="23" viewBox="0 0 24 23" fill="none" xmlns="http://www.w3.org/2000/svg">
<path d="M1.57061 11.5C1.57061 5.46611 6.46172 0.575 12.4956 0.575C18.5295 0.575 23.4206 5.46611 23.4206 11.5C23.4206 17.5339 18.5295 22.425 12.4956 22.425C6.46172 22.425 1.57061 17.5339 1.57061 11.5Z" stroke="#424242" stroke-width="1.15" stroke-linecap="round" stroke-linejoin="round"/>
<mask id="path-2-inside-1_2001_16086" fill="white">
<path d="M3.60791 18.7981C3.60791 18.7981 6.17126 15.5252 12.4963 15.5252C18.8213 15.5252 21.3858 18.7981 21.3858 18.7981"/>
</mask>
<path d="M2.70254 18.089C2.31092 18.589 2.3988 19.3119 2.89882 19.7035C3.39884 20.0951 4.12166 20.0072 4.51328 19.5072L2.70254 18.089ZM20.4805 19.5074C20.8723 20.0073 21.5951 20.0951 22.095 19.7033C22.595 19.3116 22.6827 18.5888 22.291 18.0888L20.4805 19.5074ZM3.60791 18.7981C4.51328 19.5072 4.51287 19.5077 4.51248 19.5082C4.51236 19.5084 4.51197 19.5089 4.51173 19.5092C4.51125 19.5098 4.51081 19.5103 4.51041 19.5108C4.5096 19.5119 4.50894 19.5127 4.50843 19.5133C4.50741 19.5146 4.50699 19.5151 4.50717 19.5149C4.50753 19.5145 4.5103 19.5111 4.5155 19.5049C4.52591 19.4927 4.54606 19.4694 4.5762 19.4367C4.63652 19.3712 4.73667 19.2681 4.8788 19.1395C5.16305 18.8823 5.61452 18.5238 6.2509 18.1601C7.5163 17.4368 9.54266 16.6752 12.4963 16.6752V14.3752C9.12486 14.3752 6.70704 15.2501 5.10952 16.1633C4.31444 16.6177 3.72976 17.0774 3.33572 17.4339C3.13871 17.6122 2.98918 17.7648 2.88461 17.8783C2.83231 17.9351 2.79121 17.9821 2.76098 18.0178C2.74587 18.0356 2.73347 18.0506 2.72374 18.0625C2.71888 18.0685 2.71469 18.0737 2.71115 18.0781C2.70939 18.0803 2.70779 18.0824 2.70635 18.0842C2.70564 18.0851 2.70496 18.0859 2.70432 18.0867C2.70401 18.0872 2.70356 18.0877 2.7034 18.0879C2.70297 18.0885 2.70254 18.089 3.60791 18.7981ZM12.4963 16.6752C15.4499 16.6752 17.4765 17.4368 18.7423 18.1601C19.3788 18.5239 19.8305 18.8824 20.1148 19.1396C20.257 19.2682 20.3572 19.3713 20.4176 19.4368C20.4477 19.4695 20.4679 19.4928 20.4783 19.5051C20.4835 19.5113 20.4863 19.5146 20.4867 19.5151C20.4868 19.5153 20.4864 19.5148 20.4854 19.5135C20.4849 19.5129 20.4842 19.5121 20.4834 19.511C20.483 19.5105 20.4826 19.51 20.4821 19.5094C20.4819 19.5091 20.4815 19.5086 20.4813 19.5084C20.481 19.5079 20.4805 19.5074 21.3858 18.7981C22.291 18.0888 22.2906 18.0883 22.2901 18.0877C22.29 18.0875 22.2895 18.087 22.2892 18.0866C22.2886 18.0857 22.2879 18.0849 22.2872 18.084C22.2857 18.0822 22.2841 18.0802 22.2824 18.0779C22.2788 18.0735 22.2746 18.0683 22.2698 18.0623C22.26 18.0504 22.2476 18.0354 22.2325 18.0176C22.2023 17.9819 22.1612 17.9349 22.1089 17.8781C22.0043 17.7646 21.8547 17.6121 21.6576 17.4338C21.2635 17.0773 20.6787 16.6177 19.8835 16.1632C18.2857 15.2501 15.8677 14.3752 12.4963 14.3752V16.6752Z" fill="#424242" mask="url(#path-2-inside-1_2001_16086)"/>
<circle cx="12.4955" cy="9.20028" r="4.025" stroke="#424242" stroke-width="1.15"/>
</svg>
