<svg width="33" height="33" viewBox="0 0 33 33" fill="none" xmlns="http://www.w3.org/2000/svg">
<path fill-rule="evenodd" clip-rule="evenodd" d="M31.4285 31.4633C30.6471 32.2449 29.38 32.2452 28.5984 31.4638C28.5982 31.4636 28.598 31.4634 28.5978 31.4633L15.9978 18.8632L3.40939 31.4523C2.62356 32.2298 1.35624 32.2231 0.578739 31.4373C-0.192932 30.6573 -0.19291 29.4016 0.578788 28.6216L13.1676 16.0329L0.581087 3.44645C-0.189185 2.65361 -0.170894 1.38647 0.62194 0.616197C1.39854 -0.138304 2.63435 -0.138413 3.41109 0.615951L15.9981 13.2024L28.5956 0.60495C29.3669 -0.18689 30.6341 -0.203545 31.4259 0.567749C32.2177 1.33904 32.2344 2.60621 31.4631 3.39805C31.4508 3.41071 31.4383 3.42321 31.4256 3.43554L18.8288 16.0329L31.4288 28.6329C32.2103 29.4143 32.2103 30.6813 31.4289 31.4628C31.4288 31.4629 31.4286 31.4631 31.4285 31.4632L31.4285 31.4633Z" fill="#CB94D3"/>
</svg>
