<svg width="58" height="58" viewBox="0 0 58 58" fill="none" xmlns="http://www.w3.org/2000/svg">
<path d="M26.9723 2.83071C28.2823 1.63258 30.2902 1.63258 31.6002 2.83071L36.9512 7.72473C37.5443 8.26726 38.3093 8.58411 39.1123 8.61992L46.3566 8.94302C48.1301 9.02211 49.5499 10.4419 49.629 12.2154L49.9521 19.4597C49.9879 20.2628 50.3048 21.0277 50.8473 21.6209L55.7413 26.9718C56.9395 28.2818 56.9395 30.2897 55.7413 31.5997L50.8473 36.9507C50.3048 37.5438 49.9879 38.3088 49.9521 39.1119L49.629 46.3561C49.5499 48.1297 48.1301 49.5495 46.3566 49.6286L39.1123 49.9516C38.3093 49.9875 37.5443 50.3043 36.9512 50.8468L31.6002 55.7409C30.2902 56.939 28.2823 56.939 26.9723 55.7409L21.6214 50.8468C21.0282 50.3043 20.2633 49.9875 19.4602 49.9516L12.2159 49.6286C10.4424 49.5495 9.0226 48.1297 8.9435 46.3561L8.62041 39.1119C8.5846 38.3088 8.26775 37.5438 7.72522 36.9507L2.83119 31.5997C1.63307 30.2897 1.63307 28.2818 2.83119 26.9718L7.72522 21.6209C8.26775 21.0277 8.5846 20.2628 8.62041 19.4597L8.9435 12.2154C9.0226 10.4419 10.4424 9.02211 12.2159 8.94302L19.4602 8.61992C20.2633 8.58411 21.0282 8.26726 21.6214 7.72473L26.9723 2.83071Z" fill="#CB94D3"/>
<circle cx="23.2988" cy="20.8999" r="4.5" fill="white"/>
<circle cx="34.6992" cy="36.5" r="4.5" fill="white"/>
<rect x="35.1055" y="15.8" width="3" height="29.2289" rx="1.5" transform="rotate(32.5008 35.1055 15.8)" fill="white"/>
</svg>
