<svg width="25" height="25" viewBox="0 0 25 25" fill="none" xmlns="http://www.w3.org/2000/svg">
<path fill-rule="evenodd" clip-rule="evenodd" d="M9.16536 4.91602C7.73863 4.91602 6.58203 6.07261 6.58203 7.49935C6.58203 8.92608 7.73863 10.0827 9.16536 10.0827C10.5921 10.0827 11.7487 8.92608 11.7487 7.49935C11.7487 6.07261 10.5921 4.91602 9.16536 4.91602ZM5 8.25C5.05073 8.25 5.10028 8.24496 5.14819 8.23536C5.49475 10.1392 7.16149 11.5827 9.16536 11.5827C11.1695 11.5827 12.8364 10.1389 13.1827 8.23473C13.2315 8.24474 13.2821 8.25 13.334 8.25H22.5007C22.9149 8.25 23.2507 7.91421 23.2507 7.5C23.2507 7.08579 22.9149 6.75 22.5007 6.75H13.334C13.2822 6.75 13.2317 6.75524 13.1829 6.76523C12.8371 4.86043 11.1699 3.41602 9.16536 3.41602C7.16105 3.41602 5.49401 4.86011 5.14796 6.76459C5.10013 6.75502 5.05065 6.75 5 6.75H2.5C2.08579 6.75 1.75 7.08579 1.75 7.5C1.75 7.91421 2.08579 8.25 2.5 8.25H5ZM19.8506 18.2351C19.5041 20.1391 17.8373 21.5827 15.8333 21.5827C13.8294 21.5827 12.1626 20.1391 11.8161 18.2351C11.7678 18.2449 11.7178 18.25 11.6667 18.25H2.5C2.08579 18.25 1.75 17.9142 1.75 17.5C1.75 17.0858 2.08579 16.75 2.5 16.75H11.6667C11.7178 16.75 11.7677 16.7551 11.8159 16.7648C12.1618 14.8602 13.8289 13.416 15.8333 13.416C17.8377 13.416 19.5048 14.8602 19.8508 16.7648C19.899 16.7551 19.9489 16.75 20 16.75H22.5C22.9142 16.75 23.25 17.0858 23.25 17.5C23.25 17.9142 22.9142 18.25 22.5 18.25H20C19.9488 18.25 19.8989 18.2449 19.8506 18.2351ZM13.25 17.4993C13.25 16.0726 14.4066 14.916 15.8333 14.916C17.2601 14.916 18.4167 16.0726 18.4167 17.4993C18.4167 18.9261 17.2601 20.0827 15.8333 20.0827C14.4066 20.0827 13.25 18.9261 13.25 17.4993Z" fill="#CB94D3"/>
</svg>
