<svg width="23" height="23" viewBox="0 0 23 23" fill="none" xmlns="http://www.w3.org/2000/svg">
<path d="M2.56497 8.4562L2.56497 8.45622L1.60137 20.4562C1.60137 20.4562 1.60137 20.4562 1.60137 20.4562C1.5815 20.7039 1.61311 20.953 1.69423 21.1878C1.77535 21.4227 1.90421 21.6382 2.0727 21.8208C2.24119 22.0034 2.44567 22.1492 2.67326 22.2489C2.90079 22.3486 3.14649 22.4001 3.3949 22.4002L2.56497 8.4562ZM2.56497 8.4562C2.60118 8.00512 2.80595 7.58423 3.13852 7.27735C3.47109 6.97046 3.90705 6.8001 4.35958 6.8002H4.3597M2.56497 8.4562L4.3597 6.8002M4.3597 6.8002H18.8293H18.8294M4.3597 6.8002H18.8294M18.8294 6.8002C19.2819 6.8001 19.7179 6.97046 20.0505 7.27734C20.383 7.58423 20.5878 8.00512 20.624 8.4562L20.624 8.45622M18.8294 6.8002L20.624 8.45622M20.624 8.45622L21.5876 20.4562M20.624 8.45622L21.5876 20.4562M21.5876 20.4562C21.5876 20.4562 21.5876 20.4562 21.5876 20.4562M21.5876 20.4562L21.5876 20.4562M21.5876 20.4562C21.6075 20.7039 21.5759 20.953 21.4948 21.1878M21.5876 20.4562L21.4948 21.1878M21.4948 21.1878C21.4137 21.4227 21.2848 21.6382 21.1163 21.8208M21.4948 21.1878L21.1163 21.8208M21.1163 21.8208C20.9478 22.0034 20.7433 22.1492 20.5157 22.2489M21.1163 21.8208L20.5157 22.2489M20.5157 22.2489C20.2882 22.3486 20.0425 22.4001 19.7941 22.4002M20.5157 22.2489L19.7941 22.4002M19.7941 22.4002C19.794 22.4002 19.794 22.4002 19.7939 22.4002M19.7941 22.4002H19.7939M19.7939 22.4002H3.39507H19.7939Z" stroke="#424242" stroke-width="1.2" stroke-linecap="round" stroke-linejoin="round"/>
<mask id="path-2-inside-1_2001_16081" fill="white">
<path d="M16.3939 10V4.8C16.3939 3.52696 15.8882 2.30606 14.9881 1.40589C14.0879 0.505713 12.867 0 11.5939 0C10.3209 0 9.10001 0.505713 8.19983 1.40589C7.29966 2.30606 6.79395 3.52696 6.79395 4.8V10"/>
</mask>
<path d="M15.1939 10C15.1939 10.6627 15.7312 11.2 16.3939 11.2C17.0567 11.2 17.5939 10.6627 17.5939 10H15.1939ZM16.3939 4.8H17.5939H16.3939ZM11.5939 0V-1.2V0ZM6.79395 4.8H5.59395H6.79395ZM5.59395 10C5.59395 10.6627 6.1312 11.2 6.79395 11.2C7.45669 11.2 7.99395 10.6627 7.99395 10H5.59395ZM17.5939 10V4.8H15.1939V10H17.5939ZM17.5939 4.8C17.5939 3.2087 16.9618 1.68258 15.8366 0.557359L14.1395 2.25442C14.8147 2.92955 15.1939 3.84522 15.1939 4.8H17.5939ZM15.8366 0.557359C14.7114 -0.567859 13.1852 -1.2 11.5939 -1.2V1.2C12.5487 1.2 13.4644 1.57928 14.1395 2.25442L15.8366 0.557359ZM11.5939 -1.2C10.0026 -1.2 8.47652 -0.567859 7.3513 0.557359L9.04836 2.25442C9.72349 1.57928 10.6392 1.2 11.5939 1.2V-1.2ZM7.3513 0.557359C6.22609 1.68258 5.59395 3.2087 5.59395 4.8H7.99395C7.99395 3.84522 8.37323 2.92955 9.04836 2.25442L7.3513 0.557359ZM5.59395 4.8V10H7.99395V4.8H5.59395Z" fill="#424242" mask="url(#path-2-inside-1_2001_16081)"/>
</svg>
