<svg width="45" height="45" viewBox="0 0 45 45" fill="none" xmlns="http://www.w3.org/2000/svg">
<rect width="45" height="45" rx="6" fill="white"/>
<path d="M24.0727 25.8762H22.9668V22.6674C22.9668 21.9976 22.6708 21.6393 22.1412 21.5926C21.8141 21.5614 21.2844 21.6393 20.895 21.7327V25.8762H19.7891V20.9383C19.7891 20.9383 21.1287 20.6424 22.3437 20.6424C22.8733 20.6424 23.2939 20.8293 23.6054 21.1408C23.9169 21.4524 24.0727 21.8885 24.0727 22.4493V25.8762Z" fill="#414042"/>
<path d="M28.8709 21.4211C28.8709 20.6111 28.4659 20.1905 27.6715 20.1905H26.2696V22.6205H27.6559C28.0454 22.6205 28.3413 22.5114 28.5594 22.3089C28.7619 22.1064 28.8709 21.8105 28.8709 21.4211ZM30.1638 21.4211C30.1638 22.1064 29.9457 22.6672 29.5252 23.0878C29.1046 23.5084 28.5127 23.7109 27.7961 23.7109H26.2696V25.8761H25.0234V19.1001H27.7182C28.5127 19.1001 29.1202 19.3026 29.5407 19.7232C29.9613 20.1282 30.1638 20.7045 30.1638 21.4211Z" fill="#414042"/>
<path d="M34.1213 23.3216C34.1213 22.8076 33.9967 22.4181 33.763 22.1222C33.5293 21.8262 33.2178 21.6704 32.8284 21.6704C32.439 21.6704 32.1274 21.8262 31.8938 22.1222C31.6601 22.4181 31.5355 22.8231 31.5355 23.3216C31.5355 23.8356 31.6601 24.2251 31.8938 24.521C32.1274 24.817 32.439 24.9727 32.8284 24.9727C33.2178 24.9727 33.5293 24.817 33.763 24.521C33.9967 24.2251 34.1213 23.8201 34.1213 23.3216ZM35.274 23.3216C35.274 24.1316 35.0403 24.7858 34.5886 25.2843C34.1369 25.7827 33.5449 26.032 32.8284 26.032C32.1118 26.032 31.5199 25.7827 31.0682 25.2843C30.6165 24.7858 30.3828 24.1316 30.3828 23.3216C30.3828 22.5116 30.6165 21.8574 31.0682 21.3745C31.5199 20.876 32.1118 20.6424 32.8284 20.6424C33.5605 20.6424 34.1524 20.8916 34.6042 21.3745C35.0559 21.8574 35.274 22.5116 35.274 23.3216Z" fill="#414042"/>
<path d="M40.0837 24.2403C40.0837 24.7543 39.8812 25.1749 39.4918 25.502C39.1024 25.8291 38.5728 26.0005 37.9185 26.0005C36.906 26.0005 36.1272 25.7045 35.5664 25.097L36.4231 24.3805C36.8437 24.8011 37.3422 25.0036 37.9029 25.0036C38.2145 25.0036 38.4637 24.9412 38.6506 24.8166C38.8376 24.692 38.931 24.5362 38.931 24.3493C38.931 24.1312 38.822 23.9911 38.6195 23.9132C38.4949 23.8664 38.1678 23.8041 37.6381 23.7262C36.9995 23.6328 36.5322 23.4926 36.2674 23.3057C35.9403 23.072 35.7845 22.7293 35.7845 22.2776C35.7845 21.8103 35.9714 21.4364 36.3608 21.1249C36.7503 20.8134 37.2643 20.6576 37.9185 20.6576C38.6974 20.6576 39.3672 20.9224 39.9279 21.4364L39.2581 22.1374C38.8531 21.7791 38.4014 21.6078 37.8874 21.6078C37.2331 21.6078 36.906 21.7947 36.906 22.153C36.906 22.3711 37.0618 22.5112 37.3578 22.5891C37.7783 22.6514 38.1989 22.7293 38.6195 22.8072C39.6008 22.9786 40.0837 23.4614 40.0837 24.2403Z" fill="#414042"/>
<path d="M42.7319 25.876C42.545 25.9228 42.358 25.9539 42.1555 25.9539C41.5169 25.9539 41.1119 25.8137 40.9094 25.5334C40.7536 25.3153 40.6602 24.8947 40.6602 24.2716V19.3026H41.7661V20.7668H42.7475V21.6703H41.7661V24.1937C41.7661 24.4897 41.7973 24.6766 41.8752 24.7701C41.9686 24.8947 42.1555 24.957 42.4359 24.957C42.5138 24.957 42.6073 24.957 42.7163 24.9414V25.876H42.7319Z" fill="#414042"/>
<path d="M8.10692 22.4805C8.10692 22.4805 6.79846 22.9945 5.17846 22.9945C3.55846 22.9945 2.25 22.4805 2.25 22.4805C2.25 22.4805 3.55846 21.9664 5.17846 21.9664C6.79846 21.9664 8.10692 22.4805 8.10692 22.4805Z" fill="#FFCB05"/>
<path d="M12.1578 15.0191C12.1578 15.0191 10.9896 14.2403 10.0861 12.9162C9.18263 11.6078 8.87109 10.2526 8.87109 10.2526C8.87109 10.2526 10.0394 11.0314 10.9428 12.3555C11.8619 13.6795 12.1578 15.0191 12.1578 15.0191Z" fill="#FFCB05"/>
<path d="M9.19498 18.2434C9.19498 18.2434 7.79305 18.0876 6.35998 17.3399C4.9269 16.5922 4.02344 15.5486 4.02344 15.5486C4.02344 15.5486 5.42536 15.7043 6.85844 16.452C8.27594 17.1841 9.19498 18.2434 9.19498 18.2434Z" fill="#FFCB05"/>
<path d="M11.9691 24.739C12.8102 24.4742 13.5423 24.1004 13.5423 24.1004C13.5423 24.1004 11.5485 23.5396 11.6887 21.4523C12.1404 18.0254 14.9131 15.3461 18.3868 14.91C18.0129 14.8632 17.6391 14.8321 17.2652 14.8321C12.966 14.8477 9.50791 18.2746 9.52349 22.4804C9.53907 26.6861 13.0439 30.0819 17.3275 30.0663C17.6858 30.0663 18.0441 30.0352 18.3868 29.9884C15.3337 29.6302 12.857 27.5273 11.9691 24.739Z" fill="#FFCB05"/>
<path d="M12.1578 29.9107C12.1578 29.9107 10.9896 30.6895 10.0861 32.0136C9.18263 33.322 8.87109 34.6772 8.87109 34.6772C8.87109 34.6772 10.0394 33.8984 10.9428 32.5743C11.8619 31.2659 12.1578 29.9107 12.1578 29.9107Z" fill="#FFCB05"/>
<path d="M9.19498 26.6862C9.19498 26.6862 7.79305 26.8419 6.35998 27.5896C4.9269 28.3373 4.02344 29.381 4.02344 29.381C4.02344 29.381 5.42536 29.2252 6.85844 28.4775C8.27594 27.7454 9.19498 26.6862 9.19498 26.6862Z" fill="#FFCB05"/>
<path d="M18.9492 19.1001H17.6875V25.8761H18.9492V19.1001Z" fill="#414042"/>
</svg>
