<svg width="35" height="35" viewBox="0 0 35 35" fill="none" xmlns="http://www.w3.org/2000/svg">
<g clip-path="url(#clip0_2103_15978)">
<path d="M17.5 21.0875C15.5781 21.0875 13.9125 19.55 13.9125 17.5C13.9125 15.5781 15.45 13.9125 17.5 13.9125C19.4219 13.9125 21.0875 15.45 21.0875 17.5C21.0875 19.4219 19.4219 21.0875 17.5 21.0875Z" fill="#424242"/>
<path fill-rule="evenodd" clip-rule="evenodd" d="M21.8563 8.7875H13.1437C12.1187 8.91562 11.6063 9.04375 11.2219 9.17187C10.7094 9.3 10.325 9.55625 9.94063 9.94062C9.63647 10.2448 9.49277 10.5489 9.31907 10.9166C9.27329 11.0134 9.22531 11.115 9.17188 11.2219C9.15205 11.2813 9.12917 11.3439 9.10464 11.4109C8.9706 11.7771 8.7875 12.2773 8.7875 13.1437V21.8562C8.91563 22.8812 9.04375 23.3937 9.17188 23.7781C9.3 24.2906 9.55625 24.675 9.94063 25.0594C10.2448 25.3635 10.5489 25.5072 10.9166 25.6809C11.0135 25.7267 11.1149 25.7746 11.2219 25.8281C11.2813 25.8479 11.3439 25.8708 11.4109 25.8954C11.7771 26.0294 12.2773 26.2125 13.1437 26.2125H21.8563C22.8812 26.0844 23.3938 25.9562 23.7781 25.8281C24.2906 25.7 24.675 25.4437 25.0594 25.0594C25.3635 24.7552 25.5072 24.4511 25.6809 24.0834C25.7267 23.9865 25.7747 23.8851 25.8281 23.7781C25.8479 23.7187 25.8708 23.6561 25.8954 23.5891C26.0294 23.2229 26.2125 22.7227 26.2125 21.8562V13.1437C26.0844 12.1187 25.9563 11.6062 25.8281 11.2219C25.7 10.7094 25.4437 10.325 25.0594 9.94062C24.7552 9.63647 24.4511 9.49277 24.0834 9.31907C23.9866 9.27333 23.8849 9.22526 23.7781 9.17187C23.7187 9.15205 23.6561 9.12916 23.5891 9.10463C23.2229 8.9706 22.7227 8.7875 21.8563 8.7875ZM17.5 11.9906C14.425 11.9906 11.9906 14.425 11.9906 17.5C11.9906 20.575 14.425 23.0094 17.5 23.0094C20.575 23.0094 23.0094 20.575 23.0094 17.5C23.0094 14.425 20.575 11.9906 17.5 11.9906ZM24.4188 11.8625C24.4188 12.5701 23.8451 13.1437 23.1375 13.1437C22.4299 13.1437 21.8563 12.5701 21.8563 11.8625C21.8563 11.1549 22.4299 10.5812 23.1375 10.5812C23.8451 10.5812 24.4188 11.1549 24.4188 11.8625Z" fill="#424242"/>
<path fill-rule="evenodd" clip-rule="evenodd" d="M-3 17.5C-3 6.17816 6.17816 -3 17.5 -3C28.8218 -3 38 6.17816 38 17.5C38 28.8218 28.8218 38 17.5 38C6.17816 38 -3 28.8218 -3 17.5ZM13.1437 6.86562H21.8563C23.0094 6.99375 23.7781 7.12187 24.4188 7.37812C25.1875 7.7625 25.7 8.01875 26.3406 8.65937C26.9813 9.3 27.3656 9.94062 27.6219 10.5812C27.8781 11.2219 28.1344 11.9906 28.1344 13.1437V21.8562C28.0063 23.0094 27.8781 23.7781 27.6219 24.4187C27.2375 25.1875 26.9813 25.7 26.3406 26.3406C25.7 26.9812 25.0594 27.3656 24.4188 27.6219C23.7781 27.8781 23.0094 28.1344 21.8563 28.1344H13.1437C11.9906 28.0062 11.2219 27.8781 10.5813 27.6219C9.8125 27.2375 9.3 26.9812 8.65938 26.3406C8.01875 25.7 7.63438 25.0594 7.37813 24.4187C7.12188 23.7781 6.86563 23.0094 6.86563 21.8562V13.1437C6.99375 11.9906 7.12188 11.2219 7.37813 10.5812C7.7625 9.8125 8.01875 9.3 8.65938 8.65937C9.3 8.01875 9.94063 7.63437 10.5813 7.37812C11.2219 7.12187 11.9906 6.86562 13.1437 6.86562Z" fill="#424242"/>
<path fill-rule="evenodd" clip-rule="evenodd" d="M13.1437 6.86562H21.8563C23.0094 6.99375 23.7781 7.12187 24.4188 7.37812C25.1875 7.7625 25.7 8.01875 26.3406 8.65937C26.9813 9.3 27.3656 9.94062 27.6219 10.5812C27.8781 11.2219 28.1344 11.9906 28.1344 13.1437V21.8562C28.0063 23.0094 27.8781 23.7781 27.6219 24.4187C27.2375 25.1875 26.9813 25.7 26.3406 26.3406C25.7 26.9812 25.0594 27.3656 24.4188 27.6219C23.7781 27.8781 23.0094 28.1344 21.8563 28.1344H13.1437C11.9906 28.0062 11.2219 27.8781 10.5813 27.6219C9.8125 27.2375 9.3 26.9812 8.65938 26.3406C8.01875 25.7 7.63438 25.0594 7.37813 24.4187C7.12188 23.7781 6.86563 23.0094 6.86563 21.8562V13.1437C6.99375 11.9906 7.12188 11.2219 7.37813 10.5812C7.7625 9.8125 8.01875 9.3 8.65938 8.65937C9.3 8.01875 9.94063 7.63437 10.5813 7.37812C11.2219 7.12187 11.9906 6.86562 13.1437 6.86562ZM13.1437 8.7875H21.8563C22.7227 8.7875 23.2229 8.9706 23.5891 9.10463C23.6561 9.12916 23.7187 9.15205 23.7781 9.17187C23.8849 9.22526 23.9866 9.27333 24.0834 9.31907C24.4511 9.49277 24.7552 9.63647 25.0594 9.94062C25.4437 10.325 25.7 10.7094 25.8281 11.2219C25.9563 11.6062 26.0844 12.1187 26.2125 13.1437V21.8562C26.2125 22.7227 26.0294 23.2229 25.8954 23.5891C25.8708 23.6561 25.8479 23.7187 25.8281 23.7781C25.7747 23.8851 25.7267 23.9865 25.6809 24.0834C25.5072 24.4511 25.3635 24.7552 25.0594 25.0594C24.675 25.4437 24.2906 25.7 23.7781 25.8281C23.3938 25.9562 22.8812 26.0844 21.8563 26.2125H13.1437C12.2773 26.2125 11.7771 26.0294 11.4109 25.8954C11.3439 25.8708 11.2813 25.8479 11.2219 25.8281C11.1149 25.7746 11.0135 25.7267 10.9166 25.6809C10.5489 25.5072 10.2448 25.3635 9.94063 25.0594C9.55625 24.675 9.3 24.2906 9.17188 23.7781C9.04375 23.3937 8.91563 22.8812 8.7875 21.8562V13.1437C8.7875 12.2773 8.9706 11.7771 9.10464 11.4109C9.12917 11.3439 9.15205 11.2813 9.17188 11.2219C9.22531 11.115 9.27329 11.0134 9.31907 10.9166C9.49277 10.5489 9.63647 10.2448 9.94063 9.94062C10.325 9.55625 10.7094 9.3 11.2219 9.17187C11.6063 9.04375 12.1187 8.91562 13.1437 8.7875Z" fill="white"/>
<path fill-rule="evenodd" clip-rule="evenodd" d="M17.5 11.9906C14.425 11.9906 11.9906 14.425 11.9906 17.5C11.9906 20.575 14.425 23.0094 17.5 23.0094C20.575 23.0094 23.0094 20.575 23.0094 17.5C23.0094 14.425 20.575 11.9906 17.5 11.9906ZM13.9125 17.5C13.9125 19.55 15.5781 21.0875 17.5 21.0875C19.4219 21.0875 21.0875 19.4219 21.0875 17.5C21.0875 15.45 19.4219 13.9125 17.5 13.9125C15.45 13.9125 13.9125 15.5781 13.9125 17.5Z" fill="white"/>
<path d="M24.4188 11.8625C24.4188 12.5701 23.8451 13.1437 23.1375 13.1437C22.4299 13.1437 21.8563 12.5701 21.8563 11.8625C21.8563 11.1549 22.4299 10.5812 23.1375 10.5812C23.8451 10.5812 24.4188 11.1549 24.4188 11.8625Z" fill="white"/>
</g>
<defs>
<clipPath id="clip0_2103_15978">
<rect width="35" height="35" rx="17.5" fill="white"/>
</clipPath>
</defs>
</svg>
