<svg width="50" height="50" viewBox="0 0 50 50" fill="none" xmlns="http://www.w3.org/2000/svg">
<g clip-path="url(#clip0_1229_14823)">
<path d="M43 0H7C3.13401 0 0 3.13401 0 7V43C0 46.866 3.13401 50 7 50H43C46.866 50 50 46.866 50 43V7C50 3.13401 46.866 0 43 0Z" fill="white"/>
<path d="M22.3592 15.9219C22.1539 15.922 21.9555 15.9954 21.7995 16.1288C21.6434 16.2621 21.5401 16.4468 21.508 16.6495L20.0938 25.6193C20.1597 25.2004 20.5207 24.8917 20.9449 24.8917H25.0891C29.26 24.8917 32.7991 21.849 33.4458 17.7258C33.494 17.4179 33.5212 17.1072 33.5274 16.7957C32.4675 16.2399 31.2224 15.9219 29.8581 15.9219H22.3592Z" fill="#001C64"/>
<path d="M33.53 16.7964C33.5237 17.1079 33.4965 17.4186 33.4483 17.7265C32.8017 21.8497 29.2622 24.8924 25.0916 24.8924H20.9474C20.5235 24.8924 20.1622 25.2007 20.0963 25.62L18.7959 33.8625L17.9813 39.0334C17.9655 39.1333 17.9714 39.2354 17.9988 39.3328C18.0262 39.4302 18.0745 39.5204 18.1402 39.5974C18.2059 39.6743 18.2875 39.7361 18.3793 39.7784C18.4712 39.8207 18.5712 39.8426 18.6723 39.8426H23.1705C23.3758 39.8424 23.5742 39.769 23.7303 39.6357C23.8863 39.5023 23.9896 39.3177 24.0217 39.1149L25.2065 31.6001C25.2386 31.3972 25.3421 31.2125 25.4982 31.0791C25.6544 30.9457 25.853 30.8725 26.0583 30.8724H28.7067C32.8776 30.8724 36.4167 27.8298 37.0634 23.7065C37.5227 20.7801 36.0488 18.1171 33.53 16.7964Z" fill="#0070E0"/>
<path d="M17.2491 9.94287C16.8251 9.94287 16.4638 10.2512 16.3979 10.6698L12.8681 33.053C12.8011 33.4779 13.1295 33.8622 13.5597 33.8622H18.7942L20.0939 25.6197L21.5082 16.6499C21.5403 16.4472 21.6436 16.2625 21.7996 16.1292C21.9556 15.9958 22.1541 15.9225 22.3593 15.9223H29.8582C31.2229 15.9223 32.4677 16.2406 33.5276 16.7961C33.6002 13.0421 30.5026 9.94287 26.2438 9.94287H17.2491Z" fill="#003087"/>
</g>
<defs>
<clipPath id="clip0_1229_14823">
<rect width="50" height="50" fill="white"/>
</clipPath>
</defs>
</svg>
