<svg width="25" height="25" viewBox="0 0 25 25" fill="none" xmlns="http://www.w3.org/2000/svg">
<path d="M22.0893 9.7572C22.0893 10.1154 22.065 10.4735 22.0225 10.8287C22.0164 10.8702 22.0134 10.9146 22.0073 10.956C22.0195 10.8642 22.0043 10.9649 22.0013 11.0004C21.9861 11.0922 21.9739 11.181 21.9557 11.2727C21.9223 11.4533 21.8859 11.6338 21.8434 11.8144C21.6765 12.5337 21.4366 13.2381 21.1452 13.9189C21.1397 13.931 21.1298 13.9542 21.1235 13.9691C21.1159 13.987 21.1135 13.9932 21.13 13.9545C21.1278 13.9593 21.1257 13.9642 21.1235 13.9691C21.1044 14.0116 21.0857 14.0538 21.0693 14.0936C21.0299 14.1824 20.9904 14.2682 20.9479 14.3541C20.869 14.5228 20.787 14.6885 20.702 14.8543C20.529 15.1917 20.3468 15.5262 20.1526 15.8548C19.767 16.5089 19.3481 17.1453 18.8988 17.761C18.6803 18.0629 18.4526 18.3619 18.2219 18.6579C18.2097 18.6727 18.1976 18.6875 18.1854 18.7023C18.1429 18.7555 18.2279 18.649 18.1854 18.6993C18.1581 18.7348 18.1308 18.7674 18.1035 18.8029C18.0458 18.8769 17.9851 18.9479 17.9274 19.019C17.8151 19.1581 17.6997 19.2943 17.5844 19.4304C17.1381 19.9573 16.6767 20.4694 16.2032 20.9696C15.4442 21.7658 14.655 22.5354 13.8293 23.2666C13.553 23.514 13.2635 23.7469 12.9804 23.9855C12.8808 24.0695 12.782 24.1541 12.6848 24.2404C12.6788 24.2463 12.6727 24.2493 12.6696 24.2522C12.8852 24.2522 13.0977 24.2522 13.3132 24.2522C13.2011 24.1651 13.0902 24.076 12.9804 23.9855C12.7097 23.7624 12.4453 23.5308 12.1839 23.2991C11.2672 22.4881 10.3868 21.6326 9.55202 20.7387C9.02078 20.1704 8.50776 19.5873 8.01902 18.9864C7.95527 18.9095 7.89455 18.8325 7.8308 18.7526C7.82077 18.7408 7.78688 18.6981 7.77293 18.6798C7.76577 18.6705 7.76386 18.6675 7.77313 18.6786C7.79211 18.7038 7.78461 18.6946 7.77293 18.6798C7.76406 18.6686 7.75277 18.6541 7.74884 18.649C7.73063 18.6253 7.70938 18.5987 7.69116 18.575C7.56063 18.4092 7.43617 18.2435 7.30867 18.0747C7.05975 17.7403 6.81689 17.3999 6.58315 17.0536C6.11566 16.3609 5.68156 15.6416 5.3021 14.8987C5.20496 14.7093 5.11085 14.5169 5.02282 14.3245C4.98336 14.2386 4.94086 14.1498 4.90443 14.061C4.89532 14.0373 4.88318 14.0137 4.87407 13.99C4.90139 14.0521 4.84675 13.9278 4.87407 13.99C4.85282 13.9367 4.82854 13.8834 4.80729 13.8301C4.65247 13.4542 4.50979 13.0753 4.38837 12.6876C4.26694 12.2998 4.16373 11.9091 4.08176 11.5095C4.0423 11.3112 4.00587 11.1099 3.97855 10.9086C3.99373 11.0093 3.97552 10.8731 3.96944 10.8435C3.96337 10.8021 3.96034 10.7577 3.95427 10.7162C3.94212 10.6126 3.93302 10.509 3.92695 10.4054C3.89659 9.98512 3.89355 9.5648 3.92087 9.14449C3.9265 9.04847 3.93474 8.955 3.94316 8.85936C3.94383 8.8518 3.94449 8.84423 3.94516 8.83665C3.95123 8.78337 3.9573 8.72713 3.96337 8.67385C3.96641 8.64721 3.96944 8.62057 3.97248 8.59393C3.97314 8.58768 3.97368 8.5825 3.9741 8.57824C3.97951 8.524 3.96707 8.61965 3.97552 8.57025C4.00587 8.35121 4.04534 8.13217 4.09391 7.91313C4.18498 7.49874 4.3064 7.0873 4.45212 6.6877C4.48854 6.59002 4.52801 6.48938 4.56747 6.3917C4.57658 6.36506 4.63425 6.23778 4.59783 6.31474C4.62211 6.26146 4.6464 6.20522 4.67068 6.15194C4.75872 5.96251 4.85282 5.77307 4.953 5.58955C5.15639 5.21659 5.3871 4.85843 5.63906 4.51803C5.66942 4.4766 5.70281 4.43515 5.73316 4.39372C5.74834 4.373 5.83638 4.26348 5.78173 4.3286C5.84852 4.24868 5.91227 4.1658 5.98209 4.08588C6.11869 3.92604 6.25833 3.77212 6.40708 3.62412C6.71065 3.31628 7.03243 3.02916 7.37546 2.76277C7.39063 2.75093 7.40581 2.73909 7.42099 2.72725C7.43925 2.7134 7.4392 2.7131 7.4332 2.7173C7.42124 2.72567 7.38562 2.75188 7.42403 2.72429C7.42708 2.72194 7.43014 2.71962 7.4332 2.7173C7.47264 2.68745 7.51208 2.65978 7.55152 2.62957C7.64259 2.56445 7.73366 2.49933 7.82777 2.43717C8.00384 2.31877 8.18294 2.20925 8.36508 2.10269C8.55026 1.99613 8.73543 1.89549 8.92668 1.80373C9.02382 1.75637 9.11793 1.71197 9.21507 1.66757C9.26364 1.64685 9.31221 1.62317 9.36078 1.60245C9.38506 1.59061 9.40935 1.58173 9.43363 1.56989C9.50726 1.53952 9.41975 1.57611 9.44709 1.56435C9.44906 1.5635 9.45162 1.5624 9.45488 1.56101C9.86166 1.39821 10.2806 1.25909 10.7056 1.15254C10.9181 1.09926 11.1336 1.0519 11.3491 1.01342C11.4584 0.992696 11.5677 0.974937 11.677 0.960137C11.695 0.958185 11.7658 0.948512 11.7858 0.945543C11.7962 0.944009 11.793 0.944264 11.762 0.948297C11.7699 0.947435 11.7779 0.946511 11.7858 0.945543C11.8326 0.939855 11.8797 0.932636 11.9289 0.927577C12.3873 0.877257 12.8457 0.862457 13.3071 0.877257C13.5378 0.886137 13.7716 0.900937 14.0023 0.924617C14.0509 0.930537 14.0994 0.936457 14.148 0.939417C14.1602 0.942377 14.2482 0.951257 14.1905 0.945337C14.1328 0.939417 14.2209 0.948297 14.233 0.951257C14.3484 0.969017 14.4668 0.986777 14.5821 1.0075C15.0192 1.08446 15.4503 1.19102 15.8723 1.32717C16.0787 1.39229 16.279 1.46629 16.4794 1.54621C16.4902 1.55147 16.5535 1.57537 16.5316 1.5662C16.5288 1.56504 16.5247 1.56335 16.5189 1.56101C16.4843 1.54712 16.5083 1.55717 16.5316 1.5662C16.5431 1.57064 16.5543 1.57484 16.5583 1.57581C16.6008 1.59357 16.6433 1.61133 16.6858 1.63205C16.7951 1.67941 16.9044 1.72973 17.0137 1.78301C17.3962 1.96949 17.7635 2.17965 18.1187 2.41349C18.5012 2.66805 18.7136 2.83085 19.0749 3.14756C19.3936 3.42876 19.6942 3.73068 19.9704 4.05332C20.0342 4.12732 20.0979 4.20132 20.1586 4.27828C20.1677 4.28716 20.2193 4.35228 20.1829 4.31084C20.1495 4.2694 20.2011 4.33452 20.2072 4.3434C20.2436 4.39076 20.28 4.43515 20.3134 4.48251C20.4379 4.65123 20.5593 4.82291 20.6716 4.99755C20.9024 5.35571 21.1118 5.72867 21.2909 6.11346C21.3122 6.16082 21.3334 6.20818 21.3577 6.2585C21.3637 6.27018 21.3962 6.34226 21.3739 6.29892C21.3736 6.2983 21.3732 6.29765 21.3729 6.29698C21.3609 6.26853 21.3663 6.28077 21.3739 6.29892C21.3797 6.31287 21.3867 6.33032 21.3881 6.33546C21.4306 6.43906 21.4731 6.54266 21.5125 6.64922C21.5884 6.84754 21.6552 7.04882 21.7159 7.25306C21.8404 7.67042 21.9345 8.09665 21.9982 8.52881C22.0013 8.54065 22.0104 8.62649 22.0043 8.57025C21.9982 8.51993 22.0073 8.58505 22.0073 8.59097C22.0134 8.64425 22.0195 8.70049 22.0256 8.75377C22.0368 8.85483 22.0454 8.95588 22.0538 9.05462C22.0545 9.06288 22.0552 9.07113 22.0559 9.07937C22.0802 9.3132 22.0863 9.5352 22.0893 9.7572C22.0893 9.98808 22.2988 10.213 22.5447 10.2012C22.7905 10.1894 23 10.0058 23 9.7572C22.997 7.93681 22.4748 6.12826 21.4791 4.58315C20.5138 3.08836 19.1326 1.84813 17.5176 1.0519C15.8358 0.226061 13.9203 -0.135056 12.0443 0.0455025C10.2017 0.223101 8.42883 0.883177 6.95653 1.98133C5.48424 3.07948 4.35194 4.53875 3.67195 6.22002C2.99803 7.88945 2.84321 9.71872 3.15285 11.4799C3.44731 13.1582 4.14855 14.7625 5.00461 16.2366C5.86066 17.7107 6.89886 19.0841 8.01902 20.3747C8.92971 21.4225 9.90416 22.42 10.9272 23.3642C11.4675 23.8645 12.0231 24.3529 12.5968 24.8146C12.6211 24.8353 12.6484 24.8561 12.6757 24.8768C12.8852 25.0396 13.1098 25.0425 13.3193 24.8768C13.6471 24.6193 13.9659 24.344 14.2785 24.0687C15.0769 23.3702 15.8449 22.6361 16.5796 21.8783C17.5844 20.8423 18.5285 19.7531 19.3906 18.6046C20.3134 17.3792 21.1422 16.0797 21.7827 14.6915C22.4232 13.3003 22.8846 11.8262 22.9818 10.2959C22.9939 10.1154 23 9.93184 23 9.75128C23 9.5204 22.7905 9.29544 22.5447 9.30728C22.2957 9.32208 22.0893 9.50856 22.0893 9.7572Z" fill="#CB94D3"/>
<path fill-rule="evenodd" clip-rule="evenodd" d="M22.0225 10.8287C22.065 10.4735 22.0893 10.1154 22.0893 9.7572C22.0863 9.5352 22.0802 9.3132 22.0559 9.07937L22.0538 9.05462C22.0454 8.95588 22.0368 8.85483 22.0256 8.75377C22.0195 8.70049 22.0134 8.64425 22.0073 8.59097C22.0073 8.58505 21.9982 8.51993 22.0043 8.57025C22.0104 8.62649 22.0013 8.54065 21.9982 8.52881C21.9345 8.09665 21.8404 7.67042 21.7159 7.25306C21.6552 7.04882 21.5884 6.84754 21.5125 6.64922C21.4731 6.54266 21.4306 6.43906 21.3881 6.33546C21.3867 6.33032 21.3797 6.31287 21.3739 6.29892C21.3736 6.2983 21.3732 6.29765 21.3729 6.29698C21.3609 6.26853 21.3663 6.28077 21.3739 6.29892C21.3962 6.34226 21.3637 6.27018 21.3577 6.2585C21.3334 6.20818 21.3122 6.16082 21.2909 6.11346C21.1118 5.72867 20.9024 5.35571 20.6716 4.99755C20.5593 4.82291 20.4379 4.65123 20.3134 4.48251C20.28 4.43515 20.2436 4.39076 20.2072 4.3434C20.2011 4.33452 20.1495 4.2694 20.1829 4.31084C20.2193 4.35228 20.1677 4.28716 20.1586 4.27828C20.0979 4.20132 20.0342 4.12732 19.9704 4.05332C19.6942 3.73068 19.3936 3.42876 19.0749 3.14756C18.7136 2.83085 18.5012 2.66805 18.1187 2.41349C17.7635 2.17965 17.3962 1.96949 17.0137 1.78301C16.9044 1.72973 16.7951 1.67941 16.6858 1.63205C16.6433 1.61133 16.6008 1.59357 16.5583 1.57581C16.5543 1.57484 16.5431 1.57064 16.5316 1.5662C16.5535 1.57537 16.4902 1.55147 16.4794 1.54621C16.279 1.46629 16.0787 1.39229 15.8723 1.32717C15.4503 1.19102 15.0192 1.08446 14.5821 1.0075C14.4668 0.986777 14.3484 0.969017 14.233 0.951257C14.2209 0.948297 14.1328 0.939417 14.1905 0.945337C14.2482 0.951257 14.1602 0.942377 14.148 0.939417C14.0994 0.936457 14.0509 0.930537 14.0023 0.924617C13.7716 0.900937 13.5378 0.886137 13.3071 0.877257C12.8457 0.862457 12.3873 0.877257 11.9289 0.927577C11.8797 0.932636 11.8326 0.939855 11.7858 0.945543C11.7658 0.948512 11.695 0.958185 11.677 0.960137C11.5677 0.974937 11.4584 0.992696 11.3491 1.01342C11.1336 1.0519 10.9181 1.09926 10.7056 1.15254C10.2806 1.25909 9.86166 1.39821 9.45488 1.56101C9.45162 1.5624 9.44906 1.5635 9.44709 1.56435C9.4953 1.54452 9.42171 1.57527 9.44709 1.56435C9.44336 1.56588 9.43891 1.56772 9.43363 1.56989C9.40935 1.58173 9.38506 1.59061 9.36078 1.60245C9.31221 1.62317 9.26364 1.64685 9.21507 1.66757C9.11793 1.71197 9.02382 1.75637 8.92668 1.80373C8.73543 1.89549 8.55026 1.99613 8.36508 2.10269C8.18294 2.20925 8.00384 2.31877 7.82777 2.43717C7.73366 2.49933 7.64259 2.56445 7.55152 2.62957C7.51208 2.65978 7.47264 2.68745 7.4332 2.7173C7.4392 2.7131 7.43925 2.7134 7.42099 2.72725L7.37546 2.76277C7.03243 3.02916 6.71065 3.31628 6.40708 3.62412C6.25833 3.77212 6.11869 3.92604 5.98209 4.08588C5.91227 4.1658 5.84852 4.24868 5.78173 4.3286C5.83638 4.26348 5.74834 4.373 5.73316 4.39372C5.70281 4.43515 5.66942 4.4766 5.63906 4.51803C5.3871 4.85843 5.15639 5.21659 4.953 5.58955C4.85282 5.77307 4.75872 5.96251 4.67068 6.15194C4.6464 6.20522 4.62211 6.26146 4.59783 6.31474C4.63425 6.23778 4.57658 6.36506 4.56747 6.3917C4.52801 6.48938 4.48854 6.59002 4.45212 6.6877C4.3064 7.0873 4.18498 7.49874 4.09391 7.91313C4.04534 8.13217 4.00587 8.35121 3.97552 8.57025C3.97496 8.57352 3.97449 8.57616 3.9741 8.57824C3.97368 8.5825 3.97314 8.58768 3.97248 8.59393L3.96337 8.67385C3.9573 8.72713 3.95123 8.78337 3.94516 8.83665L3.94316 8.85936C3.93474 8.955 3.9265 9.04847 3.92087 9.14449C3.89355 9.5648 3.89659 9.98512 3.92695 10.4054C3.93302 10.509 3.94212 10.6126 3.95427 10.7162C3.96034 10.7577 3.96337 10.8021 3.96944 10.8435C3.97552 10.8731 3.99373 11.0093 3.97855 10.9086C4.00587 11.1099 4.0423 11.3112 4.08176 11.5095C4.16373 11.9091 4.26694 12.2998 4.38837 12.6876C4.50979 13.0753 4.65247 13.4542 4.80729 13.8301C4.82854 13.8834 4.85282 13.9367 4.87407 13.99C4.88318 14.0137 4.89532 14.0373 4.90443 14.061C4.94086 14.1498 4.98336 14.2386 5.02282 14.3245C5.11085 14.5169 5.20496 14.7093 5.3021 14.8987C5.68156 15.6416 6.11566 16.3609 6.58315 17.0536C6.81689 17.3999 7.05975 17.7403 7.30867 18.0747C7.43617 18.2435 7.56063 18.4092 7.69116 18.575C7.70938 18.5987 7.73063 18.6253 7.74884 18.649C7.75277 18.6541 7.76406 18.6686 7.77293 18.6798C7.76577 18.6705 7.76386 18.6675 7.77313 18.6786C7.79211 18.7038 7.78461 18.6946 7.77293 18.6798C7.78688 18.6981 7.82077 18.7408 7.8308 18.7526C7.89455 18.8325 7.95527 18.9095 8.01902 18.9864C8.50776 19.5873 9.02078 20.1704 9.55202 20.7387C10.3868 21.6326 11.2672 22.4881 12.1839 23.2991C12.4453 23.5308 12.7097 23.7624 12.9804 23.9855C13.2635 23.7469 13.553 23.514 13.8293 23.2666C14.655 22.5354 15.4442 21.7658 16.2032 20.9696C16.6767 20.4694 17.1381 19.9573 17.5844 19.4304C17.6997 19.2943 17.8151 19.1581 17.9274 19.019C17.9851 18.9479 18.0458 18.8769 18.1035 18.8029C18.1308 18.7674 18.1581 18.7348 18.1854 18.6993C18.2279 18.649 18.1429 18.7555 18.1854 18.7023L18.2219 18.6579C18.4526 18.3619 18.6803 18.0629 18.8988 17.761C19.3481 17.1453 19.767 16.5089 20.1526 15.8548C20.3468 15.5262 20.529 15.1917 20.702 14.8543C20.787 14.6885 20.869 14.5228 20.9479 14.3541C20.9904 14.2682 21.0299 14.1824 21.0693 14.0936C21.0857 14.0538 21.1044 14.0116 21.1235 13.9691C21.1298 13.9542 21.1397 13.931 21.1452 13.9189C21.4366 13.2381 21.6765 12.5337 21.8434 11.8144C21.8859 11.6338 21.9223 11.4533 21.9557 11.2727C21.9739 11.181 21.9861 11.0922 22.0013 11.0004C22.0043 10.9649 22.0195 10.8642 22.0073 10.956C22.0134 10.9146 22.0164 10.8702 22.0225 10.8287ZM9.44709 1.56435C9.4953 1.54452 9.42171 1.57527 9.44709 1.56435V1.56435Z" fill="#CB94D3"/>
<circle cx="13" cy="11" r="4" fill="white"/>
</svg>
