<svg width="50" height="50" viewBox="0 0 50 50" fill="none" xmlns="http://www.w3.org/2000/svg">
<rect width="50" height="50" rx="7" fill="white"/>
<path d="M8.52729 23.229C8.52729 22.8137 8.86804 22.654 9.43239 22.654C10.2416 22.654 11.2639 22.8989 12.0731 23.3355V20.8331C11.1893 20.4818 10.3162 20.3433 9.43239 20.3433C7.27081 20.3433 5.83331 21.472 5.83331 23.3568C5.83331 26.2956 9.87961 25.8271 9.87961 27.0943C9.87961 27.5841 9.45368 27.7438 8.85739 27.7438C7.97359 27.7438 6.84489 27.3818 5.95044 26.8919V29.4262C6.94072 29.8521 7.94165 30.0331 8.85739 30.0331C11.0722 30.0331 12.5949 28.9364 12.5949 27.0304C12.5842 23.8572 8.52729 24.4216 8.52729 23.229ZM15.7254 18.2137L13.1273 18.7674L13.1166 27.2966C13.1166 28.8725 14.2986 30.0331 15.8745 30.0331C16.7477 30.0331 17.3866 29.8734 17.7379 29.6818V27.5202C17.3972 27.6586 15.7148 28.1484 15.7148 26.5725V22.7924H17.7379V20.5243H15.7148L15.7254 18.2137ZM21.0495 21.3123L20.8791 20.5243H18.5791V29.8415H21.2412V23.5271C21.8694 22.7072 22.9342 22.8563 23.2643 22.9734V20.5243C22.9236 20.3966 21.6778 20.1623 21.0495 21.3123ZM23.9139 20.5243H26.5866V29.8415H23.9139V20.5243ZM23.9139 19.7151L26.5866 19.1401V16.9785L23.9139 17.5429V19.7151ZM32.1449 20.3433C31.1014 20.3433 30.4305 20.8331 30.0578 21.1739L29.9194 20.5137H27.5768V32.9294L30.2389 32.3651L30.2495 29.3517C30.6329 29.6285 31.1972 30.0225 32.1342 30.0225C34.0403 30.0225 35.7759 28.4892 35.7759 25.1137C35.7653 22.0257 34.0083 20.3433 32.1449 20.3433ZM31.506 27.6799C30.8778 27.6799 30.5051 27.4563 30.2495 27.1794L30.2389 23.229C30.5157 22.9202 30.8991 22.7072 31.506 22.7072C32.475 22.7072 33.1458 23.7933 33.1458 25.1882C33.1458 26.6151 32.4856 27.6799 31.506 27.6799ZM44.1666 25.2202C44.1666 22.4943 42.8463 20.3433 40.3227 20.3433C37.7884 20.3433 36.2551 22.4943 36.2551 25.1989C36.2551 28.404 38.0653 30.0225 40.6634 30.0225C41.9305 30.0225 42.8889 29.735 43.6129 29.3304V27.2007C42.8889 27.5628 42.0583 27.7864 41.0041 27.7864C39.9713 27.7864 39.0555 27.4243 38.9384 26.1679H44.1453C44.1453 26.0294 44.1666 25.4757 44.1666 25.2202ZM38.9065 24.2086C38.9065 23.0054 39.6412 22.5049 40.312 22.5049C40.9616 22.5049 41.6537 23.0054 41.6537 24.2086H38.9065Z" fill="#635BFF"/>
</svg>
