<svg width="271" height="163" viewBox="0 0 271 163" fill="none" xmlns="http://www.w3.org/2000/svg">
<path fill-rule="evenodd" clip-rule="evenodd" d="M7.47817 95.2637L7.24681 94.5706L7.47817 94.3396L7.70953 93.993L7.82522 93.8775L8.05658 93.5309L8.17226 93.1844V93.0688L8.40362 92.8378L8.51931 92.9533H8.63499L8.86635 92.7223L9.09771 92.6068V92.4912L9.2134 92.3757L9.09771 92.1447H9.2134L9.67612 91.5671L9.7918 91.3361L10.1388 90.9895L10.3702 90.7585L10.8329 90.1809V90.0653L11.0643 89.8343H11.18L11.2957 89.7188H11.527L11.7584 89.4877L11.9898 89.6033L12.1054 89.3722L12.2211 89.1412L12.3368 89.0257L12.5682 88.9101L12.6838 88.5636L12.7995 88.6791H12.9152L12.7995 88.5636L13.0309 88.4481L13.1466 88.1015L13.3779 87.755V87.6394L13.4936 87.5239L13.8407 86.9463H13.9563V86.8308L13.8407 86.7153H13.725V86.0222L13.6093 85.9066L13.9563 85.2135L13.6093 85.098V84.7515L13.725 84.2894L13.8407 83.9428L13.6093 83.8273V83.4807L13.725 83.3652V83.2497H13.9563L14.072 82.6721H14.3034L14.4191 82.21L14.8818 82.3256L14.6504 81.979L14.3034 81.8635L14.5347 81.0548H14.4191L14.5347 80.5928L14.9975 80.1307L15.2288 79.8997V79.6686L15.3445 79.4376H16.1543L16.27 79.3221L16.8484 79.4376H17.0797H17.3111L17.4268 79.3221H17.6582L17.8895 79.5531H18.0052H18.3522H18.4679L18.5836 79.4376L18.6993 79.5531L18.815 79.4376L19.2777 79.5531L20.2031 79.8997L20.4345 80.0152L20.8972 80.1307L21.2443 80.2462L21.8227 80.4772L22.4011 80.5928L23.4422 81.0548L23.905 81.2859H24.1363L24.3677 81.4014L24.9461 81.5169H25.0618V81.748V81.979L25.1775 82.3256L25.0618 82.4411V82.6721H25.1775V82.9032H25.2931L25.4088 83.0187L25.5245 82.9032L25.4088 83.1342L25.5245 83.3652H25.6402L26.1029 83.5963L26.2186 83.8273L26.3343 83.7118H26.45L26.5656 84.0583L26.6813 83.9428L26.797 84.0583L26.9127 84.2894V84.1739V84.0583L27.0284 83.5963L26.9127 83.3652H26.6813H26.45V83.1342L26.2186 83.0187L27.8381 81.0548L28.3009 80.3617L26.797 79.091L27.6068 78.0513L27.7225 77.9358L28.0695 77.4737L28.7636 76.6651L29.342 75.8565L29.689 75.3944L29.342 75.5099V75.3944H29.2263V75.1634V74.4702L29.342 74.1237L29.5734 74.2392L29.689 74.1237L29.8047 73.6616L30.1518 73.7771V73.1995L30.3831 72.853V72.9685L30.4988 72.6219L30.2675 72.5064V72.3909L30.4988 72.2754L30.6145 71.9288H30.9615H31.0772V71.5823V71.4667H31.1929L30.7302 71.2357L30.8459 71.1202L31.1929 70.6581L31.4243 70.7736L31.5399 70.5426V70.3115L31.6556 70.0805L31.887 69.8495L32.234 69.5029V69.2719L32.4654 69.0408H32.3497L32.4654 68.4632L32.5811 68.2322L32.6968 67.5391H32.4654L32.6968 66.9615L32.8124 66.3839L32.3497 65.5753L32.6968 65.6908L33.1595 65.5753V65.4597H33.2752V65.3442H33.7379V65.2287L34.3163 65.4597L34.2006 65.3442L34.3163 64.5356V63.8425H34.2006L34.0849 63.727L33.9693 63.4959L33.8536 63.3804L33.9693 62.9183L33.8536 62.8028L33.7379 63.0338L33.2752 63.2649L33.1595 63.3804L33.0438 63.2649L32.6968 63.3804L32.5811 63.2649L32.6968 62.9183H32.5811L32.3497 62.8028V62.9183L32.234 62.8028L32.0027 62.9183H31.887V63.0338V62.9183H31.7713V63.0338H31.6556H31.5399H31.3086V63.1494H31.1929L31.0772 63.2649H30.9615H30.7302H30.4988L30.3831 63.1494H30.2675L30.1518 63.0338H29.689L29.4577 62.9183H29.2263L28.995 63.0338L28.8793 63.1494L28.7636 63.2649L28.4165 63.1494L28.3009 63.2649L28.0695 63.1494L27.4911 63.0338L27.2597 63.2649L27.144 63.4959L26.5656 63.2649L26.45 63.3804H26.1029L25.2931 63.6114L24.8304 63.958L24.252 64.189V64.3045L24.1363 64.5356L24.0206 64.6511L23.6736 64.8821H23.4422L22.7481 65.2287L22.5168 65.3442L22.1697 65.5753L22.0541 65.3442L21.5913 65.2287L21.36 65.1132L21.1286 64.9977H21.0129L21.1286 64.5356L19.162 64.4201L18.815 64.0735L18.9307 62.6873L18.4679 61.301L19.0463 59.7993L19.3934 58.2975L19.8561 57.6044L20.0875 57.4889L21.8227 56.4492L21.5913 56.2182L21.36 56.1027L21.1286 56.2182L20.8972 56.1027V56.2182L20.6659 55.9872L20.5502 56.2182L20.3188 56.1027L20.2031 56.3337L18.9307 56.1027L18.6993 55.8716L18.5836 55.6406L18.1209 55.7561L15.4602 53.9078L15.1132 52.9837H14.8818L13.1466 53.3302L12.5682 54.6009L12.1054 54.7164L11.527 54.1389V53.4457L11.2957 53.3302L11.18 52.8681L10.9486 52.6371L10.7173 52.0595L10.6016 51.944L11.0643 51.8285L11.18 51.713L11.2957 51.5974L11.527 51.1354H11.6427H12.2211H12.3368L12.1054 50.3267L11.8741 49.8646L11.7584 49.7491L11.6427 49.8646L11.2957 49.9802L11.18 50.0957L10.6016 49.5181L9.44476 48.5939L9.09771 48.2474L8.86635 48.3629H8.75067L8.51931 48.2474V48.1319L7.82522 47.6698L8.17226 46.9767L8.28794 46.7456L8.75067 46.6301L9.2134 46.2835L10.1388 46.0525L10.2545 45.937L10.3702 45.706L9.90749 44.7818L9.56044 44.3197L9.44476 43.8576L8.63499 42.3559L8.28794 42.1249L7.59385 42.0093V41.7783L7.82522 41.5473L8.05658 41.4317L8.40362 41.2007L8.75067 40.8541L9.09771 40.5076L9.2134 40.3921L9.44476 39.93L9.7918 38.7748L10.1388 38.3127L10.4859 37.6196L10.6016 37.3886L10.4859 37.042H10.6016L10.3702 36.5799L10.2545 36.4644H9.90749L9.7918 36.2334L9.67612 36.0023L9.7918 35.6558V35.5403L9.90749 35.4247L10.2545 35.3092L10.4859 34.9627H10.2545L10.6016 34.5006L10.8329 34.3851L11.6427 34.0385L11.8741 33.923L12.1054 33.5764L12.4525 33.2299L12.7995 32.9988H13.2623L13.6093 32.7678H13.8407H14.3034H14.6504L14.9975 32.6523L15.2288 32.4212L15.3445 32.1902L15.5759 31.6126V31.1505V30.804V30.5729L15.4602 29.9953L15.2288 29.7643L14.9975 29.4177L14.8818 29.3022L14.6504 29.0712L14.7661 28.7246L14.8818 28.3781V28.147L14.7661 28.0315L14.5347 27.8005L14.4191 27.4539L14.072 27.2229L13.9563 26.8763L13.8407 26.2987L13.725 25.8366V25.7211L13.4936 25.4901L13.3779 25.3746L13.1466 25.1435L12.9152 24.6814L12.7995 24.5659L12.4525 24.4504L11.8741 24.1038L11.7584 23.7573L11.6427 23.6418L11.18 23.1797H10.8329L10.6016 23.0642L10.4859 22.9487L10.2545 22.6021L10.6016 21.2159V21.4469L10.7173 21.5624L10.9486 21.2159L11.18 21.1003L11.4113 21.2159L11.18 21.7935L11.0643 21.909H11.18L11.4113 22.0245H11.527L11.8741 21.6779L11.9898 21.4469H12.2211H12.3368L12.4525 21.5624H12.5682L12.6838 21.4469L12.7995 21.3314L12.9152 21.4469L13.1466 21.3314H13.3779L13.4936 21.5624H13.725L13.8407 21.6779V21.7935H14.1877L14.4191 22.0245L14.6504 21.7935H14.7661H15.2288L15.3445 22.0245L15.6916 22.14V22.2555H15.9229V22.14H16.1543L16.3857 22.2555L17.5425 22.6021L17.8895 22.7176L18.2366 22.8331V22.9487L18.4679 23.0642L18.9307 23.1797L19.2777 23.2952H19.5091L19.7404 23.1797L20.0875 22.9487L20.2031 22.6021L20.3188 22.4866V22.3711L20.6659 22.0245L20.7816 21.909L20.8972 21.6779V21.4469H21.0129L21.2443 21.2159L21.36 21.1003V20.9848L21.0129 21.6779L20.6659 22.2555L20.4345 22.8331L19.8561 24.3349V24.5659L19.7404 25.028L19.6247 25.7211L19.7404 25.9522V26.0677V26.2987L19.5091 26.4142H19.3934V26.1832L19.5091 25.9522V25.8366V25.6056L19.2777 26.0677L19.3934 26.2987H19.2777V26.5298H19.162H19.5091V26.6453H19.2777L19.0463 26.7608V26.8763L18.815 26.9918V27.3384L18.6993 27.4539L18.4679 27.5694V27.6849V27.916L18.2366 28.0315V28.4936L18.1209 28.8401L18.3522 28.7246L18.4679 28.8401L18.6993 28.9557L18.815 29.0712L19.162 28.9557V28.7246L19.0463 28.6091L19.2777 28.2625V28.147H19.5091V28.2625L19.6247 28.147H19.7404L19.8561 27.916H19.7404L19.8561 27.6849V27.4539L19.9718 26.9918L20.2031 26.8763L20.3188 26.6453H20.2031L20.3188 26.2987V26.1832L20.4345 25.8366V25.4901V25.259H20.5502V25.1435V24.9125H20.6659V24.6814L20.7816 24.5659V24.4504L20.8972 24.2194V23.8728L20.7816 23.6418L20.8972 23.4107H21.1286L21.0129 23.2952L21.36 23.1797L21.4756 23.0642V22.8331H21.5913V22.6021H21.8227V22.4866H21.9384V22.3711V22.14H22.1697V21.909H22.2854L22.4011 21.6779H22.5168L22.6325 21.4469L22.7481 21.3314V21.4469L22.8638 21.2159L23.0952 21.1003V20.8693L23.2109 20.9848L23.3266 20.8693H23.4422V20.7538H23.5579L23.6736 20.6383V20.5228L23.7893 20.4072L23.905 20.2917H24.252L24.4834 20.0607L24.5991 19.9452H24.8304L24.9461 19.8296L25.1775 19.5986H25.2931L25.5245 19.3676L25.6402 19.021L25.7559 18.9055L25.8715 18.79H25.9872L26.5656 18.0968L27.0284 17.7503L26.9127 17.6348L27.144 17.5193L27.2597 17.4037V17.2882L27.6068 17.0572L27.7225 16.9417V16.8261L27.8381 16.7106V16.5951H27.9538V16.4796H28.0695V16.2485H28.3009V16.133H28.6479L28.8793 16.0175H29.2263H29.342L29.8047 15.7865L30.0361 16.0175V15.902L29.9204 15.7865L30.0361 15.6709L30.2675 15.4399L30.4988 15.6709H30.6145L30.8459 15.5554L31.3086 15.0933L31.4243 14.9778L31.6556 14.7468L31.7713 14.6313L32.1184 14.4002L32.3497 14.2847L32.6968 14.0537H33.2752L33.3909 13.9382H33.5065L33.9693 13.8226H34.2006H34.5477V13.7071H34.8947H35.2418H35.5888L35.8202 13.8226H35.9359H36.0515H36.1672H36.2829L36.3986 13.9382L36.6299 13.8226L36.7456 13.9382L36.977 13.8226V13.7071L37.2083 13.8226L37.324 13.7071L37.9024 13.8226V13.7071L38.0181 13.5916L38.5965 13.3606L38.9436 13.245L39.2906 13.014L39.4063 12.8985L39.6377 12.783L39.7533 12.6674L40.1004 12.4364L40.4474 12.0898L40.6788 11.8588H40.9102V11.7433L41.1415 11.5123L41.2572 11.2812H41.3729L41.6042 11.0502V10.9347H41.7199L41.9513 10.8191V10.5881L42.067 10.3571L42.1827 10.2415L42.067 10.0105L42.1827 9.89498V9.66394V9.43291L42.2983 9.31739L42.414 9.20187L42.5297 9.08635L42.8767 8.85531H43.1081L43.2238 8.73979L43.4552 8.62427V8.50875L43.6865 8.39323V8.27771L43.8022 8.16219H43.9179L43.8022 7.93116L43.9179 7.70012V7.35356L44.0336 7.12252L44.1492 6.89148V6.54492L44.2649 6.4294L44.3806 6.19837L44.4963 5.96733L44.7277 5.85181L45.0747 5.50525V5.38973H45.1904L45.6531 5.27421V5.04317V4.92765H46.0002V4.81214L46.2315 4.69662L46.3472 4.46558V4.23454L46.4629 4.11902L46.5786 3.88798V3.65694L46.4629 3.54142L46.2315 3.07935H46.1158L46.2315 2.61727L46.3472 2.73279L46.4629 2.38623H46.6942L46.8099 2.27071L47.2727 2.15519H47.504L47.6197 2.27071H47.8511L47.9667 2.03967H48.1981L48.4295 2.15519H48.6608L48.7765 2.03967H49.0079H49.1236H49.2392L49.4706 1.92415L49.8176 1.80863L50.049 1.5776L50.3961 1.34656V1.23104L50.5117 1.11552L50.6274 1L51.0901 1.11552V1L52.0156 1.23104L53.4038 1.46208H53.9822L55.6017 1.80863H56.0645L56.8742 1.92415H57.2213L57.4526 2.03967L59.4192 2.27071L59.882 2.38623L60.9231 2.61727L61.7329 2.73279H62.4269L63.6994 2.96383L64.7406 3.07935L65.4347 3.19487L67.1699 3.4259H68.6738L69.1365 3.54142L69.3678 3.65694L70.0619 3.54142L71.2188 3.77246L71.5658 3.88798H72.2599L73.0696 4.0035L74.2265 4.23454L76.1931 4.46558L76.7715 4.5811L77.5812 4.69662L78.6224 4.81214L79.5478 4.92765L80.1262 5.15869L81.1674 5.27421L81.8615 5.38973H82.6712H83.3653L83.7124 5.50525L84.4064 5.62077H84.9849L85.9103 5.85181L87.6455 6.08285H87.8769L88.6867 6.19837H89.2651L90.4219 6.66044L91.3473 6.89148L92.0414 7.007H92.7355L94.5864 7.23804L96.3217 7.70012L97.0157 7.93116H97.3628L100.602 8.39323L100.833 8.50875H101.99L102.684 8.85531L104.304 8.73979L105.345 8.85531L105.576 8.97083H105.808L107.774 9.08635L109.278 9.66394L109.856 9.77946H110.088L110.55 10.0105L110.898 10.3571L111.129 10.5881H111.245L112.401 10.0105L113.095 9.89498H114.484H115.409H115.64L117.029 10.126L117.491 10.2415H118.88H119.227L120.036 10.4726L121.54 10.7036L123.391 11.0502L124.895 11.3967H125.358L126.283 11.2812H127.093L127.324 11.3967L127.787 11.5123H128.134H128.828L129.407 11.6278L129.522 11.5123L129.869 11.6278L130.448 11.7433L130.795 11.6278H131.026L131.836 11.7433L132.761 11.8588L133.34 11.7433H134.381H134.612L135.075 12.0898H135.769H137.157L138.661 12.2054L139.471 12.4364L140.396 12.6674L140.975 12.783L141.438 12.8985H142.479H142.71L144.214 13.1295L144.792 13.014H145.371L146.643 13.245L148.494 13.5916H148.61L149.072 13.8226L149.535 14.0537L150.229 14.2847L151.27 14.1692H152.543L153.815 14.4002L154.278 14.5158L154.625 14.7468L155.666 14.9778L157.286 15.2089L158.211 15.3244L159.484 14.8623L160.409 14.7468L160.756 14.8623L161.913 15.2089H162.26L162.839 15.0933L163.88 15.2089L164.342 14.9778H165.268H165.962L166.425 15.0933L167.003 15.4399L168.507 15.6709L169.895 15.5554L170.127 15.6709L170.821 16.5951L171.862 16.4796L172.44 16.3641L173.019 16.2485L174.522 15.902H175.448L176.836 15.6709H177.067L177.762 15.7865H178.224H178.687V16.0175L179.15 16.133H179.959L180.191 15.6709H180.538H181.81L183.43 15.5554H184.008L184.702 15.4399L185.049 15.5554H185.512H187.71L188.983 15.4399L192.337 15.2089L192.916 15.0933H194.535L196.502 14.9778H197.543H198.7H199.163H200.435L204.715 14.7468L205.062 14.6313L206.913 14.7468H208.649L209.227 14.8623L210.037 14.6313L212.119 14.4002H215.242H215.936L218.481 14.1692L221.489 14.2847H222.646L223.571 14.1692H224.266L224.497 14.2847L224.728 14.0537H225.191L226.463 13.7071L227.967 13.4761L228.199 13.8226H228.43L228.661 13.7071H228.893L229.24 13.8226H230.397H230.628L233.173 13.7071L234.793 13.8226V13.4761L235.024 13.3606H235.487L235.602 13.4761L236.991 13.3606L237.106 13.4761L237.338 13.3606H239.42L239.998 13.1295H240.924L242.312 12.783L243.237 13.1295L243.469 13.014L244.163 12.783H245.32H246.245H246.476L247.402 12.6674L250.063 12.783L252.26 12.3209L252.376 12.4364L253.302 12.2054L254.805 12.0898L255.037 12.2054L256.541 11.9743L258.392 12.2054L259.78 11.9743L260.127 11.8588L260.243 11.6278L261.284 11.3967H261.862L262.093 11.2812L262.903 11.1657H263.366L263.829 11.2812H264.407L265.333 11.1657H265.795H266.836L268.919 10.9347H269.381L269.613 11.3967L269.844 11.9743L270.075 12.4364L270.422 12.783L270.307 13.1295L270.191 13.8226L269.728 13.9382L268.687 14.7468L268.225 15.4399L268.919 15.3244V15.4399L269.034 15.6709H269.15V15.5554L269.266 15.6709L269.381 15.5554L269.497 15.6709L269.613 15.7865V15.902L269.381 16.0175L269.15 17.5193H268.919V17.7503L268.803 18.2124L269.034 18.3279V18.6744H269.15L269.266 18.9055L268.456 19.7141L268.34 19.5986L267.646 20.1762L267.415 19.8296L267.183 19.5986L266.721 19.252L266.374 19.1365L266.027 20.0607L264.754 20.8693L262.903 21.4469L262.672 21.7935L262.556 21.6779L262.209 22.0245H262.093L261.862 21.7935L261.631 21.6779H261.399L261.168 21.5624L260.821 21.4469H260.59L260.474 21.3314H260.358L260.243 21.2159H260.011V21.1003L259.895 20.9848L259.086 20.7538L258.623 20.4072L258.392 20.6383L258.276 20.7538V20.9848L258.045 21.2159L257.929 21.4469L257.813 21.5624L257.698 21.7935L257.582 22.0245L257.466 22.2555L257.35 22.4866L257.119 22.8331L256.772 23.1797L256.541 23.4107L256.425 23.5263V23.6418L256.194 23.8728H256.078H255.731L254.69 23.5263L253.88 23.2952L253.533 23.0642L253.88 24.1038H253.07L252.608 24.9125L252.839 25.1435L252.376 25.4901L252.26 25.1435L251.798 25.259L251.913 25.028L250.41 25.259L250.294 25.3746L250.178 26.6453L250.063 27.1074V27.5694V27.8005L249.831 27.6849L249.368 28.147L249.137 28.2625V28.4936L249.253 28.7246V28.9557L249.368 29.0712V29.1867L249.253 29.3022H249.021L248.906 29.1867L248.79 28.8401L248.559 29.0712L248.443 29.1867H248.327L247.749 29.5333L247.518 29.6488L247.633 29.8798L247.865 30.1109L247.633 30.2264V30.3419L247.402 30.4574L247.171 30.5729L246.823 30.4574V30.804V31.035L246.592 31.1505L246.361 31.266L246.476 31.4971H246.708H246.823L246.939 31.6126V31.8436L247.171 32.1902H247.286L248.327 32.3057V32.4212V32.6523H248.443L248.559 32.5368H248.79L248.674 32.6523V32.8833L248.79 32.9988H248.212L248.096 33.1143L248.327 33.923L248.559 34.5006L248.906 34.6161H249.021L249.137 34.9627L249.368 35.4247V36.0023V36.2334H249.947V36.4644H250.063L250.41 36.3489L250.525 36.4644L250.757 36.3489V36.5799L250.641 36.9265L250.525 37.042H250.757L250.641 37.273L250.872 37.9662L251.335 37.8506L251.451 38.0817V38.3127L251.335 38.4282L251.451 39.2369L252.029 39.1214L252.376 39.0058L252.839 38.8903L253.417 38.7748H253.88L253.996 38.6593L253.764 38.4282V38.0817H253.88L254.69 37.6196L254.805 37.9662V38.3127L254.921 38.7748L255.5 39.3524L255.615 39.8145L255.847 40.5076L255.962 40.7386L256.078 40.9697L256.194 41.2007L256.309 41.4317L256.656 41.7783L256.772 42.0093V42.2404L256.888 42.3559H257.003L257.235 42.5869H257.466L257.698 42.818L258.045 42.9335V43.049V43.28V43.6266V43.8576V44.3197L257.929 44.5508V44.7818L257.698 44.8973L257.582 44.7818L257.235 44.8973L257.119 45.1284V45.3594L257.003 45.5904H256.888H256.772L256.541 45.706H256.194L255.731 46.0525L255.615 46.168L255.731 47.2077L255.615 47.3232L255.5 47.5543V47.9008L255.153 48.1319V48.3629V48.4784L255.268 49.056V49.1715V49.4026H255.384V49.7491V49.8646L255.731 49.9802L256.078 50.0957H256.309H256.656L256.888 50.2112L257.003 50.4422H257.235H257.466L257.698 50.6733L258.045 50.9043L258.392 51.2509L258.623 51.4819L258.854 51.5974L259.086 51.8285L259.433 51.944L259.664 52.175L259.78 52.2906L260.127 52.5216H260.243L260.358 52.6371L260.474 52.7526L260.59 53.0992L260.474 53.3302L260.59 53.4457V53.6768V53.7923V54.0233L260.705 54.2544L260.821 54.832L261.052 55.1785L261.168 55.7561L261.399 55.8716H261.515L261.746 55.9872L261.978 56.3337V56.6803V56.7958L262.209 57.0268V57.2579V57.6044L262.325 58.0665V58.2975L262.209 58.5286V58.7596V58.9907V59.2217L262.44 59.6838L262.672 59.9148H262.903V60.1459L263.019 60.2614L263.25 60.3769L263.366 60.4924V60.7235V61.07H263.482L263.597 61.4166L263.713 61.5321V61.7631L263.944 61.8786H264.06L264.176 61.9942L264.291 62.2252H264.407H264.638H264.754V62.4562L265.101 62.6873H265.333L265.68 62.8028L265.795 62.9183L266.374 63.3804L266.489 63.6114V63.8425L266.836 64.0735L266.952 64.189L267.068 64.4201L267.415 64.8821L267.53 64.9977L267.993 65.4597L268.109 65.8063L268.456 65.9218L268.687 66.3839V66.7305V66.846L268.456 67.4236L268.225 67.7701V67.8857V68.1167V68.3477L268.572 68.5788L268.456 68.9253L268.225 69.1564V69.2719L268.34 69.6184V69.8495H268.572L268.687 69.965L268.572 70.196V70.5426L268.919 70.8891V71.0047L268.687 71.4667V72.0443L268.572 72.2754L268.456 72.7374V73.084L268.225 73.4306L267.878 73.6616L267.53 73.8926L267.415 74.1237L267.183 74.4702H267.068L266.952 74.7013V75.0478L266.721 75.3944L266.374 75.741H266.258L266.027 75.972L265.564 76.203V76.3186L265.217 76.4341L265.101 76.6651L264.985 76.7806L264.754 76.8961L264.638 77.1272L264.523 77.3582L264.638 77.5893V77.8203V77.9358L264.523 78.0513L264.407 78.3979L264.523 78.5134L264.407 78.6289L264.523 78.9755L264.407 79.3221L264.523 79.6686L264.407 79.7841L264.523 80.2462V80.8238V81.0548L264.291 81.1704L264.407 81.2859V81.5169L264.06 81.8635V81.979V82.21L263.829 82.5566V82.7876L263.713 82.9032L263.597 83.2497L263.482 83.4807L263.366 83.5963L263.25 84.1739L263.135 84.2894L262.903 84.9825V85.2135L262.672 85.5601L262.44 85.9066L262.209 86.0222L261.746 86.3687L261.168 86.5998L260.937 86.4842H260.821H260.474L260.358 86.5998L260.127 86.7153L259.895 86.8308H259.664L259.317 87.1774L259.086 87.4084L258.623 87.5239L258.392 87.6394H258.276L258.16 87.4084L258.392 87.1774L258.276 86.8308L258.045 86.5998H257.929H257.813H257.466V86.4842L257.119 87.0618V87.2929V87.4084L257.235 87.6394V87.755L257.119 87.8705L257.003 87.986V88.217L257.235 88.4481L257.119 88.5636L256.888 88.9101V89.1412L256.541 89.6033L256.425 89.8343L256.309 90.4119L256.194 90.6429V91.2205L255.847 91.4516L255.5 91.3361H255.153L255.037 91.2205L254.227 90.2964V89.3722L252.723 90.874H252.839L250.757 92.3757L249.021 93.6464L249.137 93.762L249.021 93.8775L248.79 93.993H248.327L247.633 93.6464L247.402 93.5309H246.476L246.014 93.6464H245.667L245.782 93.8775H246.014V93.993H246.129V94.224L246.245 94.4551V94.5706L246.014 94.3396H245.898L245.551 94.5706L245.435 94.8016L245.551 95.1482H245.782V95.3792V95.4948L245.667 95.7258V95.8413L245.782 96.0723L245.898 96.1879L245.782 96.5344L245.551 96.7655L245.667 97.112L245.782 97.2275L245.667 97.4586L245.782 97.5741L246.245 98.0362L246.014 98.1517L245.782 98.0362H245.667L245.088 97.9207L244.626 98.1517H244.394V98.0362L244.163 97.9207H243.7L243.584 97.8051L243.469 97.5741H243.816L243.931 96.9965L243.7 96.881V96.7655L243.469 96.6499H243.353L243.469 96.5344L243.353 96.3034L243.122 96.5344L242.775 96.0723L242.428 95.8413L242.081 96.0723H241.965L241.733 96.3034V96.5344L241.502 96.7655V96.881L241.155 97.2275L240.924 97.4586L240.692 97.5741H240.577L240.461 97.4586L239.998 97.6896L239.651 98.0362L237.916 99.0758L237.8 98.9603L237.569 99.1914L237.453 99.4224L237.222 99.5379V99.769L236.991 99.8845L237.222 100.116L236.181 101.155L235.371 101.964L235.14 101.733L233.867 102.541L233.289 102.888H233.173L232.248 103.004L232.016 103.235L231.785 103.581L231.322 104.621L230.281 105.314L229.587 105.891L229.124 106.238L228.893 106.354L228.777 106.585L228.43 106.816L228.546 106.931L228.199 107.509L228.083 107.624L227.852 107.855L227.273 108.202L226.695 108.664L226.348 109.126L226.001 109.704L225.654 110.05L225.538 110.166L225.191 110.397L224.497 110.859L224.15 111.09L223.687 111.205L223.224 111.436L223.109 111.552L222.877 111.667L222.415 112.014L222.299 112.13L221.721 112.476L221.605 112.592L221.373 112.707L220.795 113.054L220.332 113.285L219.638 113.631L219.523 113.862L219.176 113.978L218.829 114.093L218.366 114.209L218.134 114.093H218.019L217.672 113.862L217.44 113.747L216.978 113.862H216.862L216.284 114.44H216.052L215.705 114.555L215.589 114.786H215.358L215.127 115.133V115.48V115.595L214.895 115.942V116.288L214.664 116.519L214.433 116.866V117.212L214.086 117.905H213.97L213.738 118.252V118.368L213.623 118.599L213.16 118.714L212.929 118.599L212.813 118.368L212.582 118.021V117.79L212.466 117.559V117.212L212.235 116.866L212.119 116.519L212.003 116.404L211.425 116.173L211.309 116.057L211.078 115.826L210.846 115.595L210.615 115.48L210.384 115.826H210.152L210.037 115.942H209.921L209.805 116.057L209.69 116.288L209.458 116.404H208.88L208.649 116.635L208.417 116.75L208.186 116.866L207.954 117.097L207.145 116.981L206.682 116.866H206.566L205.988 117.097L205.756 117.212L205.641 117.328V117.674L205.525 117.79L205.062 118.252L204.6 118.599L204.253 119.061L204.137 119.523L204.253 119.869L204.368 119.985L204.253 120.331L203.906 121.025V121.371L203.443 122.295L202.749 122.988H202.633L202.17 122.873L201.823 122.988L201.476 123.219H201.014H200.666L200.319 123.104L199.741 122.988L198.816 122.642L198.237 122.295L198.006 122.064L196.965 121.256L196.039 120.793L195.345 120.562L194.998 120.447H194.651L193.957 120.331H193.263L192.569 119.985L192.106 119.754L191.643 119.638H191.296L190.487 119.523H190.371L189.445 119.292L189.098 119.176L188.404 119.061L187.942 119.292L186.9 119.869L186.553 120.1L185.628 120.562H185.049H183.083L182.389 120.447H181.926L181.579 120.562L181.232 120.678H180.191H180.075L179.612 120.562L178.456 120.909L177.993 121.025L177.183 121.14L176.373 121.025H176.142L174.522 121.487L174.291 121.602H173.944L173.597 121.718L171.63 122.295L170.705 122.526L170.474 122.642L169.895 122.757L169.779 122.873L170.127 123.104V123.335L170.242 123.566L170.474 124.028L170.589 124.375L170.705 124.49L170.821 124.606V124.837L170.358 124.721L170.242 124.606L170.127 124.49L170.011 124.606L169.432 124.375H169.317L169.432 124.49V124.721L169.664 124.952L169.779 124.837H169.895L170.011 124.952L169.895 125.068V125.299L170.011 125.183L170.242 125.53H170.589L170.821 125.645V125.761L170.705 125.876L170.589 125.992V125.876L170.127 125.761L170.011 125.645V125.761L170.242 126.107H170.011L170.242 126.338L170.127 126.454L169.895 126.107L169.779 126.223V126.338H169.317L169.432 126.454L169.085 126.685L169.201 126.916L168.276 127.147L168.16 127.263L167.582 127.147L167.466 127.263H167.35L167.119 127.147L167.234 127.032H167.35L167.466 126.916L166.54 126.685L166.309 127.032H166.193L166.078 127.263H165.962L165.846 127.494L165.731 127.609V127.84H165.615L165.152 127.956H165.037L164.689 127.84H164.574L164.458 127.956H164.342L164.111 128.071V128.187V128.302L163.995 128.418L163.88 128.764L163.648 128.533V128.649L163.07 128.071L162.954 128.302H162.839L162.26 128.187L162.145 128.071L162.029 127.956L160.988 127.609L160.756 127.725L160.641 127.609L160.525 127.494L160.294 127.609L160.062 127.956L160.178 128.187L159.831 128.418V128.649L159.715 128.764L159.831 128.995V129.111L159.6 128.995L159.831 129.342L159.715 129.457L159.6 129.342L159.484 129.457L159.368 129.111H159.252V128.995L159.021 128.88V128.764V128.533L159.137 128.418V128.302L159.252 127.956L159.6 127.84L159.484 127.725L159.368 127.609V127.494L159.137 127.378L159.021 127.494L158.905 127.378L158.79 127.263L157.98 127.378L156.476 128.071L155.666 128.533L155.319 128.88L154.278 129.457L153.584 129.919L153.121 130.151L152.774 130.613L152.543 130.728L152.08 130.959H151.849L151.617 131.075L151.27 131.19L151.039 131.306L150.576 131.652L149.882 132.23L149.42 132.576L148.494 133.27L148.61 133.616L148.494 134.078L148.147 134.771L147.684 135.002L147.569 135.118L147.222 135.233L146.99 135.695L146.527 136.042L146.065 136.273L145.833 136.389L144.908 136.62L144.561 136.851L144.214 137.082L144.098 137.428L143.404 137.89L142.247 138.468L142.132 138.583L141.9 138.468V138.352L141.669 138.121L140.975 137.428L140.859 136.966L140.628 136.735L140.512 136.62L140.396 136.504L140.281 136.389L139.934 136.273H139.818L139.587 136.042H139.471L139.008 135.926H138.892H138.661L138.198 135.811V135.695L138.083 135.233H137.967H137.736L137.389 135.002L137.504 135.233L137.042 135.695L136.926 135.811L136.81 135.926L136.232 136.389L136.348 136.042L136.116 136.158L136 136.273L135.769 136.389L135.885 136.158H135.769L135.653 136.389L135.538 136.504L135.422 136.62L135.191 136.389L135.306 136.042H134.265L134.497 135.695L133.918 135.464H133.455L133.224 135.58L133.34 135.695H133.224V136.158V136.273L133.108 136.389L132.877 136.273H132.53L132.183 136.389L132.53 136.504V136.62L132.183 136.735V136.851H131.952L131.836 137.082L131.952 137.197H131.72L131.489 137.544L131.605 137.89L131.72 138.006V138.121L132.067 138.237L132.183 138.352L132.414 138.468L132.183 139.046L132.299 139.161L132.067 139.623H132.183H132.299L132.993 139.739L132.877 139.97V140.316L132.414 140.201L132.299 140.316L132.414 140.547L132.299 140.778L131.952 140.663L132.067 140.085L131.489 140.201H131.373L131.489 140.547H131.373V140.778H131.258L131.373 141.009L131.258 141.125L131.373 141.356L131.258 141.471V141.587L130.91 141.471L130.679 141.24L130.332 141.009L130.448 140.894L130.101 140.778L130.216 140.663L129.869 140.432L129.754 140.547L129.175 140.432L129.291 140.201H129.06H128.828L128.713 140.894L128.828 141.24L128.713 141.471L128.25 142.28H128.018L127.903 142.396L127.787 142.28L127.671 142.627L127.44 142.396L127.324 142.511L127.44 142.858L127.556 143.089V143.204L127.324 142.973V143.204L127.209 143.435L127.324 143.666H127.093H126.977L126.862 143.435L126.63 143.32V143.204L126.399 142.973L126.283 142.858L126.168 142.742H125.936L125.705 142.396L125.473 142.28L125.358 142.165L125.126 142.28L124.895 142.165H124.779L124.548 142.049H124.201H124.085L123.854 141.818H123.623L123.391 142.049H123.275V141.933L123.044 141.702L122.813 141.471H122.697L122.466 141.587V141.702L122.234 141.587L122.119 141.471V141.356L122.003 141.24H121.772L121.656 141.356H121.54H121.309L121.078 141.24V141.009L120.962 140.894H120.73L120.615 141.009H120.383L120.268 141.125H120.036L119.805 140.894L119.689 140.778L119.574 140.663L119.342 140.547L119.111 140.894V141.125L119.342 141.24L119.574 141.471L119.689 141.818L119.458 141.933L119.227 142.165H118.88H118.648L118.533 142.049H118.301L118.07 141.933H117.954L117.723 141.818V141.702L117.607 141.356L117.376 141.24L117.144 141.587L117.26 142.742H117.029H116.566L115.64 142.396V142.858L115.756 143.782L115.64 144.128H115.525V144.244H115.293V144.359L115.062 145.168L114.484 146.323V146.439L114.368 146.554L113.79 146.901L113.674 147.016V147.132L113.558 147.363V147.594V147.825L113.443 148.056L113.095 148.518V148.634L109.741 148.518L109.625 148.634V148.865L109.741 148.98L109.856 149.211L109.625 149.442L109.741 149.558L109.856 149.673V149.789H109.741L109.625 149.904L109.741 150.02H109.509V150.251L108.931 150.366L108.7 150.597L108.468 150.828H108.237L107.89 150.944H107.543V150.597L107.427 150.135L107.311 150.02H107.08L106.502 150.828L106.039 151.753L105.576 151.984L104.766 151.637L104.998 151.406L103.841 151.059L103.725 151.522L104.188 151.637L103.378 152.215L102.106 151.406V151.175V150.944V150.713L101.412 150.828H101.18H100.371H99.7921H99.5607L99.4451 150.597L99.2137 150.482L98.8667 150.02L98.6353 149.904L98.9823 149.673L98.5196 149.211L98.1726 149.673L97.1314 150.828L95.9746 152.33L95.8589 152.215L95.6276 152.33L95.0492 153.254L95.2805 153.485L95.0492 153.832L94.8178 154.179L94.5864 154.41L94.2394 155.334L94.008 155.565L93.7767 155.796L93.4296 155.911L92.9669 156.258V156.373V156.72L92.6198 157.067L92.5042 157.76H92.0414L91.463 158.106L90.5376 158.684L89.9592 159.03L89.4964 159.146L89.1494 159.492L88.918 159.723L88.8024 159.839H89.0337L89.8435 160.07L90.1905 160.186H90.5376L90.6533 160.301H90.8846L91.116 160.417H91.3473L91.116 160.648L90.8846 160.532L90.7689 160.763L90.8846 160.879L90.7689 161.11L90.8846 161.456L89.7278 161.572H89.4964L89.3808 161.687H89.1494H88.8024L88.4553 161.918H88.2239L87.7612 162.149L87.2985 162.265V162.034L86.7201 162.265H86.6044H86.4887L86.373 162.38H86.1417L85.9103 162.149H85.7946L85.5633 162.265L85.4476 162.034H85.2162L85.1005 161.918L84.5221 162.265L83.828 162.149L83.5967 162.034L83.2496 161.803L83.0183 161.687L82.5555 161.572L82.3242 161.341H82.0928L81.8615 161.225L81.2831 160.994L80.7046 160.879L80.2419 160.994H80.0106L79.4321 160.879L79.2008 160.763H78.8537L78.2753 160.648L77.5812 160.532L77.1185 160.417H77.0028L76.8871 160.879L77.0028 161.11L76.7715 161.341L76.5401 161.572L76.3087 161.803L76.1931 161.918L75.9617 162.034V161.918L75.499 162.149H75.2676L74.8049 162.034V161.918L74.2265 161.456L74.1108 160.763L73.8794 160.301L73.7637 159.954L73.6481 159.608L73.0696 159.492L72.7226 159.261L72.6069 158.915L70.6403 159.146L70.5247 159.492L70.6403 159.839L70.5247 160.186H69.8306H69.0208V160.301L68.9051 160.417H68.7894L68.4424 160.301L68.3267 160.186L67.9797 160.07L67.864 159.954H67.7483L67.6326 160.532V160.648L67.4013 161.341L67.2856 161.572H67.0542L66.8228 161.687L66.7072 161.456L66.3601 160.648L66.1288 160.763L65.7817 160.994L65.0876 161.225L64.8563 161.341H64.6249V161.456L64.3935 161.572L63.8151 161.687H63.5838L63.4681 161.803H63.3524L63.2367 161.572L63.121 161.456L63.0053 161.341L62.6583 161.456L62.5426 161.341L62.4269 161.11H62.3113L62.1956 160.879L62.0799 160.648L61.8485 160.417L61.6172 159.839L61.0388 159.492L60.576 159.146L59.5349 158.915L59.6506 158.453L58.6094 157.875L58.1467 157.76L58.4938 156.373H58.6094L58.9565 156.027L58.7251 155.911L58.8408 155.796L58.9565 154.179H58.6094V153.601L57.337 153.832V153.716L57.1056 153.37L56.6429 153.716L56.4115 153.947L56.2958 154.294L56.4115 154.525L56.2958 154.641H56.0645L55.7174 154.756H55.486V154.872L55.6017 155.103V155.218H55.486L55.2547 155.103L55.139 155.218H55.0233L54.9076 155.334H54.792L53.7508 155.911L53.4038 156.373L52.1313 158.222L53.1724 159.492L53.2881 161.11V161.687V162.149L50.5117 161.11L48.6608 160.417L47.6197 160.763L47.504 160.879L46.8099 158.568L46.6942 157.644L46.3472 157.413V157.298H46.4629L46.5786 156.951L46.6942 156.835L46.4629 156.72L46.3472 156.835L46.2315 156.72V156.604H46.1158L46.0002 156.373L46.2315 156.258L46.1158 156.142L46.2315 155.911H46.3472V155.68L46.1158 155.334L46.0002 155.218L45.8845 154.756L45.6531 154.525L45.7688 154.41L45.8845 154.525H46.0002L46.1158 154.294H46.2315V154.063L46.3472 153.832V153.601L46.5786 153.485L46.6942 153.601H46.8099V153.37H46.6942V153.139L46.5786 153.023V152.908L46.3472 152.792V152.677L46.2315 152.446L46.1158 152.33L46.0002 151.984V151.753L46.1158 151.522H46.0002L45.7688 151.637L45.6531 151.406H45.4217L45.1904 151.291H45.0747L44.8433 151.059H44.7277H44.612L44.3806 151.175H44.1492V151.059L44.0336 150.828L43.6865 150.713L43.4552 150.828H43.2238V150.597L42.9924 150.482L42.8767 150.713H42.7611L42.6454 150.828L42.5297 150.944H42.2983L42.1827 150.828L42.2983 150.597H42.1827L42.2983 148.634V148.518L42.1827 148.287L42.067 148.403H41.8356H41.7199L41.9513 148.172H41.8356V148.056H41.6042L41.7199 147.825H41.8356L42.2983 147.594L42.5297 147.132H42.6454L42.7611 147.016L43.2238 146.785L43.4552 146.554L43.8022 145.977L43.9179 145.861L44.2649 146.092L44.959 146.439H45.1904V146.323L45.0747 145.861L44.959 145.977H44.8433L44.7277 145.746V145.63L44.3806 145.284L44.2649 145.053V144.706H44.3806V144.821H44.612L44.8433 144.706L44.7277 144.59L44.4963 144.359L44.1492 144.244L44.0336 144.128H43.8022L44.0336 143.32L44.1492 142.973L44.2649 142.627V142.511L43.9179 142.396H43.8022L43.5708 142.28L43.2238 142.165H43.1081L42.8767 142.049L42.5297 141.933V142.049L42.1827 141.933L42.067 142.165L41.8356 142.28L41.9513 141.933L41.8356 141.818L42.1827 141.702V141.125L42.067 141.24V140.663V140.316V139.854L42.1827 139.508V139.277V138.93V138.352L41.8356 138.237H41.3729L40.9102 138.121L40.3318 137.89L39.869 137.659H39.7533L39.522 137.544L39.2906 137.659L39.0593 137.544L38.9436 137.428L38.7122 137.313L38.2495 137.428L37.6711 137.659L36.5143 138.006L36.3986 137.544L36.1672 137.659L35.7045 137.89L35.3574 138.121V138.583L34.779 138.814L33.7379 138.93H32.9281H32.4654H30.9615L30.6145 139.046H30.2675H29.8047L29.689 138.814L29.8047 138.583H29.9204V138.468V138.237L29.8047 138.352V138.121L29.689 137.89H29.9204L29.8047 137.775L29.9204 137.659L29.8047 137.544H29.9204L30.0361 137.428L30.1518 137.197L30.0361 137.313H29.9204L30.2675 136.851L30.3831 136.735V136.504L30.2675 136.389L30.3831 136.273V136.158H30.2675V136.273V136.504L30.1518 136.158V136.042H30.0361V135.811L29.8047 135.695L29.9204 135.58L30.0361 135.464H29.8047L29.689 135.58V135.349V135.118V134.656V134.309L29.8047 134.194L29.689 134.078H29.2263H28.995L28.8793 134.309L28.6479 134.54L28.1852 134.887V135.002L27.9538 135.118L27.4911 135.233L27.2597 135.349H26.9127L26.797 135.118L26.9127 134.771L27.0284 134.54V134.425H26.9127V134.194L27.0284 134.078L26.9127 133.963H26.6813L26.5656 134.194L26.3343 133.963L26.1029 134.194H25.9872L25.7559 134.309V134.771H25.6402L25.5245 135.002L25.4088 135.118L25.1775 135.464L25.0618 135.349L24.9461 135.464L24.3677 135.349L24.1363 135.464L24.0206 135.58H23.6736L23.4422 135.695L23.3266 135.58L23.0952 135.464H22.9795L23.0952 135.233L23.3266 135.002V134.887L23.5579 134.656L23.6736 134.425L23.905 133.963L24.1363 133.616H24.252H24.3677L24.4834 133.501L23.0952 133.27L22.4011 133.154L22.2854 133.039L22.1697 132.692L22.0541 132.461V132.345L21.9384 132.23V131.999L21.707 131.883L21.5913 131.768V131.652L21.8227 131.537H21.707L21.5913 131.421H21.36L21.0129 131.652H20.8972L20.7816 131.421V131.075L20.5502 131.19V131.421V131.652L20.7816 131.768V131.999H20.5502L20.4345 131.883L20.2031 131.652V131.537L20.4345 131.421L20.3188 131.19L20.2031 130.959L20.3188 130.728L20.2031 130.613L20.0875 130.035H19.9718L19.8561 129.919L19.6247 129.688V129.573L19.7404 129.342H19.6247L19.5091 129.111L19.0463 128.995L18.6993 128.88L18.5836 128.995L18.4679 129.111L18.2366 129.226L18.0052 129.457H17.6582L17.5425 129.342V129.573H17.0797L16.9641 129.457H16.8484L16.617 129.573L16.1543 129.688L16.0386 129.804L15.8072 129.919L15.5759 129.804L15.4602 129.573L15.3445 129.457L15.2288 129.342L15.1132 129.226L14.7661 129.111H14.4191H14.1877V129.688L13.3779 130.035L13.1466 130.613L13.2623 130.497L13.4936 130.151H13.725L13.9563 130.266L14.072 130.497L13.9563 130.613L13.8407 130.728L13.6093 130.844L13.725 131.075L13.6093 131.19L13.3779 131.075L13.0309 131.768L13.1466 131.999V132.114L13.0309 132.345V132.114L12.9152 131.999V131.883L12.7995 131.768V131.652H12.6838L11.8741 131.19L11.527 131.075H11.18L10.9486 130.959H10.7173L10.6016 130.728L10.4859 130.497L10.3702 130.151L10.1388 129.804H9.90749L9.7918 129.342L9.56044 129.111L8.86635 128.88L8.63499 128.649L9.09771 128.533L8.86635 128.418L8.75067 128.302V128.187V127.84L8.86635 127.956L9.2134 128.418L9.44476 128.187H9.56044L10.0232 127.725L10.2545 127.032L10.3702 126.569L9.67612 126.223L9.44476 125.414H9.32908L9.44476 125.299V125.183L9.56044 125.068H9.67612L9.44476 124.028L9.7918 123.681L9.56044 123.219V123.45H9.32908V123.566H9.09771L9.2134 123.681H9.09771L8.98203 123.912L8.75067 124.028H8.51931L8.40362 123.912L8.28794 124.028L8.17226 123.797V123.566L8.28794 123.45L8.17226 123.219L8.28794 123.104V122.988L8.51931 122.873V122.757V122.642L8.75067 122.411L8.98203 122.18L8.86635 121.949L8.75067 121.718V121.602L8.63499 121.371V121.14L8.51931 121.025L8.40362 120.909L8.17226 120.793L8.05658 120.678V120.447L8.17226 120.216L8.05658 120.1L8.17226 119.869H8.28794L8.17226 119.638L8.05658 119.523L7.9409 119.292L7.70953 119.176L7.47817 118.945H7.36249L7.24681 118.83L6.89976 118.599L6.78408 118.483L6.43704 118.137V117.905L6.32135 117.674L6.08999 117.559L5.97431 117.328V117.212H5.85863L5.51158 116.75L5.74295 116.519L5.62726 116.288L5.85863 116.173L6.08999 116.057L6.32135 115.942L6.43704 115.826V115.595L6.55272 115.48L6.6684 115.364H6.78408L6.89976 115.249L7.13113 115.133L7.36249 115.249H7.70953V114.902V114.786L7.82522 114.671H7.70953L7.59385 114.44H7.47817L7.36249 114.324V113.978L7.13113 113.516L7.36249 113.4L7.24681 113.054L7.13113 113.169V113.054L7.01544 113.169V112.938H7.13113L6.89976 112.476L7.01544 112.361L6.89976 112.245L6.43704 112.476L5.97431 112.823L5.51158 112.361L6.08999 110.974L6.20567 110.397L6.32135 109.588L6.08999 109.357L5.28022 109.01L5.16454 108.895L4.81749 108.664L5.04886 108.433L4.47045 108.202L3.89204 107.971L3.545 107.855L3.31363 108.086L3.19795 108.202L2.96659 108.086L2.61954 107.971L1.11568 107.393L1.23136 107.047V106.354V105.891L1 105.66L1.11568 105.429L1.23136 104.852L1.57841 104.736L1.80977 104.621L2.85091 103.466H2.96659L3.66068 102.888L4.23909 101.964L4.47045 101.386L4.81749 100.924L5.16454 101.271L5.62726 100.924L5.85863 100.809L6.43704 101.155L6.32135 101.502L6.55272 101.617V101.386L6.78408 101.271L7.24681 100.578L7.13113 100.231L7.24681 100L7.13113 99.769L7.47817 99.8845L7.24681 99.3069L7.36249 98.2672V98.1517V97.3431H7.70953L7.9409 97.5741L8.05658 97.4586L7.9409 96.881L7.82522 96.4189L7.70953 95.8413H7.59385L7.47817 95.2637Z" fill="white"/>
<path d="M7.47817 95.2637V95.2637ZM7.47817 95.2637L7.24681 94.5706L7.47817 94.3396L7.70953 93.993L7.82522 93.8775L8.05658 93.5309L8.17226 93.1844V93.0688L8.40362 92.8378L8.51931 92.9533H8.63499L8.86635 92.7223L9.09771 92.6068V92.4912L9.2134 92.3757L9.09771 92.1447H9.2134L9.67612 91.5671L9.7918 91.336L10.1388 90.9895L10.3702 90.7585L10.8329 90.1809V90.0653L11.0643 89.8343H11.18L11.2957 89.7188H11.527L11.7584 89.4877L11.9898 89.6033L12.1054 89.3722L12.2211 89.1412L12.3368 89.0257M7.47817 95.2637L7.59385 95.8413H7.70953L7.82522 96.4189L7.9409 96.881L8.05658 97.4586L7.9409 97.5741L7.70953 97.3431H7.36249M12.3368 89.0257V89.0257ZM12.3368 89.0257L12.5682 88.9101L12.6838 88.5636L12.7995 88.6791H12.9152L12.7995 88.5636L13.0309 88.4481L13.1466 88.1015L13.3779 87.755V87.6394L13.4936 87.5239M13.4936 87.5239V87.5239ZM13.4936 87.5239L13.8407 86.9463H13.9563V86.8308L13.8407 86.7153H13.725V86.0222L13.6093 85.9066L13.9563 85.2135L13.6093 85.098V84.7515L13.725 84.2894L13.8407 83.9428L13.6093 83.8273V83.4807L13.725 83.3652V83.2497H13.9563L14.072 82.6721H14.3034L14.4191 82.21L14.8818 82.3256L14.6504 81.979L14.3034 81.8635L14.5347 81.0548H14.4191L14.5347 80.5928L14.9975 80.1307L15.2288 79.8997V79.6686L15.3445 79.4376H16.1543L16.27 79.3221L16.8484 79.4376M16.8484 79.4376V79.4376ZM16.8484 79.4376H17.0797H17.3111L17.4268 79.3221H17.6582L17.8895 79.5531H18.0052H18.3522H18.4679L18.5836 79.4376L18.6993 79.5531L18.815 79.4376L19.2777 79.5531L20.2032 79.8997L20.4345 80.0152L20.8972 80.1307L21.2443 80.2462L21.8227 80.4772L22.4011 80.5928L23.4422 81.0548L23.905 81.2859H24.1363L24.3677 81.4014L24.9461 81.5169H25.0618V81.748V81.979L25.1775 82.3256L25.0618 82.4411V82.6721H25.1775V82.9031H25.2931L25.4088 83.0187L25.5245 82.9031L25.4088 83.1342L25.5245 83.3652H25.6402L26.1029 83.5963L26.2186 83.8273L26.3343 83.7118H26.45L26.5656 84.0583L26.6813 83.9428L26.797 84.0583L26.9127 84.2894V84.1739V84.0583L27.0284 83.5963L26.9127 83.3652H26.6813H26.45V83.1342L26.2186 83.0187L27.8381 81.0548L28.3009 80.3617L26.797 79.091L27.6068 78.0513L27.7225 77.9358L28.0695 77.4737L28.7636 76.6651L29.342 75.8565L29.689 75.3944L29.342 75.5099V75.3944H29.2263V75.1634V74.4702L29.342 74.1237L29.5734 74.2392L29.689 74.1237L29.8047 73.6616L30.1518 73.7771V73.1995L30.3831 72.853V72.9685L30.4988 72.6219L30.2675 72.5064V72.3909L30.4988 72.2754L30.6145 71.9288H30.9615H31.0772V71.5823V71.4667H31.1929L30.7302 71.2357L30.8459 71.1202L31.1929 70.6581L31.4243 70.7736L31.5399 70.5426V70.3115L31.6556 70.0805L31.887 69.8495L32.234 69.5029V69.2719L32.4654 69.0408H32.3497L32.4654 68.4632L32.5811 68.2322L32.6968 67.5391H32.4654L32.6968 66.9615L32.8124 66.3839L32.3497 65.5753L32.6968 65.6908L33.1595 65.5753V65.4597H33.2752V65.3442H33.7379V65.2287L34.3163 65.4597L34.2006 65.3442L34.3163 64.5356V63.8425H34.2006L34.0849 63.727L33.9693 63.4959L33.8536 63.3804L33.9693 62.9183L33.8536 62.8028L33.7379 63.0338L33.2752 63.2649L33.1595 63.3804M33.1595 63.3804V63.3804ZM33.1595 63.3804L33.0438 63.2649L32.6968 63.3804L32.5811 63.2649L32.6968 62.9183H32.5811M32.5811 62.9183V62.9183ZM32.5811 62.9183L32.3497 62.8028M32.3497 62.8028V62.8028ZM32.3497 62.8028V62.9183M32.3497 62.9183V62.9183ZM32.3497 62.9183L32.234 62.8028M32.234 62.8028V62.8028ZM32.234 62.8028L32.0027 62.9183M32.0027 62.9183V62.9183ZM32.0027 62.9183H31.887M31.887 62.9183V62.9183ZM31.887 62.9183V63.0338M31.887 62.9183H31.7713M31.887 63.0338V63.0338ZM31.7713 62.9183V62.9183ZM31.7713 62.9183V63.0338M31.7713 63.0338V63.0338ZM31.7713 63.0338H31.6556M31.6556 63.0338V63.0338ZM31.6556 63.0338H31.5399M31.5399 63.0338V63.0338ZM31.5399 63.0338H31.3086M31.3086 63.0338V63.0338ZM31.3086 63.0338V63.1494M31.3086 63.1494V63.1494ZM31.3086 63.1494H31.1929M31.1929 63.1494V63.1494ZM31.1929 63.1494L31.0772 63.2649H30.9615M30.9615 63.2649V63.2649ZM30.9615 63.2649H30.7302M30.7302 63.2649V63.2649ZM30.7302 63.2649H30.4988M30.4988 63.2649V63.2649ZM30.4988 63.2649L30.3831 63.1494M30.3831 63.1494V63.1494ZM30.3831 63.1494H30.2675M30.2675 63.1494V63.1494ZM30.2675 63.1494L30.1518 63.0338H29.689L29.4577 62.9183M29.4577 62.9183V62.9183ZM29.4577 62.9183H29.2263L28.995 63.0338L28.8793 63.1494L28.7636 63.2649L28.4165 63.1494L28.3009 63.2649L28.0695 63.1494L27.4911 63.0338L27.2597 63.2649L27.144 63.4959L26.5656 63.2649L26.45 63.3804H26.1029M26.1029 63.3804V63.3804ZM26.1029 63.3804L25.2931 63.6114L24.8304 63.958L24.252 64.189V64.3045M24.252 64.3045V64.3045ZM24.252 64.3045L24.1363 64.5356L24.0206 64.6511M24.0206 64.6511V64.6511ZM24.0206 64.6511L23.6736 64.8821H23.4422L22.7481 65.2287L22.5168 65.3442L22.1697 65.5753L22.0541 65.3442L21.5913 65.2287L21.36 65.1132L21.1286 64.9977H21.0129L21.1286 64.5356L19.162 64.4201L18.815 64.0735L18.9307 62.6873L18.4679 61.301L19.0463 59.7993L19.3934 58.2975L19.8561 57.6044L20.0875 57.4889L21.8227 56.4492L21.5913 56.2182L21.36 56.1027L21.1286 56.2182L20.8972 56.1027V56.2182L20.6659 55.9872L20.5502 56.2182L20.3188 56.1027L20.2032 56.3337L18.9307 56.1027L18.6993 55.8716L18.5836 55.6406L18.1209 55.7561L15.4602 53.9078L15.1132 52.9837H14.8818L13.1466 53.3302L12.5682 54.6009L12.1054 54.7165L11.527 54.1389V53.4457L11.2957 53.3302L11.18 52.8681M11.18 52.8681V52.8681ZM11.18 52.8681L10.9486 52.6371L10.7173 52.0595L10.6016 51.944L11.0643 51.8285L11.18 51.713L11.2957 51.5974L11.527 51.1354H11.6427H12.2211H12.3368L12.1054 50.3267L11.8741 49.8646L11.7584 49.7491L11.6427 49.8646L11.2957 49.9802L11.18 50.0957L10.6016 49.5181L9.44476 48.5939L9.09771 48.2474L8.86635 48.3629H8.75067L8.51931 48.2474V48.1319L7.82522 47.6698L8.17226 46.9767L8.28794 46.7456L8.75067 46.6301L9.2134 46.2835L10.1388 46.0525L10.2545 45.937L10.3702 45.706L9.90748 44.7818L9.56044 44.3197L9.44476 43.8576L8.63499 42.3559L8.28794 42.1249L7.59385 42.0093V41.7783L7.82522 41.5473L8.05658 41.4317L8.40362 41.2007L8.75067 40.8541L9.09771 40.5076L9.2134 40.3921L9.44476 39.93L9.7918 38.7748L10.1388 38.3127L10.4859 37.6196L10.6016 37.3886L10.4859 37.042H10.6016L10.3702 36.5799L10.2545 36.4644H9.90748L9.7918 36.2334L9.67612 36.0023L9.7918 35.6558M9.7918 35.6558V35.6558ZM9.7918 35.6558V35.5403L9.90748 35.4247L10.2545 35.3092M10.2545 35.3092V35.3092ZM10.2545 35.3092L10.4859 34.9627H10.2545L10.6016 34.5006L10.8329 34.3851L11.6427 34.0385L11.8741 33.923L12.1054 33.5764L12.4525 33.2299M12.4525 33.2299V33.2299ZM12.4525 33.2299L12.7995 32.9988H13.2623L13.6093 32.7678H13.8407H14.3034H14.6504L14.9975 32.6523L15.2288 32.4212L15.3445 32.1902L15.5759 31.6126V31.1505V30.804V30.5729L15.4602 29.9953L15.2288 29.7643L14.9975 29.4177L14.8818 29.3022L14.6504 29.0712L14.7661 28.7246L14.8818 28.3781V28.147L14.7661 28.0315M14.7661 28.0315V28.0315ZM14.7661 28.0315L14.5347 27.8005L14.4191 27.4539L14.072 27.2229L13.9563 26.8763L13.8407 26.2987L13.725 25.8366V25.7211L13.4936 25.4901L13.3779 25.3746L13.1466 25.1435L12.9152 24.6814L12.7995 24.5659L12.4525 24.4504L11.8741 24.1038L11.7584 23.7573L11.6427 23.6418L11.18 23.1797H10.8329L10.6016 23.0642L10.4859 22.9487L10.2545 22.6021L10.6016 21.2159M10.6016 21.2159V21.2159ZM10.6016 21.2159V21.4469L10.7173 21.5624L10.9486 21.2159L11.18 21.1003L11.4113 21.2159L11.18 21.7935L11.0643 21.909H11.18L11.4113 22.0245H11.527L11.8741 21.6779L11.9898 21.4469H12.2211H12.3368L12.4525 21.5624H12.5682L12.6838 21.4469L12.7995 21.3314L12.9152 21.4469L13.1466 21.3314H13.3779L13.4936 21.5624H13.725L13.8407 21.6779V21.7935H14.1877L14.4191 22.0245M14.4191 22.0245V22.0245ZM14.4191 22.0245L14.6504 21.7935H14.7661H15.2288L15.3445 22.0245L15.6916 22.14V22.2555H15.9229V22.14H16.1543L16.3857 22.2555L17.5425 22.6021L17.8895 22.7176L18.2366 22.8331V22.9487L18.4679 23.0642L18.9307 23.1797L19.2777 23.2952H19.5091L19.7404 23.1797L20.0875 22.9487L20.2032 22.6021L20.3188 22.4866V22.3711L20.6659 22.0245L20.7816 21.909L20.8972 21.6779V21.4469H21.0129L21.2443 21.2159L21.36 21.1003V20.9848L21.0129 21.6779L20.6659 22.2555L20.4345 22.8331L19.8561 24.3349V24.5659L19.7404 25.028L19.6247 25.7211L19.7404 25.9522V26.0677V26.2987L19.5091 26.4142H19.3934V26.1832L19.5091 25.9522V25.8366V25.6056L19.2777 26.0677L19.3934 26.2987H19.2777V26.5298H19.162H19.5091V26.6453H19.2777L19.0463 26.7608V26.8763L18.815 26.9918V27.3384L18.6993 27.4539L18.4679 27.5694V27.6849V27.916L18.2366 28.0315V28.4936L18.1209 28.8401L18.3522 28.7246L18.4679 28.8401L18.6993 28.9557L18.815 29.0712L19.162 28.9557V28.7246L19.0463 28.6091L19.2777 28.2625V28.147H19.5091V28.2625L19.6247 28.147H19.7404L19.8561 27.916H19.7404L19.8561 27.6849M19.8561 27.6849V27.6849ZM19.8561 27.6849V27.4539L19.9718 26.9918L20.2032 26.8763L20.3188 26.6453H20.2032L20.3188 26.2987V26.1832L20.4345 25.8366V25.4901V25.259H20.5502V25.1435V24.9125H20.6659V24.6814L20.7816 24.5659V24.4504L20.8972 24.2194V23.8728L20.7816 23.6418L20.8972 23.4107H21.1286L21.0129 23.2952L21.36 23.1797L21.4756 23.0642V22.8331H21.5913V22.6021H21.8227V22.4866H21.9384V22.3711V22.14H22.1697V21.909H22.2854L22.4011 21.6779H22.5168L22.6325 21.4469L22.7481 21.3314V21.4469L22.8638 21.2159L23.0952 21.1003V20.8693L23.2109 20.9848L23.3266 20.8693H23.4422V20.7538H23.5579L23.6736 20.6383V20.5228L23.7893 20.4072L23.905 20.2917H24.252L24.4834 20.0607L24.5991 19.9452H24.8304L24.9461 19.8296M24.9461 19.8296V19.8296ZM24.9461 19.8296L25.1775 19.5986H25.2931L25.5245 19.3676L25.6402 19.021L25.7559 18.9055L25.8715 18.79H25.9872L26.5656 18.0968L27.0284 17.7503L26.9127 17.6348L27.144 17.5193L27.2597 17.4037V17.2882L27.6068 17.0572L27.7225 16.9417V16.8261L27.8381 16.7106V16.5951H27.9538V16.4796H28.0695V16.2485H28.3009V16.133H28.6479M28.6479 16.133V16.133ZM28.6479 16.133L28.8793 16.0175H29.2263H29.342L29.8047 15.7865M29.8047 15.7865V15.7865ZM29.8047 15.7865L30.0361 16.0175V15.902L29.9204 15.7865L30.0361 15.6709L30.2675 15.4399L30.4988 15.6709H30.6145L30.8459 15.5554L31.3086 15.0933L31.4243 14.9778L31.6556 14.7468L31.7713 14.6313M31.7713 14.6313V14.6313ZM31.7713 14.6313L32.1184 14.4002L32.3497 14.2847L32.6968 14.0537H33.2752L33.3909 13.9382H33.5065L33.9693 13.8226H34.2006H34.5477V13.7071H34.8947H35.2418H35.5888L35.8202 13.8226H35.9359H36.0515H36.1672H36.2829L36.3986 13.9382L36.6299 13.8226L36.7456 13.9382L36.977 13.8226V13.7071L37.2083 13.8226L37.324 13.7071L37.9024 13.8226V13.7071L38.0181 13.5916L38.5965 13.3606M38.5965 13.3606V13.3606ZM38.5965 13.3606L38.9436 13.245L39.2906 13.014L39.4063 12.8985L39.6377 12.783M39.6377 12.783V12.783ZM39.6377 12.783L39.7533 12.6674L40.1004 12.4364L40.4474 12.0898L40.6788 11.8588H40.9102V11.7433L41.1415 11.5123L41.2572 11.2812H41.3729L41.6042 11.0502V10.9347H41.7199L41.9513 10.8191V10.5881L42.067 10.3571L42.1827 10.2415L42.067 10.0105L42.1827 9.89498V9.66394V9.43291L42.2983 9.31739L42.414 9.20187L42.5297 9.08635L42.8767 8.85531H43.1081L43.2238 8.73979L43.4552 8.62427V8.50875L43.6865 8.39323V8.27771L43.8022 8.16219H43.9179L43.8022 7.93115L43.9179 7.70012V7.35356L44.0336 7.12252M44.0336 7.12252V7.12252ZM44.0336 7.12252L44.1492 6.89148V6.54492L44.2649 6.4294L44.3806 6.19837L44.4963 5.96733L44.7277 5.85181L45.0747 5.50525V5.38973H45.1904L45.6531 5.27421V5.04317V4.92765H46.0002V4.81214L46.2315 4.69662L46.3472 4.46558V4.23454L46.4629 4.11902L46.5786 3.88798V3.65694L46.4629 3.54142L46.2315 3.07935H46.1158M46.1158 3.07935V3.07935ZM46.1158 3.07935L46.2315 2.61727L46.3472 2.73279L46.4629 2.38623H46.6942L46.8099 2.27071L47.2726 2.15519H47.504L47.6197 2.27071H47.8511M47.8511 2.27071V2.27071ZM47.8511 2.27071L47.9667 2.03967H48.1981L48.4295 2.15519H48.6608L48.7765 2.03967H49.0079H49.1236H49.2392L49.4706 1.92415L49.8176 1.80863L50.049 1.5776L50.3961 1.34656V1.23104L50.5117 1.11552L50.6274 1L51.0901 1.11552V1L52.0156 1.23104L53.4038 1.46208H53.9822L55.6017 1.80863H56.0645L56.8742 1.92415H57.2213L57.4526 2.03967L59.4192 2.27071L59.8819 2.38623L60.9231 2.61727L61.7329 2.73279H62.4269L63.6994 2.96383L64.7406 3.07935L65.4347 3.19487L67.1699 3.4259H68.6738L69.1365 3.54142L69.3678 3.65694L70.0619 3.54142L71.2187 3.77246L71.5658 3.88798H72.2599L73.0697 4.0035L74.2265 4.23454L76.1931 4.46558L76.7715 4.5811L77.5812 4.69662L78.6224 4.81214L79.5478 4.92765L80.1262 5.15869L81.1674 5.27421L81.8615 5.38973H82.6712H83.3653L83.7124 5.50525L84.4064 5.62077H84.9849L85.9103 5.85181L87.6455 6.08285M87.6455 6.08285V6.08285ZM87.6455 6.08285H87.8769L88.6867 6.19837H89.2651L90.4219 6.66044L91.3473 6.89148L92.0414 7.007H92.7355L94.5864 7.23804L96.3217 7.70012L97.0157 7.93115H97.3628L100.602 8.39323L100.833 8.50875H101.99L102.684 8.85531L104.304 8.73979L105.345 8.85531L105.576 8.97083H105.808L107.774 9.08635L109.278 9.66394L109.856 9.77946H110.088L110.55 10.0105L110.898 10.3571L111.129 10.5881H111.245L112.401 10.0105L113.095 9.89498H114.484H115.409H115.64L117.029 10.126L117.491 10.2415H118.88H119.227L120.036 10.4726L121.54 10.7036L123.391 11.0502L124.895 11.3967H125.358L126.283 11.2812H127.093L127.324 11.3967L127.787 11.5123H128.134H128.828L129.407 11.6278L129.522 11.5123L129.869 11.6278L130.448 11.7433L130.795 11.6278H131.026L131.836 11.7433L132.761 11.8588L133.34 11.7433H134.381H134.612L135.075 12.0898H135.769H137.157L138.661 12.2054L139.471 12.4364L140.396 12.6674L140.975 12.783L141.437 12.8985H142.479H142.71L144.214 13.1295L144.792 13.014H145.371L146.643 13.245L148.494 13.5916H148.61L149.072 13.8226L149.535 14.0537L150.229 14.2847L151.27 14.1692H152.543L153.815 14.4002L154.278 14.5158L154.625 14.7468L155.666 14.9778L157.286 15.2089L158.211 15.3244L159.484 14.8623L160.409 14.7468L160.756 14.8623L161.913 15.2089H162.26L162.839 15.0933L163.88 15.2089L164.342 14.9778H165.268H165.962L166.425 15.0933L167.003 15.4399L168.507 15.6709L169.895 15.5554L170.127 15.6709L170.821 16.5951L171.862 16.4796L172.44 16.3641L173.019 16.2485L174.522 15.902H175.448L176.836 15.6709H177.067L177.762 15.7865H178.224H178.687V16.0175L179.15 16.133H179.959L180.191 15.6709H180.538H181.81L183.43 15.5554H184.008L184.702 15.4399L185.049 15.5554H185.512H187.71L188.983 15.4399L192.337 15.2089L192.916 15.0933H194.535L196.502 14.9778H197.543H198.7H199.163H200.435L204.715 14.7468L205.062 14.6313L206.913 14.7468H208.649L209.227 14.8623L210.037 14.6313L212.119 14.4002H215.242H215.936L218.481 14.1692L221.489 14.2847H222.646L223.571 14.1692H224.266L224.497 14.2847L224.728 14.0537H225.191L226.463 13.7071L227.967 13.4761L228.199 13.8226H228.43L228.661 13.7071H228.893L229.24 13.8226H230.397H230.628L233.173 13.7071L234.793 13.8226V13.4761L235.024 13.3606H235.487L235.602 13.4761L236.991 13.3606L237.106 13.4761L237.338 13.3606H239.42L239.998 13.1295H240.924L242.312 12.783L243.237 13.1295L243.469 13.014L244.163 12.783H245.32H246.245H246.476L247.402 12.6674L250.063 12.783L252.26 12.3209L252.376 12.4364L253.302 12.2054L254.805 12.0898L255.037 12.2054L256.541 11.9743L258.392 12.2054L259.78 11.9743L260.127 11.8588L260.243 11.6278L261.284 11.3967H261.862L262.093 11.2812L262.903 11.1657H263.366L263.829 11.2812H264.407L265.333 11.1657H265.795H266.836L268.919 10.9347H269.381L269.613 11.3967L269.844 11.9743L270.075 12.4364L270.422 12.783L270.307 13.1295L270.191 13.8226L269.728 13.9382L268.687 14.7468L268.225 15.4399L268.919 15.3244V15.4399L269.034 15.6709H269.15V15.5554L269.266 15.6709L269.381 15.5554L269.497 15.6709L269.613 15.7865V15.902L269.381 16.0175L269.15 17.5193H268.919V17.7503L268.803 18.2124L269.034 18.3279V18.6744H269.15L269.266 18.9055L268.456 19.7141L268.34 19.5986L267.646 20.1762L267.415 19.8296L267.183 19.5986L266.721 19.252L266.374 19.1365L266.027 20.0607L264.754 20.8693L262.903 21.4469L262.672 21.7935L262.556 21.6779L262.209 22.0245H262.093L261.862 21.7935L261.631 21.6779H261.399L261.168 21.5624L260.821 21.4469H260.59L260.474 21.3314H260.358L260.243 21.2159H260.011V21.1003L259.895 20.9848L259.086 20.7538L258.623 20.4072L258.392 20.6383L258.276 20.7538V20.9848L258.045 21.2159L257.929 21.4469L257.813 21.5624L257.698 21.7935L257.582 22.0245L257.466 22.2555L257.35 22.4866L257.119 22.8331L256.772 23.1797L256.541 23.4107L256.425 23.5263V23.6418L256.194 23.8728H256.078H255.731L254.69 23.5263L253.88 23.2952L253.533 23.0642L253.88 24.1038H253.07L252.608 24.9125L252.839 25.1435L252.376 25.4901L252.26 25.1435L251.798 25.259L251.913 25.028L250.41 25.259L250.294 25.3746L250.178 26.6453L250.063 27.1074V27.5694V27.8005L249.831 27.6849L249.368 28.147L249.137 28.2625V28.4936L249.253 28.7246V28.9557L249.368 29.0712V29.1867L249.253 29.3022H249.021L248.906 29.1867L248.79 28.8401L248.559 29.0712L248.443 29.1867H248.327L247.749 29.5333L247.518 29.6488L247.633 29.8798L247.865 30.1109L247.633 30.2264V30.3419L247.402 30.4574L247.171 30.5729L246.823 30.4574V30.804V31.035L246.592 31.1505L246.361 31.266L246.476 31.4971H246.708H246.823L246.939 31.6126V31.8436L247.171 32.1902H247.286L248.327 32.3057V32.4212V32.6523H248.443L248.559 32.5368H248.79L248.674 32.6523V32.8833L248.79 32.9988H248.212L248.096 33.1144L248.327 33.923L248.559 34.5006L248.906 34.6161H249.021L249.137 34.9627L249.368 35.4247V36.0023V36.2334H249.947V36.4644H250.063L250.41 36.3489L250.525 36.4644L250.757 36.3489V36.5799M250.757 36.5799V36.5799ZM250.757 36.5799L250.641 36.9265L250.525 37.042H250.757L250.641 37.273L250.872 37.9662L251.335 37.8506L251.451 38.0817V38.3127L251.335 38.4282L251.451 39.2369L252.029 39.1214L252.376 39.0058M252.376 39.0058V39.0058ZM252.376 39.0058L252.839 38.8903L253.417 38.7748H253.88L253.996 38.6593L253.764 38.4282V38.0817H253.88L254.69 37.6196L254.805 37.9662V38.3127L254.921 38.7748L255.5 39.3524L255.615 39.8145L255.847 40.5076L255.962 40.7386L256.078 40.9697L256.194 41.2007L256.309 41.4317L256.656 41.7783L256.772 42.0093V42.2404L256.888 42.3559H257.003L257.235 42.5869H257.466L257.698 42.818L258.045 42.9335V43.049V43.28V43.6266V43.8576V44.3197M258.045 44.3197V44.3197ZM258.045 44.3197L257.929 44.5508V44.7818L257.698 44.8973L257.582 44.7818L257.235 44.8973L257.119 45.1284V45.3594L257.003 45.5904H256.888H256.772L256.541 45.706H256.194L255.731 46.0525L255.615 46.168L255.731 47.2077L255.615 47.3232L255.5 47.5543V47.9008L255.153 48.1319V48.3629V48.4784L255.268 49.056V49.1715V49.4026H255.384V49.7491V49.8646L255.731 49.9802L256.078 50.0957H256.309H256.656L256.888 50.2112L257.003 50.4422H257.235H257.466L257.698 50.6733L258.045 50.9043L258.392 51.2509L258.623 51.4819L258.854 51.5974L259.086 51.8285L259.433 51.944L259.664 52.175L259.78 52.2905L260.127 52.5216H260.243L260.358 52.6371L260.474 52.7526L260.59 53.0992L260.474 53.3302L260.59 53.4457V53.6768V53.7923V54.0233L260.705 54.2544L260.821 54.832L261.052 55.1785L261.168 55.7561L261.399 55.8716H261.515L261.746 55.9872L261.978 56.3337V56.6803V56.7958L262.209 57.0268V57.2579V57.6044L262.325 58.0665M262.325 58.0665V58.0665ZM262.325 58.0665V58.2975L262.209 58.5286V58.7596V58.9907V59.2217L262.44 59.6838L262.672 59.9148H262.903V60.1459L263.019 60.2614L263.25 60.3769L263.366 60.4924V60.7235V61.07H263.482L263.597 61.4166L263.713 61.5321V61.7631L263.944 61.8786H264.06L264.176 61.9942L264.291 62.2252H264.407H264.638H264.754V62.4562L265.101 62.6873H265.333L265.68 62.8028L265.795 62.9183L266.374 63.3804L266.489 63.6114V63.8425L266.836 64.0735L266.952 64.189L267.068 64.4201L267.415 64.8821L267.53 64.9977L267.993 65.4597L268.109 65.8063L268.456 65.9218L268.687 66.3839V66.7305V66.846L268.456 67.4236L268.225 67.7701V67.8856V68.1167V68.3477L268.572 68.5788L268.456 68.9253L268.225 69.1564V69.2719L268.34 69.6184V69.8495H268.572L268.687 69.965L268.572 70.196V70.5426L268.919 70.8891V71.0047L268.687 71.4667V72.0443L268.572 72.2754L268.456 72.7375V73.084L268.225 73.4306L267.878 73.6616L267.53 73.8926L267.415 74.1237L267.183 74.4702H267.068L266.952 74.7013V75.0478L266.721 75.3944L266.374 75.741H266.258L266.027 75.972L265.564 76.203V76.3185L265.217 76.4341L265.101 76.6651L264.985 76.7806L264.754 76.8961L264.638 77.1272L264.523 77.3582L264.638 77.5893V77.8203V77.9358L264.523 78.0513L264.407 78.3979L264.523 78.5134L264.407 78.6289L264.523 78.9755L264.407 79.3221L264.523 79.6686L264.407 79.7841L264.523 80.2462M264.523 80.2462V80.2462ZM264.523 80.2462V80.8238V81.0548L264.291 81.1704L264.407 81.2859V81.5169L264.06 81.8635V81.979V82.21L263.829 82.5566V82.7876L263.713 82.9031L263.597 83.2497L263.482 83.4807L263.366 83.5963L263.25 84.1739L263.135 84.2894L262.903 84.9825V85.2135L262.672 85.5601L262.44 85.9066L262.209 86.0222L261.746 86.3687L261.168 86.5998M261.168 86.5998V86.5998ZM261.168 86.5998L260.937 86.4842H260.821H260.474L260.358 86.5998L260.127 86.7153L259.895 86.8308H259.664L259.317 87.1774L259.086 87.4084L258.623 87.5239L258.392 87.6394H258.276L258.16 87.4084L258.392 87.1774L258.276 86.8308L258.045 86.5998H257.929H257.813H257.466V86.4842L257.119 87.0618V87.2929V87.4084L257.235 87.6394V87.755L257.119 87.8705L257.003 87.986V88.217L257.235 88.4481L257.119 88.5636L256.888 88.9101V89.1412M256.888 89.1412V89.1412ZM256.888 89.1412L256.541 89.6033L256.425 89.8343L256.309 90.4119L256.194 90.6429V91.2205L255.847 91.4516L255.5 91.336H255.153L255.037 91.2205L254.227 90.2964V89.3722L252.723 90.874H252.839L250.757 92.3757L249.021 93.6464L249.137 93.762L249.021 93.8775L248.79 93.993H248.327L247.633 93.6464L247.402 93.5309H246.476L246.014 93.6464M246.014 93.6464V93.6464ZM246.014 93.6464H245.667L245.782 93.8775H246.014V93.993H246.129V94.224L246.245 94.4551V94.5706L246.014 94.3396H245.898L245.551 94.5706L245.435 94.8016L245.551 95.1482H245.782V95.3792V95.4947L245.667 95.7258V95.8413L245.782 96.0723M245.782 96.0723V96.0723ZM245.782 96.0723L245.898 96.1879L245.782 96.5344M245.782 96.5344V96.5344ZM245.782 96.5344L245.551 96.7655L245.667 97.112L245.782 97.2275L245.667 97.4586L245.782 97.5741L246.245 98.0362L246.014 98.1517L245.782 98.0362H245.667L245.088 97.9207M245.088 97.9207V97.9207ZM245.088 97.9207L244.626 98.1517H244.394V98.0362L244.163 97.9207H243.7L243.584 97.8051L243.469 97.5741H243.816L243.931 96.9965L243.7 96.881V96.7655L243.469 96.6499H243.353L243.469 96.5344L243.353 96.3034L243.122 96.5344L242.775 96.0723L242.428 95.8413L242.08 96.0723H241.965L241.733 96.3034V96.5344L241.502 96.7655V96.881L241.155 97.2275L240.924 97.4586L240.692 97.5741H240.577L240.461 97.4586L239.998 97.6896L239.651 98.0362L237.916 99.0758L237.8 98.9603L237.569 99.1914L237.453 99.4224L237.222 99.5379V99.769L236.991 99.8845L237.222 100.116L236.181 101.155L235.371 101.964L235.14 101.733L233.867 102.541L233.289 102.888H233.173L232.248 103.004L232.016 103.235L231.785 103.581L231.322 104.621L230.281 105.314L229.587 105.891L229.124 106.238L228.893 106.354L228.777 106.585L228.43 106.816L228.546 106.931L228.199 107.509L228.083 107.624L227.852 107.855L227.273 108.202L226.695 108.664L226.348 109.126L226.001 109.704L225.654 110.05L225.538 110.166L225.191 110.397L224.497 110.859L224.15 111.09L223.687 111.205L223.224 111.436L223.109 111.552L222.877 111.667L222.415 112.014L222.299 112.13L221.721 112.476L221.605 112.592L221.373 112.707L220.795 113.054L220.332 113.285L219.638 113.631L219.523 113.862L219.176 113.978L218.829 114.093L218.366 114.209L218.134 114.093H218.019L217.672 113.862L217.44 113.747L216.978 113.862H216.862L216.284 114.44H216.052L215.705 114.555L215.589 114.786H215.358L215.127 115.133M215.127 115.133V115.133ZM215.127 115.133V115.48V115.595L214.895 115.942V116.288M214.895 116.288V116.288ZM214.895 116.288L214.664 116.519L214.433 116.866V117.212L214.086 117.905H213.97L213.739 118.252V118.368L213.623 118.599L213.16 118.714M213.16 118.714V118.714ZM213.16 118.714L212.929 118.599L212.813 118.368L212.582 118.021V117.79L212.466 117.559V117.212L212.235 116.866L212.119 116.519L212.003 116.404L211.425 116.173L211.309 116.057L211.078 115.826L210.846 115.595L210.615 115.48L210.384 115.826H210.152L210.037 115.942H209.921L209.805 116.057L209.69 116.288L209.458 116.404H208.88L208.649 116.635L208.417 116.75L208.186 116.866L207.954 117.097L207.145 116.981L206.682 116.866H206.566L205.988 117.097L205.756 117.212L205.641 117.328V117.674L205.525 117.79L205.062 118.252L204.6 118.599L204.253 119.061L204.137 119.523L204.253 119.869L204.368 119.985L204.253 120.331L203.906 121.025V121.371L203.443 122.295L202.749 122.988H202.633L202.17 122.873L201.823 122.988L201.476 123.219H201.014H200.666L200.319 123.104L199.741 122.988L198.816 122.642L198.237 122.295L198.006 122.064L196.965 121.256L196.039 120.793L195.345 120.562L194.998 120.447H194.651L193.957 120.331H193.263L192.569 119.985L192.106 119.754L191.643 119.638H191.296L190.487 119.523H190.371L189.445 119.292L189.098 119.176L188.404 119.061L187.942 119.292L186.9 119.869L186.553 120.1L185.628 120.562H185.049H183.083L182.389 120.447H181.926L181.579 120.562L181.232 120.678H180.191H180.075L179.612 120.562L178.456 120.909L177.993 121.025L177.183 121.14L176.373 121.025H176.142L174.522 121.487L174.291 121.602H173.944L173.597 121.718L171.63 122.295L170.705 122.526L170.474 122.642L169.895 122.757L169.779 122.873L170.127 123.104V123.335L170.242 123.566L170.474 124.028L170.589 124.375L170.705 124.49L170.821 124.606V124.837L170.358 124.721L170.242 124.606M170.242 124.606V124.606ZM170.242 124.606L170.127 124.49L170.011 124.606L169.432 124.375H169.317M169.317 124.375V124.375ZM169.317 124.375L169.432 124.49V124.721L169.664 124.952L169.779 124.837H169.895L170.011 124.952L169.895 125.068V125.299L170.011 125.183L170.242 125.53H170.589L170.821 125.645V125.761L170.705 125.876L170.589 125.992V125.876L170.127 125.761L170.011 125.645V125.761L170.242 126.107H170.011L170.242 126.338L170.127 126.454L169.895 126.107L169.779 126.223V126.338H169.317L169.432 126.454L169.085 126.685L169.201 126.916L168.276 127.147L168.16 127.263L167.582 127.147L167.466 127.263H167.35L167.119 127.147L167.234 127.031H167.35L167.466 126.916L166.54 126.685L166.309 127.031H166.193L166.078 127.263H165.962L165.846 127.494M165.846 127.494V127.494ZM165.846 127.494L165.731 127.609V127.84H165.615L165.152 127.956H165.037L164.689 127.84H164.574L164.458 127.956H164.342L164.111 128.071V128.187V128.302L163.995 128.418L163.88 128.764L163.648 128.533V128.649L163.07 128.071L162.954 128.302H162.839L162.26 128.187L162.145 128.071L162.029 127.956L160.988 127.609L160.756 127.725L160.641 127.609L160.525 127.494L160.294 127.609L160.062 127.956L160.178 128.187L159.831 128.418V128.649L159.715 128.764L159.831 128.995V129.111L159.6 128.995L159.831 129.342L159.715 129.457L159.6 129.342L159.484 129.457L159.368 129.111H159.252V128.995L159.021 128.88V128.764V128.533L159.137 128.418V128.302L159.252 127.956L159.6 127.84L159.484 127.725M159.484 127.725V127.725ZM159.484 127.725L159.368 127.609V127.494L159.137 127.378L159.021 127.494L158.905 127.378M158.905 127.378V127.378ZM158.905 127.378L158.79 127.263L157.98 127.378L156.476 128.071L155.666 128.533L155.319 128.88L154.278 129.457L153.584 129.919L153.121 130.151L152.774 130.613L152.543 130.728L152.08 130.959H151.849L151.617 131.075L151.27 131.19L151.039 131.306L150.576 131.652L149.882 132.23L149.42 132.576L148.494 133.27L148.61 133.616L148.494 134.078L148.147 134.771L147.684 135.002L147.569 135.118L147.222 135.233L146.99 135.695L146.527 136.042L146.065 136.273L145.833 136.389L144.908 136.62L144.561 136.851L144.214 137.082L144.098 137.428L143.404 137.89L142.247 138.468L142.132 138.583L141.9 138.468V138.352L141.669 138.121L140.975 137.428L140.859 136.966L140.628 136.735L140.512 136.62L140.396 136.504L140.281 136.389L139.934 136.273H139.818L139.587 136.042H139.471L139.008 135.926H138.892H138.661L138.198 135.811V135.695L138.083 135.233H137.967H137.736L137.389 135.002L137.504 135.233L137.042 135.695L136.926 135.811L136.81 135.926L136.232 136.389L136.348 136.042L136.116 136.158L136 136.273L135.769 136.389L135.885 136.158H135.769L135.653 136.389L135.538 136.504L135.422 136.62L135.191 136.389L135.306 136.042H134.265L134.497 135.695M134.497 135.695V135.695ZM134.497 135.695L133.918 135.464H133.455L133.224 135.58L133.34 135.695H133.224V136.158M133.224 136.158V136.158ZM133.224 136.158V136.273L133.108 136.389L132.877 136.273H132.53L132.183 136.389L132.53 136.504V136.62L132.183 136.735V136.851H131.952L131.836 137.082L131.952 137.197H131.72L131.489 137.544L131.605 137.89L131.72 138.006V138.121L132.067 138.237L132.183 138.352L132.414 138.468L132.183 139.046L132.299 139.161L132.067 139.623H132.183H132.299L132.993 139.739L132.877 139.97V140.316L132.414 140.201L132.299 140.316L132.414 140.547L132.299 140.778L131.952 140.663L132.067 140.085L131.489 140.201H131.373L131.489 140.547H131.373V140.778H131.258L131.373 141.009L131.258 141.125L131.373 141.356L131.258 141.471V141.587L130.91 141.471L130.679 141.24L130.332 141.009L130.448 140.894L130.101 140.778L130.216 140.663L129.869 140.432L129.754 140.547L129.175 140.432L129.291 140.201H129.06H128.828L128.713 140.894L128.828 141.24L128.713 141.471L128.25 142.28M128.25 142.28V142.28ZM128.25 142.28H128.018L127.903 142.396L127.787 142.28L127.671 142.627L127.44 142.396L127.324 142.511L127.44 142.858L127.556 143.089V143.204L127.324 142.973V143.204L127.209 143.435L127.324 143.666H127.093H126.977L126.862 143.435L126.63 143.32V143.204L126.399 142.973L126.283 142.858L126.168 142.742H125.936L125.705 142.396L125.473 142.28L125.358 142.165L125.126 142.28L124.895 142.165H124.779L124.548 142.049H124.201H124.085L123.854 141.818H123.623L123.391 142.049H123.275V141.933L123.044 141.702M123.044 141.702V141.702ZM123.044 141.702L122.813 141.471H122.697L122.466 141.587V141.702L122.234 141.587L122.119 141.471V141.356L122.003 141.24H121.772L121.656 141.356H121.54H121.309L121.078 141.24V141.009L120.962 140.894H120.73L120.615 141.009H120.383L120.268 141.125H120.036L119.805 140.894L119.689 140.778L119.574 140.663L119.342 140.547L119.111 140.894V141.125L119.342 141.24L119.574 141.471L119.689 141.818L119.458 141.933L119.227 142.165H118.88H118.648L118.533 142.049H118.301L118.07 141.933H117.954L117.723 141.818V141.702L117.607 141.356L117.376 141.24L117.144 141.587L117.26 142.742H117.029H116.566L115.64 142.396V142.858L115.756 143.782L115.64 144.128H115.525V144.244H115.293V144.359L115.062 145.168L114.484 146.323V146.439L114.368 146.554L113.79 146.901L113.674 147.016V147.132L113.558 147.363V147.594V147.825L113.443 148.056L113.095 148.518V148.634L109.741 148.518L109.625 148.634V148.865L109.741 148.98L109.856 149.211L109.625 149.442L109.741 149.558M109.741 149.558V149.558ZM109.741 149.558L109.856 149.673V149.789H109.741L109.625 149.904L109.741 150.02H109.509V150.251L108.931 150.366L108.7 150.597L108.468 150.828H108.237L107.89 150.944H107.543V150.597L107.427 150.135L107.311 150.02H107.08L106.502 150.828L106.039 151.753L105.576 151.984L104.766 151.637L104.998 151.406L103.841 151.059L103.725 151.522L104.188 151.637L103.378 152.215L102.106 151.406V151.175V150.944V150.713L101.412 150.828H101.18H100.371H99.7921H99.5607L99.4451 150.597L99.2137 150.482L98.8667 150.02L98.6353 149.904L98.9823 149.673L98.5196 149.211L98.1726 149.673L97.1314 150.828L95.9746 152.33L95.8589 152.215L95.6276 152.33L95.0492 153.254L95.2805 153.485L95.0492 153.832L94.8178 154.179L94.5864 154.41L94.2394 155.334L94.008 155.565L93.7767 155.796L93.4296 155.911L92.9669 156.258V156.373V156.72L92.6198 157.067L92.5042 157.76H92.0414L91.463 158.106L90.5376 158.684L89.9592 159.03L89.4964 159.146L89.1494 159.492L88.918 159.723L88.8024 159.839H89.0337L89.8435 160.07M89.8435 160.07V160.07ZM89.8435 160.07L90.1905 160.186H90.5376L90.6533 160.301H90.8846L91.116 160.417H91.3473L91.116 160.648L90.8846 160.532L90.7689 160.763L90.8846 160.879L90.7689 161.11L90.8846 161.456L89.7278 161.572H89.4964L89.3808 161.687H89.1494H88.8024L88.4553 161.918H88.2239L87.7612 162.149L87.2985 162.265V162.034L86.7201 162.265H86.6044H86.4887L86.373 162.38H86.1417L85.9103 162.149H85.7946L85.5633 162.265L85.4476 162.034H85.2162L85.1005 161.918L84.5221 162.265L83.828 162.149L83.5967 162.034L83.2496 161.803L83.0183 161.687L82.5555 161.572L82.3242 161.341H82.0928L81.8615 161.225L81.283 160.994L80.7046 160.879L80.2419 160.994H80.0106L79.4321 160.879L79.2008 160.763H78.8537L78.2753 160.648L77.5812 160.532L77.1185 160.417H77.0028L76.8871 160.879L77.0028 161.11L76.7715 161.341L76.5401 161.572L76.3087 161.803L76.1931 161.918L75.9617 162.034V161.918L75.499 162.149H75.2676L74.8049 162.034V161.918L74.2265 161.456L74.1108 160.763L73.8794 160.301L73.7637 159.954L73.6481 159.608L73.0697 159.492L72.7226 159.261L72.6069 158.915L70.6403 159.146L70.5247 159.492L70.6403 159.839L70.5247 160.186H69.8306H69.0208V160.301L68.9051 160.417H68.7894L68.4424 160.301L68.3267 160.186L67.9797 160.07L67.864 159.954H67.7483L67.6326 160.532V160.648L67.4013 161.341L67.2856 161.572H67.0542M67.0542 161.572V161.572ZM67.0542 161.572L66.8228 161.687L66.7072 161.456L66.3601 160.648L66.1288 160.763M66.1288 160.763V160.763ZM66.1288 160.763L65.7817 160.994L65.0876 161.225L64.8563 161.341H64.6249V161.456L64.3935 161.572L63.8151 161.687H63.5838L63.4681 161.803H63.3524L63.2367 161.572L63.121 161.456L63.0053 161.341L62.6583 161.456L62.5426 161.341L62.4269 161.11H62.3113L62.1956 160.879L62.0799 160.648L61.8485 160.417L61.6172 159.839L61.0388 159.492L60.576 159.146L59.5349 158.915L59.6506 158.453L58.6094 157.875L58.1467 157.76L58.4938 156.373H58.6094L58.9565 156.027L58.7251 155.911L58.8408 155.796L58.9565 154.179H58.6094V153.601L57.337 153.832V153.716L57.1056 153.37L56.6429 153.716L56.4115 153.947L56.2958 154.294L56.4115 154.525L56.2958 154.641H56.0645L55.7174 154.756H55.486V154.872L55.6017 155.103V155.218H55.486L55.2547 155.103L55.139 155.218H55.0233L54.9076 155.334H54.792L53.7508 155.911L53.4038 156.373L52.1313 158.222L53.1724 159.492L53.2881 161.11V161.687V162.149M53.2881 162.149V162.149ZM53.2881 162.149L50.5117 161.11L48.6608 160.417L47.6197 160.763L47.504 160.879L46.8099 158.568L46.6942 157.644L46.3472 157.413V157.298H46.4629L46.5786 156.951L46.6942 156.835L46.4629 156.72L46.3472 156.835L46.2315 156.72V156.604H46.1158L46.0002 156.373L46.2315 156.258L46.1158 156.142L46.2315 155.911H46.3472V155.68L46.1158 155.334L46.0002 155.218L45.8845 154.756L45.6531 154.525L45.7688 154.41L45.8845 154.525H46.0002L46.1158 154.294H46.2315V154.063L46.3472 153.832V153.601L46.5786 153.485L46.6942 153.601H46.8099V153.37H46.6942V153.139L46.5786 153.023V152.908L46.3472 152.792V152.677L46.2315 152.446L46.1158 152.33L46.0002 151.984M46.0002 151.984V151.984ZM46.0002 151.984V151.753L46.1158 151.522H46.0002L45.7688 151.637L45.6531 151.406H45.4217L45.1904 151.291H45.0747L44.8433 151.059H44.7277H44.612L44.3806 151.175H44.1492V151.059L44.0336 150.828L43.6865 150.713L43.4552 150.828H43.2238V150.597L42.9924 150.482L42.8767 150.713H42.7611L42.6454 150.828L42.5297 150.944H42.2983L42.1827 150.828L42.2983 150.597H42.1827L42.2983 148.634V148.518L42.1827 148.287L42.067 148.403H41.8356H41.7199L41.9513 148.172H41.8356V148.056H41.6042L41.7199 147.825H41.8356L42.2983 147.594M42.2983 147.594V147.594ZM42.2983 147.594L42.5297 147.132H42.6454L42.7611 147.016L43.2238 146.785L43.4552 146.554L43.8022 145.977L43.9179 145.861L44.2649 146.092L44.959 146.439H45.1904V146.323L45.0747 145.861L44.959 145.977H44.8433L44.7277 145.746V145.63L44.3806 145.284L44.2649 145.053V144.706H44.3806V144.821H44.612M44.612 144.821V144.821ZM44.612 144.821L44.8433 144.706L44.7277 144.59L44.4963 144.359L44.1492 144.244L44.0336 144.128H43.8022L44.0336 143.32L44.1492 142.973L44.2649 142.627V142.511L43.9179 142.396H43.8022L43.5708 142.28L43.2238 142.165H43.1081L42.8767 142.049L42.5297 141.933V142.049L42.1827 141.933L42.067 142.165L41.8356 142.28L41.9513 141.933L41.8356 141.818L42.1827 141.702V141.125L42.067 141.24M42.067 141.24V141.24ZM42.067 141.24V140.663V140.316V139.854L42.1827 139.508V139.277V138.93V138.352L41.8356 138.237H41.3729L40.9102 138.121L40.3318 137.89L39.869 137.659H39.7533L39.522 137.544L39.2906 137.659L39.0593 137.544L38.9436 137.428L38.7122 137.313L38.2495 137.428L37.6711 137.659L36.5143 138.006L36.3986 137.544L36.1672 137.659L35.7045 137.89L35.3574 138.121V138.583L34.779 138.814L33.7379 138.93H32.9281H32.4654H30.9615L30.6145 139.046H30.2675H29.8047L29.689 138.814L29.8047 138.583H29.9204V138.468M29.9204 138.468V138.468ZM29.9204 138.468V138.237L29.8047 138.352V138.121L29.689 137.89H29.9204L29.8047 137.775L29.9204 137.659L29.8047 137.544H29.9204L30.0361 137.428L30.1518 137.197M30.1518 137.197V137.197ZM30.1518 137.197L30.0361 137.313H29.9204L30.2675 136.851L30.3831 136.735V136.504L30.2675 136.389L30.3831 136.273V136.158H30.2675V136.273V136.504L30.1518 136.158V136.042H30.0361V135.811L29.8047 135.695L29.9204 135.58L30.0361 135.464H29.8047L29.689 135.58V135.349V135.118V134.656V134.309L29.8047 134.194L29.689 134.078H29.2263H28.995L28.8793 134.309L28.6479 134.54L28.1852 134.887V135.002L27.9538 135.118L27.4911 135.233L27.2597 135.349H26.9127L26.797 135.118L26.9127 134.771L27.0284 134.54V134.425H26.9127V134.194L27.0284 134.078L26.9127 133.963H26.6813L26.5656 134.194L26.3343 133.963L26.1029 134.194H25.9872L25.7559 134.309V134.771H25.6402L25.5245 135.002L25.4088 135.118L25.1775 135.464L25.0618 135.349L24.9461 135.464L24.3677 135.349L24.1363 135.464L24.0206 135.58H23.6736L23.4422 135.695L23.3266 135.58L23.0952 135.464H22.9795L23.0952 135.233L23.3266 135.002V134.887L23.5579 134.656L23.6736 134.425L23.905 133.963L24.1363 133.616H24.252H24.3677L24.4834 133.501L23.0952 133.27L22.4011 133.154L22.2854 133.039L22.1697 132.692L22.0541 132.461V132.345L21.9384 132.23V131.999L21.707 131.883L21.5913 131.768V131.652L21.8227 131.537H21.707L21.5913 131.421H21.36L21.0129 131.652H20.8972L20.7816 131.421V131.075L20.5502 131.19V131.421V131.652L20.7816 131.768V131.999H20.5502L20.4345 131.883L20.2032 131.652V131.537L20.4345 131.421L20.3188 131.19L20.2032 130.959L20.3188 130.728L20.2032 130.613L20.0875 130.035H19.9718L19.8561 129.919L19.6247 129.688V129.573L19.7404 129.342H19.6247L19.5091 129.111L19.0463 128.995L18.6993 128.88L18.5836 128.995L18.4679 129.111M18.4679 129.111V129.111ZM18.4679 129.111L18.2366 129.226L18.0052 129.457H17.6582L17.5425 129.342V129.573H17.0797L16.9641 129.457H16.8484L16.617 129.573L16.1543 129.688L16.0386 129.804L15.8072 129.919L15.5759 129.804M15.5759 129.804V129.804ZM15.5759 129.804L15.4602 129.573L15.3445 129.457L15.2288 129.342L15.1132 129.226L14.7661 129.111H14.4191H14.1877V129.688L13.3779 130.035L13.1466 130.613L13.2623 130.497L13.4936 130.151H13.725L13.9563 130.266L14.072 130.497L13.9563 130.613L13.8407 130.728L13.6093 130.844L13.725 131.075L13.6093 131.19L13.3779 131.075L13.0309 131.768L13.1466 131.999V132.114L13.0309 132.345V132.114L12.9152 131.999V131.883L12.7995 131.768V131.652H12.6838L11.8741 131.19L11.527 131.075H11.18L10.9486 130.959H10.7173L10.6016 130.728L10.4859 130.497L10.3702 130.151L10.1388 129.804H9.90748L9.7918 129.342L9.56044 129.111L8.86635 128.88L8.63499 128.649L9.09771 128.533L8.86635 128.418L8.75067 128.302V128.187V127.84L8.86635 127.956L9.2134 128.418L9.44476 128.187H9.56044L10.0232 127.725L10.2545 127.031L10.3702 126.569L9.67612 126.223L9.44476 125.414H9.32908M9.32908 125.414V125.414ZM9.32908 125.414L9.44476 125.299V125.183L9.56044 125.068H9.67612L9.44476 124.028L9.7918 123.681L9.56044 123.219V123.45H9.32908V123.566H9.09771L9.2134 123.681H9.09771L8.98203 123.912L8.75067 124.028H8.51931L8.40362 123.912L8.28794 124.028L8.17226 123.797M8.17226 123.797V123.797ZM8.17226 123.797V123.566L8.28794 123.45L8.17226 123.219L8.28794 123.104V122.988L8.51931 122.873V122.757M8.51931 122.757V122.757ZM8.51931 122.757V122.642L8.75067 122.411L8.98203 122.18L8.86635 121.949M8.86635 121.949V121.949ZM8.86635 121.949L8.75067 121.718V121.602L8.63499 121.371V121.14L8.51931 121.025L8.40362 120.909L8.17226 120.793L8.05658 120.678V120.447L8.17226 120.216L8.05658 120.1L8.17226 119.869H8.28794L8.17226 119.638L8.05658 119.523L7.9409 119.292L7.70953 119.176L7.47817 118.945H7.36249L7.24681 118.83L6.89976 118.599L6.78408 118.483L6.43704 118.137V117.905L6.32135 117.674L6.08999 117.559L5.97431 117.328V117.212H5.85863L5.51158 116.75L5.74295 116.519L5.62726 116.288L5.85863 116.173L6.08999 116.057L6.32135 115.942L6.43704 115.826V115.595L6.55272 115.48L6.6684 115.364H6.78408L6.89976 115.249L7.13113 115.133L7.36249 115.249H7.70953V114.902V114.786L7.82522 114.671H7.70953L7.59385 114.44H7.47817L7.36249 114.324V113.978L7.13113 113.516L7.36249 113.4M7.36249 113.4V113.4ZM7.36249 113.4L7.24681 113.054L7.13113 113.169V113.054L7.01544 113.169V112.938H7.13113L6.89976 112.476L7.01544 112.361L6.89976 112.245L6.43704 112.476L5.97431 112.823L5.51158 112.361L6.08999 110.974L6.20567 110.397L6.32135 109.588L6.08999 109.357L5.28022 109.01L5.16454 108.895L4.81749 108.664L5.04886 108.433L4.47045 108.202L3.89204 107.971L3.545 107.855L3.31363 108.086L3.19795 108.202L2.96659 108.086L2.61954 107.971L1.11568 107.393L1.23136 107.047V106.354V105.891L1 105.66L1.11568 105.429L1.23136 104.852L1.57841 104.736L1.80977 104.621L2.85091 103.466H2.96659L3.66068 102.888L4.23909 101.964L4.47045 101.386L4.81749 100.924L5.16454 101.271L5.62726 100.924L5.85863 100.809L6.43704 101.155L6.32135 101.502L6.55272 101.617V101.386L6.78408 101.271L7.24681 100.578L7.13113 100.231L7.24681 100L7.13113 99.769L7.47817 99.8845L7.24681 99.3069L7.36249 98.2672V98.1517V97.3431M7.36249 97.3431V97.3431Z" stroke="#424242"/>
</svg>
