<svg width="26" height="25" viewBox="0 0 26 25" fill="none" xmlns="http://www.w3.org/2000/svg">
<path fill-rule="evenodd" clip-rule="evenodd" d="M13.4954 5.62451C11.9329 5.62451 9.58917 6.37451 8.96417 9.37451C8.70376 10.6245 9.05208 13.2026 11.5423 14.3745C12.4277 14.7912 14.6673 15.2339 16.5423 13.6714C17.3235 12.9683 18.6673 10.9683 17.7923 8.59326C17.4537 7.60368 16.1204 5.62451 13.4954 5.62451ZM10.136 9.37451C10.6829 7.36939 12.4798 6.71826 13.4954 6.71826C15.136 6.71826 16.2819 7.96826 16.5423 8.59326C17.3235 10.4683 16.5423 12.0059 15.9954 12.5776C14.2767 14.3745 12.011 13.5151 11.2298 12.812C10.136 11.8276 9.83774 10.4683 10.136 9.37451Z" fill="white"/>
<path d="M13.4956 16.5621C8.87061 16.5621 5.83936 18.5413 4.90186 19.5309L5.76123 20.0777C6.8029 19.2965 9.80811 17.7184 13.4956 17.6559C17.1831 17.5934 20.0841 19.2444 21.0737 20.0777L21.9331 19.5309C19.8706 17.0934 15.4487 16.5361 13.4956 16.5621Z" fill="white"/>
<path fill-rule="evenodd" clip-rule="evenodd" d="M24.9728 12.4998C24.9728 18.9013 19.7834 24.0908 13.3819 24.0908C6.98044 24.0908 1.79102 18.9013 1.79102 12.4998C1.79102 6.09836 6.98044 0.908936 13.3819 0.908936C19.7834 0.908936 24.9728 6.09836 24.9728 12.4998ZM13.3819 22.9544C19.1558 22.9544 23.8365 18.2737 23.8365 12.4998C23.8365 6.72596 19.1558 2.0453 13.3819 2.0453C7.60804 2.0453 2.92738 6.72596 2.92738 12.4998C2.92738 18.2737 7.60804 22.9544 13.3819 22.9544Z" fill="white"/>
</svg>
