<svg width="26" height="25" viewBox="0 0 26 25" fill="none" xmlns="http://www.w3.org/2000/svg">
<path d="M6.3597 7.8002H6.35958C5.90705 7.8001 5.47109 7.97046 5.13852 8.27735C4.80595 8.58423 4.60118 9.00512 4.56498 9.4562L3.9669 9.4082L4.56497 9.45622L3.60137 21.4562C3.60137 21.4562 3.60137 21.4562 3.60137 21.4562C3.5815 21.7039 3.61311 21.953 3.69423 22.1878C3.77535 22.4227 3.90421 22.6382 4.0727 22.8208C4.2412 23.0034 4.44567 23.1492 4.67326 23.2489C4.90079 23.3486 5.14649 23.4001 5.3949 23.4002L6.3597 7.8002ZM6.3597 7.8002H20.8293H20.8294M6.3597 7.8002H20.8294M20.8294 7.8002C21.2819 7.8001 21.7179 7.97046 22.0505 8.27735M20.8294 7.8002L22.0505 8.27735M22.0505 8.27735C22.383 8.58423 22.5878 9.00512 22.624 9.4562M22.0505 8.27735L22.624 9.4562M22.624 9.4562L23.5876 21.4562M22.624 9.4562L23.5876 21.4562M23.5876 21.4562C23.6075 21.7039 23.5759 21.953 23.4948 22.1878C23.4137 22.4227 23.2848 22.6382 23.1163 22.8208C22.9478 23.0034 22.7433 23.1492 22.5157 23.2489C22.2882 23.3486 22.0425 23.4001 21.7941 23.4002C21.794 23.4002 21.794 23.4002 21.7939 23.4002H5.39507L23.5876 21.4562Z" stroke="white" stroke-width="1.2" stroke-linecap="round" stroke-linejoin="round"/>
<mask id="path-2-inside-1_910_9950" fill="white">
<path d="M18.3939 11V5.8C18.3939 4.52696 17.8882 3.30606 16.9881 2.40589C16.0879 1.50571 14.867 1 13.5939 1C12.3209 1 11.1 1.50571 10.1998 2.40589C9.29966 3.30606 8.79395 4.52696 8.79395 5.8V11"/>
</mask>
<path d="M17.1939 11C17.1939 11.6627 17.7312 12.2 18.3939 12.2C19.0567 12.2 19.5939 11.6627 19.5939 11H17.1939ZM18.3939 5.8L19.5939 5.8L18.3939 5.8ZM13.5939 1V-0.2V1ZM8.79395 5.8H7.59395H8.79395ZM7.59395 11C7.59395 11.6627 8.1312 12.2 8.79395 12.2C9.45669 12.2 9.99395 11.6627 9.99395 11H7.59395ZM19.5939 11V5.8H17.1939V11H19.5939ZM19.5939 5.8C19.5939 4.2087 18.9618 2.68258 17.8366 1.55736L16.1395 3.25442C16.8147 3.92955 17.1939 4.84522 17.1939 5.8L19.5939 5.8ZM17.8366 1.55736C16.7114 0.432141 15.1852 -0.2 13.5939 -0.2V2.2C14.5487 2.2 15.4644 2.57928 16.1395 3.25442L17.8366 1.55736ZM13.5939 -0.2C12.0026 -0.2 10.4765 0.432141 9.3513 1.55736L11.0484 3.25442C11.7235 2.57928 12.6392 2.2 13.5939 2.2V-0.2ZM9.3513 1.55736C8.22609 2.68258 7.59395 4.2087 7.59395 5.8L9.99395 5.8C9.99395 4.84522 10.3732 3.92955 11.0484 3.25442L9.3513 1.55736ZM7.59395 5.8V11H9.99395V5.8H7.59395Z" fill="white" mask="url(#path-2-inside-1_910_9950)"/>
</svg>
