<svg width="26" height="25" viewBox="0 0 26 25" fill="none" xmlns="http://www.w3.org/2000/svg">
<path d="M8.32061 2.6L8.32103 2.6C9.23829 2.59934 10.1425 2.82263 10.9573 3.25141C11.7721 3.6802 12.4738 4.30206 13.0024 5.065C13.1144 5.22667 13.2986 5.32318 13.4952 5.3233C13.6919 5.32342 13.8762 5.22715 13.9884 5.06562C15.0265 3.57128 16.7384 2.6 18.6706 2.6C21.8249 2.6 24.3956 5.19342 24.3956 8.40914C24.3956 11.4034 22.634 14.7012 20.297 17.4621C18.0384 20.1305 15.3576 22.1623 13.4956 22.863C11.6336 22.1623 8.95283 20.1305 6.6942 17.4621C4.35721 14.7012 2.59561 11.4034 2.59561 8.40914C2.59561 5.19342 5.1663 2.6 8.32061 2.6Z" stroke="white" stroke-width="1.2" stroke-linecap="round" stroke-linejoin="round"/>
</svg>
