<svg width="25" height="25" viewBox="0 0 25 25" fill="none" xmlns="http://www.w3.org/2000/svg">
<path d="M7.58989 7.64118C8.79615 2.45871 11.2174 1.38648 12.5602 1.38647C15.3524 1.38647 16.9719 5.38875 17.5304 7.64118C18.826 12.0195 17.8655 16.9674 17.0836 19.1453C16.3576 20.9324 15.2407 23.5013 12.5602 23.5013C10.2705 23.5013 8.63233 20.6159 8.0925 19.1453C7.42235 17.47 6.38363 12.8236 7.58989 7.64118Z" stroke="white" stroke-width="0.7"/>
<path d="M12.5601 1.38647V23.3338" stroke="white"/>
<path d="M1.67041 12.3882H23.6177" stroke="white"/>
<path d="M5.5791 3.67627C6.97524 4.29057 10.5605 5.00539 12.6156 4.96072C14.6708 4.91604 18.0327 4.34642 19.5405 3.67627" stroke="white" stroke-width="0.7"/>
<path d="M5.52344 21.2677C6.91958 20.4859 10.449 19.8381 12.5041 19.9275C15.3522 20.0513 17.4744 20.3184 19.3731 21.2677" stroke="white" stroke-width="0.7"/>
<path d="M23.775 12.4999C23.775 18.7262 18.7523 23.7708 12.56 23.7708C6.3677 23.7708 1.345 18.7262 1.345 12.4999C1.345 6.2736 6.3677 1.22903 12.56 1.22903C18.7523 1.22903 23.775 6.2736 23.775 12.4999Z" stroke="white" stroke-width="0.69"/>
</svg>
