<svg width="25" height="25" viewBox="0 0 25 25" fill="none" xmlns="http://www.w3.org/2000/svg">
<path d="M23.9961 12.4979C23.9961 8.95419 22.4012 5.66227 19.6142 3.46555C17.5718 1.85441 15.1141 1 12.5102 1H12.4858C9.87775 1 7.42427 1.85441 5.3819 3.46555C2.59881 5.66254 1 8.95419 1 12.4979C1 15.8546 2.43219 18.9835 4.9506 21.1721H4.93436L5.37795 21.5303C5.44292 21.579 5.50817 21.6319 5.56922 21.6809C7.25368 22.9543 9.20255 23.7233 11.2816 23.9389C11.6804 23.9796 12.0873 24 12.4942 24C12.9011 24 13.308 23.9796 13.7068 23.9389C13.7964 23.9308 13.8858 23.9185 13.9754 23.9065C14.1137 23.8902 14.252 23.8698 14.3904 23.8454C14.48 23.8292 14.5693 23.8169 14.659 23.7967C16.4613 23.455 18.1458 22.6899 19.6147 21.5305L20.0583 21.1808H20.042C22.5605 18.9877 23.9926 15.859 23.9926 12.5025L23.9961 12.4979ZM23 12H18.2918C18.2551 9.28211 17.7507 6.89108 16.8554 4.87722C17.7017 4.67782 18.5357 4.41738 19.3537 4.10008C21.803 6.10188 22.9064 8.84659 23 12ZM18.6945 21.3959C18.6659 21.4163 18.6416 21.4325 18.613 21.4527C18.5805 21.4771 18.5439 21.4975 18.5114 21.5219C18.4828 21.5381 18.4584 21.5586 18.4299 21.5748C18.3932 21.5992 18.3607 21.6196 18.324 21.644C18.2955 21.6602 18.2711 21.6765 18.2425 21.6969C18.2059 21.7213 18.1692 21.7417 18.1367 21.7619C18.1123 21.7781 18.0838 21.7944 18.0594 21.8106C18.0227 21.835 17.9821 21.8554 17.9454 21.8798C17.9211 21.896 17.8967 21.9083 17.8721 21.9246C17.8315 21.949 17.7866 21.9733 17.746 21.998C17.7256 22.0103 17.7054 22.0223 17.685 22.0346C17.559 22.1038 17.4287 22.173 17.3025 22.234C17.282 22.2422 17.2618 22.2545 17.2414 22.2626C17.1966 22.283 17.1518 22.3074 17.1072 22.3276C17.0829 22.3399 17.0585 22.3519 17.0339 22.3643C16.9933 22.3847 16.9524 22.4009 16.9118 22.4211C16.8832 22.4334 16.8589 22.4455 16.8303 22.4578C16.7897 22.474 16.753 22.4903 16.7124 22.5065C16.6838 22.5188 16.6555 22.5309 16.627 22.5432C16.5903 22.5595 16.5497 22.5757 16.5091 22.5919C16.4805 22.6043 16.4522 22.6163 16.4237 22.6244C16.387 22.6407 16.3464 22.653 16.3058 22.6692C16.2772 22.6816 16.2489 22.6897 16.2203 22.7017C16.1797 22.718 16.1431 22.7303 16.1024 22.7423C16.0739 22.7505 16.0456 22.7628 16.017 22.7709C15.9764 22.7832 15.9355 22.7995 15.8949 22.8115C15.8664 22.8196 15.8381 22.8319 15.8095 22.8401C15.7689 22.8524 15.728 22.8644 15.6835 22.8807C15.6549 22.8888 15.6306 22.8969 15.602 22.905C15.5572 22.9174 15.5124 22.9294 15.4679 22.9457C15.4435 22.9538 15.4191 22.958 15.3945 22.9661C15.3416 22.9823 15.2847 22.9947 15.2318 23.0109C15.2155 23.0109 15.2032 23.019 15.187 23.0232C15.1178 23.0395 15.0444 23.0599 14.9755 23.0761C14.9593 23.0761 14.943 23.0843 14.9307 23.0885C14.8739 23.1008 14.8209 23.1128 14.7638 23.1251C15.4312 22.5718 16.0372 21.7744 16.5622 20.7489C17.2987 20.9158 18.0229 21.1273 18.7349 21.3877C18.7186 21.3958 18.7063 21.4082 18.6901 21.4202L18.6945 21.3959ZM10.0606 23.068C10.0606 23.068 10.032 23.0599 10.0158 23.0599C9.9466 23.0437 9.87323 23.0274 9.80433 23.007C9.78808 23.007 9.77577 22.9989 9.75952 22.9947C9.70267 22.9784 9.64974 22.9661 9.59262 22.9499C9.56825 22.9418 9.54389 22.9376 9.51925 22.9294C9.47445 22.9171 9.42965 22.9051 9.3851 22.8888C9.35654 22.8807 9.33218 22.8726 9.30362 22.8645C9.26301 22.8521 9.2182 22.8401 9.17759 22.8238C9.14903 22.8157 9.12073 22.8034 9.09218 22.7953C9.05156 22.783 9.01069 22.7667 8.97008 22.7547C8.94152 22.7466 8.91322 22.7342 8.88467 22.7261C8.84405 22.7138 8.80737 22.6976 8.76676 22.6855C8.7382 22.6732 8.70991 22.6651 8.68135 22.653C8.64074 22.6368 8.60406 22.6245 8.56344 22.6082C8.53488 22.5959 8.50659 22.5878 8.47803 22.5757C8.43742 22.5595 8.40074 22.5432 8.36012 22.527C8.33157 22.5147 8.30327 22.5026 8.27864 22.4945C8.23803 22.4783 8.19716 22.462 8.16074 22.4416C8.13637 22.4293 8.10781 22.4172 8.08344 22.4049C8.04283 22.3845 8.00196 22.3682 7.96135 22.348C7.93698 22.3357 7.91261 22.3276 7.88798 22.3155C7.84318 22.2951 7.79444 22.2707 7.74964 22.2506C7.7292 22.2424 7.71296 22.2301 7.69278 22.222C7.56256 22.157 7.43653 22.0918 7.30631 22.0226C7.28587 22.0103 7.2657 22.0022 7.24946 21.9901C7.20465 21.9658 7.16404 21.9414 7.11924 21.9168C7.09487 21.9044 7.0705 21.8882 7.04587 21.8761C7.00526 21.8518 6.96858 21.8313 6.92796 21.807C6.9036 21.7907 6.87923 21.7745 6.85067 21.7622C6.81399 21.7378 6.77731 21.7174 6.74089 21.693C6.71652 21.6768 6.68796 21.6605 6.6636 21.6443C6.62692 21.6199 6.59443 21.5995 6.55775 21.5751C6.53338 21.5589 6.50482 21.5384 6.48046 21.5222C6.44797 21.4978 6.41129 21.4774 6.3788 21.453C6.35443 21.4368 6.32587 21.4163 6.30151 21.4001C6.28526 21.3878 6.27295 21.3796 6.2567 21.3676C6.96884 21.1071 7.69305 20.8957 8.42934 20.7288C8.95415 21.754 9.56439 22.5555 10.2278 23.105C10.1709 23.0927 10.1177 23.0804 10.0606 23.068ZM13 2C14.1311 2.15459 15.0323 2.78581 15.899 4.40923C14.89 4.6005 14.0376 4.70216 13 4.7226V2ZM12 2V4.7226C10.9624 4.70635 10.1093 4.59628 9.10028 4.40501C9.96703 2.78159 10.8689 2.15877 12 2ZM12 5.37344V12H7.3629C7.39958 9.31464 7.90815 6.96829 8.79925 5.01526C9.90599 5.23508 10.8568 5.35301 12 5.37344ZM12 13V19.6144C10.8608 19.6348 9.90599 19.7566 8.79925 19.9764C7.90815 18.0234 7.39959 15.6856 7.3629 13H12ZM12 23.0232C10.8689 22.8686 9.96703 22.206 9.10028 20.5867C10.1093 20.3955 10.9624 20.2938 12 20.2734V23.0232ZM13 23.0232V20.2734C14.0376 20.2896 14.89 20.3955 15.899 20.5868C15.0323 22.2102 14.1311 22.8686 13 23.0232ZM13 19.6144V13H17.6364C17.5997 15.6854 17.0911 18.0196 16.2 19.9726C15.0933 19.7528 14.1432 19.6348 13 19.6144ZM13 12V5.37344C14.1392 5.353 15.0936 5.2353 16.2003 5.01547C17.0914 6.9685 17.5997 9.31444 17.6364 12H13ZM18.735 3.62432C18.0229 3.88476 17.2987 4.0962 16.5624 4.2631C16.0376 3.23785 15.4273 2.44026 14.764 1.88689C16.188 2.18794 17.5267 2.77387 18.735 3.62432ZM8.4289 4.2631C7.69241 4.0962 6.9682 3.88476 6.26022 3.62432C7.46442 2.77407 8.80727 2.18796 10.2313 1.88693C9.56813 2.4403 8.95792 3.23763 8.43286 4.26314L8.4289 4.2631ZM5.86387 4.2631C6.68159 4.5804 7.29385 4.67394 8.14014 4.87333C7.24509 6.89136 6.73652 9.28224 6.69983 12H2C2.09354 8.84665 3.41066 6.26523 5.86387 4.2631ZM2 13H6.69983C6.73651 15.7179 7.24089 18.1006 8.13618 20.1185C7.28989 20.3179 6.55996 20.4316 5.74197 20.7489C3.29265 18.7471 2.09357 16.1534 2 13ZM19.1453 20.7489C18.3276 20.4316 17.6972 20.3181 16.8509 20.1187C17.7459 18.1007 18.2551 15.7178 18.2918 13H23C22.9065 16.1533 21.5985 18.747 19.1453 20.7489Z" fill="white"/>
</svg>
