<svg xmlns="http://www.w3.org/2000/svg" width="55" height="55" fill="none"><path fill="#CB94D3" d="M27.5 32.313c-2.578 0-4.813-2.063-4.813-4.813 0-2.578 2.063-4.813 4.813-4.813 2.578 0 4.813 2.063 4.813 4.813 0 2.578-2.235 4.813-4.813 4.813Z"/><path fill="#CB94D3" fill-rule="evenodd" d="M33.344 15.813H21.656c-1.375.171-2.062.343-2.578.515-.687.172-1.203.516-1.719 1.031-.408.408-.6.816-.833 1.31-.062.13-.126.266-.198.41-.026.079-.057.163-.09.253a6.066 6.066 0 0 0-.425 2.324v11.688c.171 1.375.343 2.062.515 2.578.172.687.516 1.203 1.031 1.719.408.408.816.6 1.31.833.13.062.266.126.41.198.079.027.163.057.253.09.49.18 1.162.425 2.324.425h11.688c1.375-.171 2.062-.343 2.578-.515.687-.172 1.203-.516 1.719-1.031.408-.408.6-.816.833-1.31.062-.13.126-.266.198-.41.027-.079.057-.163.09-.253.18-.49.425-1.162.425-2.324V21.656c-.171-1.375-.343-2.062-.515-2.578-.172-.687-.516-1.203-1.031-1.719-.408-.408-.816-.6-1.31-.833-.13-.062-.266-.126-.41-.198a9.457 9.457 0 0 1-.253-.09 6.066 6.066 0 0 0-2.324-.425ZM27.5 20.108c-4.125 0-7.39 3.266-7.39 7.391s3.265 7.39 7.39 7.39 7.39-3.265 7.39-7.39-3.265-7.39-7.39-7.39Zm9.281-.172a1.719 1.719 0 1 1-3.437 0 1.719 1.719 0 0 1 3.437 0Z" clip-rule="evenodd"/><path fill="#CB94D3" fill-rule="evenodd" d="M0 27.5C0 12.312 12.312 0 27.5 0S55 12.312 55 27.5 42.688 55 27.5 55 0 42.688 0 27.5Zm21.656-14.266h11.688c1.547.172 2.578.344 3.437.688 1.032.515 1.719.86 2.578 1.719.86.859 1.375 1.718 1.72 2.578.343.86.687 1.89.687 3.437v11.688c-.172 1.547-.344 2.578-.688 3.437-.516 1.032-.86 1.719-1.719 2.578-.859.86-1.718 1.375-2.578 1.72-.86.343-1.89.687-3.437.687H21.656c-1.547-.172-2.578-.344-3.437-.688-1.032-.516-1.719-.86-2.578-1.719-.86-.859-1.375-1.718-1.72-2.578-.343-.86-.687-1.89-.687-3.437V21.656c.172-1.547.344-2.578.688-3.437.515-1.032.86-1.719 1.719-2.578.859-.86 1.718-1.375 2.578-1.72.86-.343 1.89-.687 3.437-.687Z" clip-rule="evenodd"/></svg>