<svg xmlns="http://www.w3.org/2000/svg" width="40" height="40" fill="none"><path fill="#CB94D3" d="M23.25 20 18 17v6l5.25-3Z"/><path fill="#CB94D3" fill-rule="evenodd" d="M0 20C0 8.954 8.954 0 20 0s20 8.954 20 20-8.954 20-20 20S0 31.046 0 20Zm27.75-6.625c.875.25 1.5.875 1.75 1.75C30 16.75 30 20 30 20s0 3.25-.375 4.875c-.25.875-.875 1.5-1.75 1.75C26.25 27 20 27 20 27s-6.375 0-7.875-.375a2.476 2.476 0 0 1-1.75-1.75C10 23.25 10 20 10 20s0-3.25.25-4.875c.25-.875.875-1.5 1.75-1.75C13.625 13 19.875 13 19.875 13s6.375 0 7.875.375Z" clip-rule="evenodd"/></svg>