<svg xmlns="http://www.w3.org/2000/svg" width="35" height="35" fill="none"><path fill="#CB94D3" d="M27.587 26.01h5.725l-8.452 8.433v-5.705a2.737 2.737 0 0 1 2.727-2.728ZM33.85 4.63v19.46h-6.263a4.652 4.652 0 0 0-4.648 4.648V35H6.629A4.632 4.632 0 0 1 2 30.37V4.63A4.631 4.631 0 0 1 6.63 0h22.59a4.632 4.632 0 0 1 4.63 4.63ZM13.469 15.79a2.672 2.672 0 0 0-2.69-2.689H8.205a.96.96 0 0 0-.96.96v6.878a.96.96 0 0 0 .96.96.976.976 0 0 0 .96-.96V18.46h1.614a2.69 2.69 0 0 0 2.69-2.67Zm7.569-.019a2.665 2.665 0 0 0-2.67-2.67h-2.594a.96.96 0 0 0-.96.96v6.878a.96.96 0 0 0 .96.96h2.593a2.665 2.665 0 0 0 2.67-2.67v-3.458Zm7.626-1.71a.961.961 0 0 0-.96-.96H23.38a.96.96 0 0 0-.96.96v6.878a.96.96 0 0 0 1.92 0V18.46h2.229a.96.96 0 1 0 0-1.92H24.34v-1.518h3.362a.976.976 0 0 0 .96-.96Zm-17.884.96-1.614.001v1.518h1.614a.768.768 0 0 0 .768-.75.748.748 0 0 0-.768-.768Zm7.588 0h-1.633v4.957h1.633c.409-.01.739-.34.748-.749v-3.458a.768.768 0 0 0-.748-.749Z"/></svg>