<svg width="212" height="50" viewBox="0 0 212 50" fill="none" xmlns="http://www.w3.org/2000/svg">
<g clip-path="url(#clip0_745_28)">
<path d="M21.4685 36.4379C23.543 37.7586 25.975 38.4376 28.4486 38.3866C32.1417 38.3866 35.1634 37.1631 37.5136 34.7162C39.8637 32.2692 41.0388 29.046 41.0388 25.0467C41.0388 21.021 39.8637 17.7749 37.5136 15.3082C35.1634 12.8415 32.1317 11.6098 28.4184 11.613C24.7252 11.613 21.6935 12.825 19.3231 15.249C16.9528 17.6729 15.7777 21.0375 15.7979 25.3427C15.8161 27.4371 16.2667 29.5062 17.1224 31.4256C18.0245 33.4859 19.5389 35.2325 21.4685 36.4379ZM22.0174 17.1532C22.8528 16.3052 23.859 15.6367 24.9722 15.1899C26.0854 14.7432 27.2813 14.5281 28.4838 14.5583C29.7036 14.5241 30.9159 14.754 32.0345 15.2316C33.1531 15.7091 34.1504 16.4225 34.9552 17.321C36.6339 19.1595 37.4733 21.7282 37.4733 25.027C37.4733 28.2731 36.6339 30.8237 34.9552 32.6787C34.1434 33.5894 33.1345 34.3112 32.0019 34.7917C30.8694 35.2722 29.6417 35.4992 28.4083 35.4562C27.1706 35.5026 25.9382 35.2732 24.8041 34.7852C23.6701 34.2973 22.6639 33.5635 21.8614 32.6392C20.2297 30.7645 19.4138 28.3504 19.4138 25.397C19.4205 21.6278 20.2884 18.8799 22.0174 17.1532Z" fill="black"/>
<path d="M58.1069 17.6072L71.9813 37.9377H75.567V12.062H72.213V32.3777L58.3385 12.062H54.7528V37.9377H58.1069V17.6072Z" fill="black"/>
<path d="M130.46 12.062H126.965V37.9377H130.46V12.062Z" fill="black"/>
<path d="M154.603 15.8065H155.268C156.94 20.3896 163.698 37.9377 163.698 37.9377H167.682L156.869 12.062H153.107L142.96 37.9377H146.671C146.671 37.9377 153.092 20.4587 154.603 15.8065Z" fill="black"/>
<path d="M196.176 34.8839H183.173V12.062H179.673V37.9377H196.176V34.8839Z" fill="black"/>
<path d="M94.7342 28.061V14.9233H103.094C105.224 14.9233 106.695 15.3476 107.521 16.2011C107.916 16.5903 108.228 17.0523 108.44 17.5603C108.652 18.0683 108.759 18.6124 108.755 19.1611C108.793 19.7946 108.664 20.4271 108.38 20.9975C108.096 21.5679 107.666 22.0568 107.133 22.4172C106.05 23.1374 104.424 23.5025 102.248 23.5025H100.284V26.4625L109.304 37.9524H113.7L103.94 26.2504C106.378 25.9544 109.203 25.1108 110.487 23.8478C111.11 23.2276 111.598 22.4906 111.922 21.681C112.247 20.8714 112.401 20.0059 112.376 19.1364C112.412 17.6407 111.962 16.1724 111.091 14.9431C110.337 13.8403 109.222 13.0224 107.929 12.6244C106.311 12.2159 104.643 12.0315 102.973 12.0768H91.2593V37.9524H94.7544L94.7342 28.061Z" fill="black"/>
<path d="M0 0V50H212.02V0H0ZM208.782 46.8673H3.208V3.1475H208.782V46.8673Z" fill="black"/>
</g>
<defs>
<clipPath id="clip0_745_28">
<rect width="212" height="50" fill="white"/>
</clipPath>
</defs>
</svg>
