<svg xmlns="http://www.w3.org/2000/svg" width="26" height="25" fill="none"><path stroke="#fff" stroke-linecap="round" stroke-linejoin="round" stroke-width="1.15" d="M2.57 12.5c0-6.034 4.892-10.925 10.926-10.925 6.033 0 10.925 4.891 10.925 10.925 0 6.034-4.892 10.925-10.925 10.925-6.034 0-10.925-4.891-10.925-10.925Z"/><mask id="a" fill="#fff"><path d="M4.608 19.798s2.563-3.273 8.888-3.273c6.325 0 8.89 3.273 8.89 3.273"/></mask><path fill="#fff" d="M3.703 19.089a1.15 1.15 0 1 0 1.81 1.418l-1.81-1.418Zm17.777 1.418a1.15 1.15 0 1 0 1.811-1.418l-1.81 1.418Zm-16.872-.709.904.71v.001l-.002.002-.002.002v.002l.008-.01a4.715 4.715 0 0 1 .363-.366 7.876 7.876 0 0 1 1.372-.979c1.265-.723 3.292-1.485 6.245-1.485v-2.3c-3.371 0-5.789.875-7.386 1.788-.796.455-1.38.914-1.774 1.27a7 7 0 0 0-.575.585 2.606 2.606 0 0 0-.037.044l-.013.016-.005.006-.002.003c-.001.001-.001.002.904.711Zm8.888-2.123c2.954 0 4.98.762 6.246 1.485a7.868 7.868 0 0 1 1.373.98 4.734 4.734 0 0 1 .363.365l.009.01-.002-.002-.002-.002v-.002h-.002c0-.001 0-.002.905-.711l.904-.71v-.002a.196.196 0 0 0-.008-.008 1.856 1.856 0 0 1-.05-.06 6.996 6.996 0 0 0-.575-.584 10.166 10.166 0 0 0-1.774-1.27c-1.597-.914-4.015-1.789-7.387-1.789v2.3Z" mask="url(#a)"/><circle cx="13.495" cy="10.2" r="4.025" stroke="#fff" stroke-width="1.15"/></svg>