<svg width="25" height="25" fill="none" xmlns="http://www.w3.org/2000/svg"><path d="M23.996 12.498c0-3.544-1.595-6.836-4.382-9.032A11.367 11.367 0 0 0 12.51 1h-.024c-2.608 0-5.062.854-7.104 2.466A11.445 11.445 0 0 0 1 12.498a11.43 11.43 0 0 0 3.95 8.674h-.016l.444.358c.065.049.13.102.191.15A11.353 11.353 0 0 0 12.494 24c.407 0 .814-.02 1.213-.061.09-.008.179-.02.268-.032.139-.017.277-.037.415-.062.09-.016.18-.028.269-.048a11.384 11.384 0 0 0 4.956-2.267l.443-.35h-.016a11.445 11.445 0 0 0 3.95-8.678l.004-.004ZM23 12h-4.708c-.037-2.718-.541-5.109-1.437-7.123.847-.2 1.68-.46 2.499-.777C21.803 6.102 22.906 8.847 23 12Zm-4.305 9.396-.082.057c-.032.024-.07.044-.102.069-.028.016-.053.037-.081.053l-.106.069a.908.908 0 0 0-.082.053c-.036.024-.073.045-.105.065-.025.016-.053.032-.078.049-.036.024-.077.044-.114.069-.024.016-.048.028-.073.045-.04.024-.085.048-.126.073l-.061.037c-.126.069-.256.138-.383.199-.02.008-.04.02-.06.029-.045.02-.09.044-.135.065l-.073.036c-.04.02-.082.037-.122.057l-.082.037-.118.049-.085.036a3.429 3.429 0 0 1-.203.081c-.037.017-.078.029-.118.045-.029.013-.057.02-.086.033-.04.016-.077.028-.118.04-.028.008-.056.02-.085.029-.04.012-.082.028-.122.04-.029.009-.057.02-.085.03-.041.011-.082.023-.127.04l-.081.024c-.045.012-.09.024-.134.04-.024.009-.049.013-.073.021-.053.016-.11.029-.163.045-.016 0-.029.008-.045.012-.07.017-.143.037-.211.053-.017 0-.033.008-.045.012l-.167.037c.667-.553 1.273-1.35 1.798-2.376.737.167 1.46.378 2.173.639-.016.008-.029.02-.045.032l.005-.024Zm-8.634 1.672s-.029-.008-.045-.008c-.07-.016-.143-.033-.212-.053-.016 0-.028-.008-.044-.012-.057-.017-.11-.029-.167-.045-.025-.008-.05-.012-.074-.02-.045-.013-.09-.025-.134-.041l-.081-.024c-.041-.013-.086-.025-.126-.041-.029-.008-.057-.02-.086-.029-.04-.012-.081-.028-.122-.04-.028-.008-.057-.02-.085-.029-.041-.012-.078-.028-.118-.04-.029-.013-.057-.02-.086-.033-.04-.016-.077-.028-.118-.045-.028-.012-.056-.02-.085-.032l-.118-.049a1.046 1.046 0 0 0-.081-.033c-.041-.016-.082-.032-.118-.052-.025-.013-.053-.025-.078-.037-.04-.02-.081-.037-.122-.057-.024-.012-.048-.02-.073-.032-.045-.02-.094-.045-.138-.065-.02-.009-.037-.02-.057-.029a16.89 16.89 0 0 1-.387-.2c-.02-.012-.04-.02-.057-.032-.044-.024-.085-.049-.13-.073-.024-.013-.048-.029-.073-.04-.04-.025-.077-.046-.118-.07a.479.479 0 0 0-.077-.045c-.037-.024-.074-.045-.11-.069l-.077-.049c-.037-.024-.07-.044-.106-.069l-.078-.053c-.032-.024-.069-.045-.101-.069l-.077-.053-.045-.032c.712-.26 1.436-.472 2.172-.64.525 1.026 1.135 1.827 1.799 2.377l-.167-.037ZM13 2c1.131.155 2.032.786 2.899 2.41A16.423 16.423 0 0 1 13 4.722V2Zm-1 0v2.723c-1.038-.017-1.89-.127-2.9-.318C9.967 2.782 10.87 2.159 12 2Zm0 3.373V12H7.363c.037-2.685.545-5.032 1.436-6.985 1.107.22 2.058.338 3.201.358ZM12 13v6.614c-1.14.02-2.094.143-3.2.362-.892-1.953-1.4-4.29-1.437-6.976H12Zm0 10.023c-1.131-.154-2.033-.817-2.9-2.436a16.434 16.434 0 0 1 2.9-.314v2.75Zm1 0v-2.75c1.038.017 1.89.122 2.899.314-.867 1.623-1.768 2.282-2.899 2.436Zm0-3.409V13h4.636c-.036 2.685-.545 5.02-1.436 6.973a17.128 17.128 0 0 0-3.2-.359ZM13 12V5.373a17.17 17.17 0 0 0 3.2-.358c.891 1.954 1.4 4.3 1.436 6.985H13Zm5.735-8.376a17.72 17.72 0 0 1-2.173.64c-.524-1.026-1.135-1.824-1.798-2.377 1.424.3 2.763.887 3.971 1.737Zm-10.306.64a17.442 17.442 0 0 1-2.169-.64 10.702 10.702 0 0 1 3.971-1.737c-.663.553-1.273 1.35-1.798 2.376h-.004Zm-2.565 0c.818.316 1.43.41 2.276.61C7.245 6.89 6.737 9.281 6.7 12H2c.094-3.153 1.41-5.735 3.864-7.737ZM2 13h4.7c.037 2.718.54 5.1 1.436 7.119-.846.199-1.576.313-2.394.63C3.292 18.747 2.094 16.153 2 13Zm17.145 7.749c-.817-.317-1.448-.43-2.294-.63.895-2.018 1.404-4.401 1.44-7.119H23c-.093 3.153-1.401 5.747-3.855 7.749Z" fill="#fff"/></svg>